ThinCompressedLatin_decomp.ufo
<glyph name="exclam" format="1">
  <advance width="238.0"/>
  <unicode hex="0021"/>
  <outline>
    <contour>
      <point x="131.0" y="229" type="line"/>
      <point x="134.0" y="722" type="line"/>
      <point x="103.0" y="722" type="line"/>
      <point x="106.0" y="229" type="line"/>
    </contour>
    <contour>
      <point x="137.0" y="12"/>
      <point x="102.0" y="12"/>
      <point x="137.0" y="12" type="curve"/>
      <point x="137.0" y="23"/>
      <point x="130.0" y="29"/>
      <point x="119.0" y="29" type="curve"/>
      <point x="108.0" y="29"/>
      <point x="102.0" y="22"/>
      <point x="102.0" y="12" type="curve"/>
      <point x="137.0" y="12"/>
      <point x="102.0" y="12"/>
      <point x="137.0" y="12" type="curve"/>
      <point x="137.0" y="1"/>
      <point x="130.0" y="-5"/>
      <point x="119.0" y="-5" type="curve"/>
      <point x="108.0" y="-5"/>
      <point x="102.0" y="1"/>
      <point x="102.0" y="12" type="curve"/>
    </contour>
  </outline>
</glyph>
<glyph name="quotedbl" format="1">
  <advance width="316.575"/>
  <unicode hex="0022"/>
  <outline>
    <contour>
      <point x="105.0" y="611" type="line"/>
      <point x="108.0" y="799" type="line"/>
      <point x="78.0" y="799" type="line"/>
      <point x="81.0" y="611" type="line"/>
    </contour>
    <contour>
      <point x="236.0" y="611" type="line"/>
      <point x="239.0" y="799" type="line"/>
      <point x="209.0" y="799" type="line"/>
      <point x="212.0" y="611" type="line"/>
    </contour>
  </outline>
</glyph>
<glyph name="numbersign" format="1">
  <advance width="502.225"/>
  <unicode hex="0023"/>
  <outline>
    <contour>
      <point x="46.825" y="247" type="curve"/>
      <point x="397.825" y="247" type="curve"/>
      <point x="402.825" y="269" type="curve"/>
      <point x="51.825" y="269" type="curve"/>
    </contour>
    <contour>
      <point x="97.825" y="492" type="curve"/>
      <point x="448.825" y="492" type="curve"/>
      <point x="453.825" y="513" type="curve"/>
      <point x="102.825" y="513" type="curve"/>
    </contour>
    <contour>
      <point x="278.825" y="39" type="curve"/>
      <point x="430.825" y="722" type="curve"/>
      <point x="406.825" y="722" type="curve"/>
      <point x="254.825" y="39" type="curve"/>
    </contour>
    <contour>
      <point x="102.825" y="46" type="curve"/>
      <point x="251.825" y="722" type="curve"/>
      <point x="227.825" y="722" type="curve"/>
      <point x="79.825" y="46" type="curve"/>
    </contour>
  </outline>
</glyph>
<glyph name="dollar" format="1">
  <advance width="416.0"/>
  <unicode hex="0024"/>
  <outline>
    <contour>
      <point x="206.0" y="-43"/>
      <point x="182.0" y="-43"/>
      <point x="206.0" y="-43" type="curve"/>
      <point x="206.0" y="-9"/>
      <point x="206.0" y="25"/>
      <point x="206.0" y="59" type="curve"/>
      <point x="182.0" y="59"/>
      <point x="206.0" y="59"/>
      <point x="182.0" y="59" type="curve"/>
      <point x="182.0" y="25"/>
      <point x="182.0" y="-9"/>
      <point x="182.0" y="-43" type="curve"/>
    </contour>
    <contour>
      <point x="214.0" y="671"/>
      <point x="190.0" y="671"/>
      <point x="214.0" y="671" type="curve"/>
      <point x="214.0" y="705"/>
      <point x="214.0" y="739"/>
      <point x="214.0" y="773" type="curve"/>
      <point x="190.0" y="773"/>
      <point x="214.0" y="773"/>
      <point x="190.0" y="773" type="curve"/>
      <point x="190.0" y="739"/>
      <point x="190.0" y="705"/>
      <point x="190.0" y="671" type="curve"/>
    </contour>
    <contour>
      <point x="55.0" y="99"/>
      <point x="68.0" y="118"/>
      <point x="55.0" y="99" type="curve"/>
      <point x="91.0" y="73"/>
      <point x="137.0" y="48"/>
      <point x="193.0" y="48" type="curve"/>
      <point x="291.0" y="48"/>
      <point x="356.0" y="112"/>
      <point x="356.0" y="198" type="curve"/>
      <point x="356.0" y="281"/>
      <point x="291.0" y="336"/>
      <point x="211.0" y="385" type="curve"/>
      <point x="141.0" y="428"/>
      <point x="95.0" y="470"/>
      <point x="95.0" y="543" type="curve"/>
      <point x="95.0" y="609"/>
      <point x="135.0" y="662"/>
      <point x="206.0" y="662" type="curve"/>
      <point x="257.0" y="662"/>
      <point x="291.0" y="643"/>
      <point x="331.0" y="613" type="curve"/>
      <point x="343.0" y="631"/>
      <point x="331.0" y="613"/>
      <point x="343.0" y="631" type="curve"/>
      <point x="300.0" y="664"/>
      <point x="262.0" y="683"/>
      <point x="207.0" y="683" type="curve"/>
      <point x="121.0" y="683"/>
      <point x="70.0" y="622"/>
      <point x="70.0" y="543" type="curve"/>
      <point x="70.0" y="462"/>
      <point x="120.0" y="412"/>
      <point x="197.0" y="365" type="curve"/>
      <point x="271.0" y="322"/>
      <point x="332.0" y="273"/>
      <point x="332.0" y="197" type="curve"/>
      <point x="332.0" y="123"/>
      <point x="278.0" y="69"/>
      <point x="195.0" y="69" type="curve"/>
      <point x="144.0" y="69"/>
      <point x="102.0" y="95"/>
      <point x="68.0" y="118" type="curve"/>
    </contour>
  </outline>
</glyph>
<glyph name="percent" format="1">
  <advance width="690.0"/>
  <unicode hex="0025"/>
  <outline>
    <contour>
      <point x="213.0" y="-93" type="line"/>
      <point x="512.0" y="757" type="line"/>
      <point x="484.0" y="757" type="line"/>
      <point x="186.0" y="-93" type="line"/>
    </contour>
    <contour>
      <point x="52.0" y="557"/>
      <point x="57.0" y="557"/>
      <point x="66.0" y="557" type="curve"/>
      <point x="66.0" y="658"/>
      <point x="80.0" y="743"/>
      <point x="167.0" y="743" type="curve"/>
      <point x="254.0" y="744"/>
      <point x="268.0" y="659"/>
      <point x="268.0" y="558" type="curve"/>
      <point x="268.0" y="457"/>
      <point x="256.0" y="370"/>
      <point x="169.0" y="370" type="curve"/>
      <point x="81.0" y="370"/>
      <point x="66.0" y="455"/>
      <point x="66.0" y="557" type="curve"/>
      <point x="57.0" y="557"/>
      <point x="52.0" y="557"/>
      <point x="43.0" y="557" type="curve"/>
      <point x="43.0" y="443"/>
      <point x="68.0" y="349"/>
      <point x="168.0" y="349" type="curve"/>
      <point x="268.0" y="349"/>
      <point x="292.0" y="444"/>
      <point x="292.0" y="559" type="curve"/>
      <point x="292.0" y="672"/>
      <point x="267.0" y="765"/>
      <point x="168.0" y="765" type="curve"/>
      <point x="68.0" y="765"/>
      <point x="43.0" y="671"/>
      <point x="43.0" y="557" type="curve"/>
    </contour>
    <contour>
      <point x="408.0" y="109"/>
      <point x="413.0" y="109"/>
      <point x="422.0" y="109" type="curve"/>
      <point x="422.0" y="210"/>
      <point x="436.0" y="295"/>
      <point x="523.0" y="295" type="curve"/>
      <point x="610.0" y="296"/>
      <point x="624.0" y="211"/>
      <point x="624.0" y="110" type="curve"/>
      <point x="624.0" y="9"/>
      <point x="612.0" y="-78"/>
      <point x="525.0" y="-78" type="curve"/>
      <point x="437.0" y="-78"/>
      <point x="422.0" y="7"/>
      <point x="422.0" y="109" type="curve"/>
      <point x="413.0" y="109"/>
      <point x="408.0" y="109"/>
      <point x="399.0" y="109" type="curve"/>
      <point x="399.0" y="-5"/>
      <point x="424.0" y="-99"/>
      <point x="524.0" y="-99" type="curve"/>
      <point x="624.0" y="-99"/>
      <point x="648.0" y="-4"/>
      <point x="648.0" y="111" type="curve"/>
      <point x="648.0" y="224"/>
      <point x="623.0" y="317"/>
      <point x="524.0" y="317" type="curve"/>
      <point x="424.0" y="317"/>
      <point x="399.0" y="223"/>
      <point x="399.0" y="109" type="curve"/>
    </contour>
  </outline>
</glyph>
<glyph name="ampersand" format="1">
  <advance width="491.7"/>
  <unicode hex="0026"/>
  <outline>
    <contour>
      <point x="479.7" y="5" type="line"/>
      <point x="400.7" y="120"/>
      <point x="325.7" y="234"/>
      <point x="245.7" y="349" type="curve"/>
      <point x="198.7" y="423"/>
      <point x="144.7" y="487"/>
      <point x="144.7" y="577" type="curve"/>
      <point x="144.7" y="645"/>
      <point x="168.7" y="704"/>
      <point x="224.7" y="704" type="curve"/>
      <point x="283.7" y="704"/>
      <point x="309.7" y="648"/>
      <point x="309.7" y="579" type="curve"/>
      <point x="309.7" y="495"/>
      <point x="261.7" y="442"/>
      <point x="195.7" y="389" type="curve"/>
      <point x="123.7" y="328"/>
      <point x="72.7" y="270"/>
      <point x="72.7" y="177" type="curve"/>
      <point x="72.7" y="75"/>
      <point x="123.7" y="-5"/>
      <point x="218.7" y="-5" type="curve"/>
      <point x="376.7" y="-5"/>
      <point x="417.7" y="150"/>
      <point x="453.7" y="318" type="curve"/>
      <point x="432.7" y="323"/>
      <point x="453.7" y="318"/>
      <point x="432.7" y="323" type="curve"/>
      <point x="398.7" y="166"/>
      <point x="356.7" y="18"/>
      <point x="219.7" y="18" type="curve"/>
      <point x="139.7" y="18"/>
      <point x="97.7" y="88"/>
      <point x="97.7" y="177" type="curve"/>
      <point x="97.7" y="262"/>
      <point x="145.7" y="315"/>
      <point x="210.7" y="369" type="curve"/>
      <point x="281.7" y="429"/>
      <point x="334.7" y="488"/>
      <point x="334.7" y="580" type="curve"/>
      <point x="334.7" y="662"/>
      <point x="299.7" y="727"/>
      <point x="225.7" y="727" type="curve"/>
      <point x="151.7" y="727"/>
      <point x="119.7" y="659"/>
      <point x="119.7" y="577" type="curve"/>
      <point x="119.7" y="482"/>
      <point x="174.7" y="414"/>
      <point x="227.7" y="336" type="curve"/>
      <point x="305.7" y="221"/>
      <point x="381.7" y="106"/>
      <point x="460.7" y="-8" type="curve"/>
    </contour>
  </outline>
</glyph>
<glyph name="parenleft" format="1">
  <advance width="256.0"/>
  <unicode hex="0028"/>
  <outline>
    <contour>
      <point x="253.0" y="-237"/>
      <point x="236.0" y="-251"/>
      <point x="253.0" y="-237" type="curve"/>
      <point x="122.0" y="-54"/>
      <point x="88.0" y="104"/>
      <point x="88.0" y="326" type="curve"/>
      <point x="88.0" y="548"/>
      <point x="124.0" y="705"/>
      <point x="252.0" y="890" type="curve"/>
      <point x="236.0" y="903"/>
      <point x="252.0" y="890"/>
      <point x="236.0" y="903" type="curve"/>
      <point x="103.0" y="717"/>
      <point x="63.0" y="555"/>
      <point x="63.0" y="326" type="curve"/>
      <point x="63.0" y="97"/>
      <point x="104.0" y="-64"/>
      <point x="236.0" y="-251" type="curve"/>
    </contour>
  </outline>
</glyph>
<glyph name="parenright" format="1">
  <advance width="265.0"/>
  <unicode hex="0029"/>
  <outline>
    <contour>
      <point x="19.0" y="-267"/>
      <point x="1.0" y="-252"/>
      <point x="19.0" y="-267" type="curve"/>
      <point x="153.0" y="-72"/>
      <point x="203.0" y="90"/>
      <point x="203.0" y="327" type="curve"/>
      <point x="203.0" y="557"/>
      <point x="160.0" y="718"/>
      <point x="22.0" y="903" type="curve"/>
      <point x="5.0" y="890"/>
      <point x="22.0" y="903"/>
      <point x="5.0" y="890" type="curve"/>
      <point x="138.0" y="706"/>
      <point x="177.0" y="549"/>
      <point x="177.0" y="326" type="curve"/>
      <point x="177.0" y="97"/>
      <point x="129.0" y="-61"/>
      <point x="1.0" y="-252" type="curve"/>
    </contour>
  </outline>
</glyph>
<glyph name="asterisk" format="1">
  <advance width="677.2"/>
  <unicode hex="002A"/>
  <outline>
    <contour>
      <point x="350.5" y="605" type="line"/>
      <point x="353.5" y="793" type="line"/>
      <point x="323.5" y="793" type="line"/>
      <point x="326.5" y="605" type="line"/>
    </contour>
    <contour>
      <point x="415.5" y="540" type="line"/>
      <point x="595.5" y="596" type="line"/>
      <point x="586.5" y="624" type="line"/>
      <point x="408.5" y="563" type="line"/>
    </contour>
    <contour>
      <point x="374.5" y="459" type="line"/>
      <point x="482.5" y="305" type="line"/>
      <point x="506.5" y="322" type="line"/>
      <point x="393.5" y="473" type="line"/>
    </contour>
    <contour>
      <point x="283.5" y="473" type="line"/>
      <point x="170.5" y="322" type="line"/>
      <point x="194.5" y="305" type="line"/>
      <point x="302.5" y="459" type="line"/>
    </contour>
    <contour>
      <point x="268.5" y="563" type="line"/>
      <point x="90.5" y="624" type="line"/>
      <point x="81.5" y="596" type="line"/>
      <point x="261.5" y="540" type="line"/>
    </contour>
  </outline>
</glyph>
<glyph name="plus" format="1">
  <advance width="578.0"/>
  <unicode hex="002B"/>
  <outline>
    <contour>
      <point x="48.0" y="297"/>
      <point x="48.0" y="321"/>
      <point x="48.0" y="297" type="curve"/>
      <point x="48.0" y="297"/>
      <point x="530.0" y="297"/>
      <point x="530.0" y="297" type="curve"/>
      <point x="530.0" y="321"/>
      <point x="530.0" y="297"/>
      <point x="530.0" y="321" type="curve"/>
      <point x="530.0" y="321"/>
      <point x="48.0" y="321"/>
      <point x="48.0" y="321" type="curve"/>
    </contour>
    <contour>
      <point x="301.0" y="18"/>
      <point x="277.0" y="18"/>
      <point x="301.0" y="18" type="curve"/>
      <point x="301.0" y="18"/>
      <point x="301.0" y="588"/>
      <point x="301.0" y="588" type="curve"/>
      <point x="277.0" y="588"/>
      <point x="301.0" y="588"/>
      <point x="277.0" y="588" type="curve"/>
      <point x="277.0" y="588"/>
      <point x="277.0" y="18"/>
      <point x="277.0" y="18" type="curve"/>
    </contour>
  </outline>
</glyph>
<glyph name="comma" format="1">
  <advance width="120"/>
  <unicode hex="002C"/>
  <outline>
    <contour>
      <point x="33" y="-102" type="line"/>
      <point x="57" y="-78"/>
      <point x="76" y="-51"/>
      <point x="76" y="-4" type="curve"/>
      <point x="76" y="16"/>
      <point x="73" y="33"/>
      <point x="55" y="33" type="curve"/>
      <point x="42" y="33"/>
      <point x="35" y="27"/>
      <point x="35" y="15" type="curve"/>
      <point x="35" y="5"/>
      <point x="39" y="-1"/>
      <point x="50" y="-6" type="curve"/>
      <point x="50" y="-27"/>
      <point x="40" y="-62"/>
      <point x="17" y="-85" type="curve"/>
    </contour>
    <contour>
      <point x="44" y="119" type="move" name="_bottom"/>
    </contour>
  </outline>
</glyph>
<glyph name="slash" format="1">
  <advance width="382.7"/>
  <unicode hex="002F"/>
  <outline>
    <contour>
      <point x="55.15" y="-67"/>
      <point x="30.15" y="-67"/>
      <point x="55.15" y="-67" type="curve"/>
      <point x="154.15" y="236"/>
      <point x="253.15" y="540"/>
      <point x="353.15" y="843" type="curve"/>
      <point x="329.15" y="843"/>
      <point x="353.15" y="843"/>
      <point x="329.15" y="843" type="curve"/>
      <point x="229.15" y="540"/>
      <point x="130.15" y="236"/>
      <point x="30.15" y="-67" type="curve"/>
    </contour>
  </outline>
</glyph>
<glyph name="zero" format="1">
  <advance width="539.0"/>
  <unicode hex="0030"/>
  <outline>
    <contour>
      <point x="98.0" y="360"/>
      <point x="77.0" y="360"/>
      <point x="100.0" y="360" type="curve"/>
      <point x="100.0" y="546"/>
      <point x="119.0" y="704"/>
      <point x="269.0" y="704" type="curve"/>
      <point x="421.0" y="704"/>
      <point x="439.0" y="547"/>
      <point x="439.0" y="363" type="curve"/>
      <point x="439.0" y="178"/>
      <point x="417.0" y="18"/>
      <point x="272.0" y="18" type="curve"/>
      <point x="128.0" y="18"/>
      <point x="100.0" y="175"/>
      <point x="100.0" y="360" type="curve"/>
      <point x="77.0" y="360"/>
      <point x="98.0" y="360"/>
      <point x="75.0" y="360" type="curve"/>
      <point x="75.0" y="160"/>
      <point x="102.0" y="-5"/>
      <point x="271.0" y="-5" type="curve"/>
      <point x="440.0" y="-5"/>
      <point x="464.0" y="162"/>
      <point x="464.0" y="363" type="curve"/>
      <point x="464.0" y="562"/>
      <point x="439.0" y="727"/>
      <point x="272.0" y="727" type="curve"/>
      <point x="102.0" y="727"/>
      <point x="75.0" y="561"/>
      <point x="75.0" y="360" type="curve"/>
    </contour>
  </outline>
</glyph>
<glyph name="one" format="1">
  <advance width="295.0"/>
  <unicode hex="0031"/>
  <outline>
    <contour>
      <point x="45.0" y="541"/>
      <point x="28.0" y="556"/>
      <point x="45.0" y="541" type="curve"/>
      <point x="191.0" y="714"/>
      <point x="45.0" y="541"/>
      <point x="191.0" y="714" type="curve"/>
      <point x="169.0" y="722"/>
      <point x="191.0" y="714"/>
      <point x="169.0" y="722" type="curve"/>
      <point x="28.0" y="556"/>
      <point x="169.0" y="722"/>
      <point x="28.0" y="556" type="curve"/>
    </contour>
    <contour>
      <point x="193.0" y="0"/>
      <point x="169.0" y="0"/>
      <point x="193.0" y="0" type="curve"/>
      <point x="193.0" y="241"/>
      <point x="193.0" y="481"/>
      <point x="193.0" y="722" type="curve"/>
      <point x="169.0" y="722"/>
      <point x="193.0" y="722"/>
      <point x="169.0" y="722" type="curve"/>
      <point x="169.0" y="481"/>
      <point x="169.0" y="241"/>
      <point x="169.0" y="0" type="curve"/>
    </contour>
  </outline>
</glyph>
<glyph name="two" format="1">
  <advance width="408.0"/>
  <unicode hex="0032"/>
  <outline>
    <contour>
      <point x="46.0" y="0"/>
      <point x="46.0" y="22"/>
      <point x="46.0" y="0" type="curve"/>
      <point x="160.0" y="0"/>
      <point x="243.0" y="0"/>
      <point x="346.0" y="0" type="curve"/>
      <point x="346.0" y="22"/>
      <point x="346.0" y="0"/>
      <point x="346.0" y="22" type="curve"/>
      <point x="239.0" y="22"/>
      <point x="153.0" y="22"/>
      <point x="46.0" y="22" type="curve"/>
    </contour>
    <contour>
      <point x="79.0" y="563"/>
      <point x="57.0" y="573"/>
      <point x="79.0" y="563" type="curve"/>
      <point x="107.0" y="637"/>
      <point x="133.0" y="704"/>
      <point x="208.0" y="704" type="curve"/>
      <point x="294.0" y="704"/>
      <point x="321.0" y="627"/>
      <point x="321.0" y="526" type="curve"/>
      <point x="321.0" y="406"/>
      <point x="243.0" y="291"/>
      <point x="205.0" y="237" type="curve"/>
      <point x="152.0" y="165"/>
      <point x="99.0" y="93"/>
      <point x="46.0" y="22" type="curve"/>
      <point x="57.0" y="0"/>
      <point x="46.0" y="22"/>
      <point x="57.0" y="0" type="curve"/>
      <point x="111.0" y="73"/>
      <point x="166.0" y="146"/>
      <point x="220.0" y="220" type="curve"/>
      <point x="263.0" y="279"/>
      <point x="346.0" y="399"/>
      <point x="346.0" y="527" type="curve"/>
      <point x="346.0" y="642"/>
      <point x="310.0" y="727"/>
      <point x="209.0" y="727" type="curve"/>
      <point x="125.0" y="727"/>
      <point x="86.0" y="657"/>
      <point x="57.0" y="573" type="curve"/>
    </contour>
  </outline>
</glyph>
<glyph name="three" format="1">
  <advance width="424.0"/>
  <unicode hex="0033"/>
  <outline>
    <contour>
      <point x="60.0" y="56"/>
      <point x="73.0" y="72"/>
      <point x="60.0" y="56" type="curve"/>
      <point x="100.0" y="20"/>
      <point x="134.0" y="-5"/>
      <point x="188.0" y="-5" type="curve"/>
      <point x="300.0" y="-5"/>
      <point x="352.0" y="73"/>
      <point x="352.0" y="195" type="curve"/>
      <point x="352.0" y="319"/>
      <point x="259.0" y="391"/>
      <point x="129.0" y="391" type="curve"/>
      <point x="129.0" y="384"/>
      <point x="129.0" y="379"/>
      <point x="129.0" y="372" type="curve"/>
      <point x="246.0" y="372"/>
      <point x="327.0" y="305"/>
      <point x="327.0" y="194" type="curve"/>
      <point x="327.0" y="88"/>
      <point x="274.0" y="18"/>
      <point x="189.0" y="18" type="curve"/>
      <point x="141.0" y="18"/>
      <point x="111.0" y="40"/>
      <point x="73.0" y="72" type="curve"/>
    </contour>
    <contour>
      <point x="82.0" y="628"/>
      <point x="65.0" y="639"/>
      <point x="82.0" y="628" type="curve"/>
      <point x="100.0" y="661"/>
      <point x="137.0" y="704"/>
      <point x="188.0" y="704" type="curve"/>
      <point x="269.0" y="704"/>
      <point x="304.0" y="641"/>
      <point x="304.0" y="550" type="curve"/>
      <point x="304.0" y="452"/>
      <point x="231.0" y="394"/>
      <point x="129.0" y="394" type="curve"/>
      <point x="129.0" y="387"/>
      <point x="129.0" y="382"/>
      <point x="129.0" y="375" type="curve"/>
      <point x="246.0" y="375"/>
      <point x="329.0" y="439"/>
      <point x="329.0" y="551" type="curve"/>
      <point x="329.0" y="654"/>
      <point x="285.0" y="727"/>
      <point x="190.0" y="727" type="curve"/>
      <point x="130.0" y="727"/>
      <point x="86.0" y="680"/>
      <point x="65.0" y="639" type="curve"/>
    </contour>
  </outline>
</glyph>
<glyph name="four" format="1">
  <advance width="446.0"/>
  <unicode hex="0034"/>
  <outline>
    <contour>
      <point x="49.0" y="277" type="line"/>
      <point x="280.0" y="722" type="line"/>
      <point x="256.0" y="722" type="line"/>
      <point x="29.0" y="287" type="line"/>
    </contour>
    <contour>
      <point x="403.0" y="287" type="line"/>
      <point x="29.0" y="287" type="line"/>
      <point x="29.0" y="265" type="line"/>
      <point x="403.0" y="265" type="line"/>
    </contour>
    <contour>
      <point x="280.0" y="0" type="line"/>
      <point x="280.0" y="722" type="line"/>
      <point x="256.0" y="722" type="line"/>
      <point x="256.0" y="0" type="line"/>
    </contour>
  </outline>
</glyph>
<glyph name="five" format="1">
  <advance width="408.35"/>
  <unicode hex="0035"/>
  <outline>
    <contour>
      <point x="93.0" y="722"/>
      <point x="116.0" y="700"/>
      <point x="93.0" y="722" type="curve"/>
      <point x="93.0" y="619"/>
      <point x="93.0" y="516"/>
      <point x="93.0" y="406" type="curve"/>
      <point x="116.0" y="396"/>
      <point x="93.0" y="406"/>
      <point x="116.0" y="396" type="curve"/>
      <point x="116.0" y="498"/>
      <point x="116.0" y="599"/>
      <point x="116.0" y="700" type="curve"/>
    </contour>
    <contour>
      <point x="116.0" y="396"/>
      <point x="93.0" y="406"/>
      <point x="116.0" y="396" type="curve"/>
      <point x="131.0" y="408"/>
      <point x="165.0" y="423"/>
      <point x="191.0" y="423" type="curve"/>
      <point x="286.0" y="423"/>
      <point x="318.0" y="330"/>
      <point x="318.0" y="224" type="curve"/>
      <point x="318.0" y="116"/>
      <point x="279.0" y="18"/>
      <point x="184.0" y="18" type="curve"/>
      <point x="139.0" y="18"/>
      <point x="112.0" y="34"/>
      <point x="72.0" y="62" type="curve"/>
      <point x="58.0" y="44"/>
      <point x="72.0" y="62"/>
      <point x="58.0" y="44" type="curve"/>
      <point x="96.0" y="13"/>
      <point x="134.0" y="-5"/>
      <point x="183.0" y="-5" type="curve"/>
      <point x="294.0" y="-5"/>
      <point x="343.0" y="101"/>
      <point x="343.0" y="224" type="curve"/>
      <point x="343.0" y="343"/>
      <point x="301.0" y="446"/>
      <point x="193.0" y="446" type="curve"/>
      <point x="156.0" y="446"/>
      <point x="114.0" y="430"/>
      <point x="93.0" y="406" type="curve"/>
    </contour>
    <contour>
      <point x="325.0" y="722"/>
      <point x="325.0" y="700"/>
      <point x="325.0" y="722" type="curve"/>
      <point x="244.0" y="722"/>
      <point x="174.0" y="722"/>
      <point x="93.0" y="722" type="curve"/>
      <point x="116.0" y="700"/>
      <point x="93.0" y="722"/>
      <point x="116.0" y="700" type="curve"/>
      <point x="189.0" y="700"/>
      <point x="252.0" y="700"/>
      <point x="325.0" y="700" type="curve"/>
    </contour>
  </outline>
</glyph>
<glyph name="six" format="1">
  <advance width="453.0"/>
  <unicode hex="0036"/>
  <outline>
    <contour>
      <point x="91.0" y="230"/>
      <point x="77.0" y="241"/>
      <point x="93.0" y="230" type="curve"/>
      <point x="105.0" y="301"/>
      <point x="152.0" y="386"/>
      <point x="236.0" y="386" type="curve"/>
      <point x="328.0" y="386"/>
      <point x="361.0" y="307"/>
      <point x="361.0" y="202" type="curve"/>
      <point x="361.0" y="111"/>
      <point x="328.0" y="18"/>
      <point x="240.0" y="18" type="curve"/>
      <point x="132.0" y="18"/>
      <point x="97.0" y="118"/>
      <point x="97.0" y="242" type="curve"/>
      <point x="97.0" y="464"/>
      <point x="197.0" y="634"/>
      <point x="392.0" y="714" type="curve"/>
      <point x="383.0" y="734"/>
      <point x="392.0" y="714"/>
      <point x="383.0" y="734" type="curve"/>
      <point x="180.0" y="654"/>
      <point x="72.0" y="480"/>
      <point x="72.0" y="241" type="curve"/>
      <point x="72.0" y="103"/>
      <point x="116.0" y="-5"/>
      <point x="239.0" y="-5" type="curve"/>
      <point x="344.0" y="-5"/>
      <point x="386.0" y="86"/>
      <point x="386.0" y="203" type="curve"/>
      <point x="386.0" y="320"/>
      <point x="343.0" y="409"/>
      <point x="238.0" y="409" type="curve"/>
      <point x="143.0" y="409"/>
      <point x="92.0" y="330"/>
      <point x="75.0" y="241" type="curve"/>
    </contour>
  </outline>
</glyph>
<glyph name="nine" format="1">
  <advance width="450.875"/>
  <unicode hex="0039"/>
  <outline>
    <contour>
      <point x="359.0" y="489"/>
      <point x="374.0" y="481"/>
      <point x="359.0" y="489" type="curve"/>
      <point x="338.0" y="420"/>
      <point x="302.0" y="336"/>
      <point x="215.0" y="336" type="curve"/>
      <point x="123.0" y="336"/>
      <point x="91.0" y="416"/>
      <point x="91.0" y="520" type="curve"/>
      <point x="91.0" y="621"/>
      <point x="123.0" y="704"/>
      <point x="211.0" y="704" type="curve"/>
      <point x="319.0" y="704"/>
      <point x="354.0" y="602"/>
      <point x="354.0" y="480" type="curve"/>
      <point x="354.0" y="258"/>
      <point x="269.0" y="99"/>
      <point x="64.0" y="8" type="curve"/>
      <point x="74.0" y="-15"/>
      <point x="64.0" y="8"/>
      <point x="74.0" y="-15" type="curve"/>
      <point x="288.0" y="79"/>
      <point x="379.0" y="242"/>
      <point x="379.0" y="481" type="curve"/>
      <point x="379.0" y="619"/>
      <point x="337.0" y="727"/>
      <point x="212.0" y="727" type="curve"/>
      <point x="106.0" y="727"/>
      <point x="66.0" y="636"/>
      <point x="66.0" y="519" type="curve"/>
      <point x="66.0" y="402"/>
      <point x="107.0" y="313"/>
      <point x="213.0" y="313" type="curve"/>
      <point x="308.0" y="313"/>
      <point x="346.0" y="385"/>
      <point x="374.0" y="481" type="curve"/>
    </contour>
  </outline>
</glyph>
<glyph name="colon" format="1">
  <advance width="206.0"/>
  <unicode hex="003A"/>
  <outline>
    <contour>
      <point x="116.0" y="423"/>
      <point x="81.0" y="423"/>
      <point x="116.0" y="423" type="curve"/>
      <point x="116.0" y="434"/>
      <point x="109.0" y="440"/>
      <point x="98.0" y="440" type="curve"/>
      <point x="87.0" y="440"/>
      <point x="81.0" y="433"/>
      <point x="81.0" y="423" type="curve"/>
      <point x="116.0" y="423"/>
      <point x="81.0" y="423"/>
      <point x="116.0" y="423" type="curve"/>
      <point x="116.0" y="412"/>
      <point x="109.0" y="406"/>
      <point x="98.0" y="406" type="curve"/>
      <point x="87.0" y="406"/>
      <point x="81.0" y="412"/>
      <point x="81.0" y="423" type="curve"/>
    </contour>
    <contour>
      <point x="116.0" y="13"/>
      <point x="81.0" y="13"/>
      <point x="116.0" y="13" type="curve"/>
      <point x="116.0" y="24"/>
      <point x="109.0" y="30"/>
      <point x="98.0" y="30" type="curve"/>
      <point x="87.0" y="30"/>
      <point x="81.0" y="23"/>
      <point x="81.0" y="13" type="curve"/>
      <point x="116.0" y="13"/>
      <point x="81.0" y="13"/>
      <point x="116.0" y="13" type="curve"/>
      <point x="116.0" y="2"/>
      <point x="109.0" y="-4"/>
      <point x="98.0" y="-4" type="curve"/>
      <point x="87.0" y="-4"/>
      <point x="81.0" y="2"/>
      <point x="81.0" y="13" type="curve"/>
    </contour>
  </outline>
</glyph>
<glyph name="semicolon" format="1">
  <advance width="147"/>
  <unicode hex="003B"/>
  <outline>
    <contour>
      <point x="51" y="-102" type="line"/>
      <point x="75" y="-78"/>
      <point x="94" y="-51"/>
      <point x="94" y="-4" type="curve"/>
      <point x="94" y="16"/>
      <point x="91" y="33"/>
      <point x="73" y="33" type="curve"/>
      <point x="60" y="33"/>
      <point x="53" y="27"/>
      <point x="53" y="15" type="curve"/>
      <point x="53" y="5"/>
      <point x="57" y="-1"/>
      <point x="68" y="-6" type="curve"/>
      <point x="68" y="-27"/>
      <point x="58" y="-62"/>
      <point x="35" y="-85" type="curve"/>
    </contour>
    <contour>
      <point x="92" y="428"/>
      <point x="57" y="428"/>
      <point x="92" y="428" type="curve"/>
      <point x="92" y="439"/>
      <point x="85" y="445"/>
      <point x="74" y="445" type="curve"/>
      <point x="63" y="445"/>
      <point x="57" y="438"/>
      <point x="57" y="428" type="curve"/>
      <point x="92" y="428"/>
      <point x="57" y="428"/>
      <point x="92" y="428" type="curve"/>
      <point x="92" y="417"/>
      <point x="85" y="411"/>
      <point x="74" y="411" type="curve"/>
      <point x="63" y="411"/>
      <point x="57" y="417"/>
      <point x="57" y="428" type="curve"/>
    </contour>
  </outline>
</glyph>
<glyph name="less" format="1">
  <advance width="532.35"/>
  <unicode hex="003C"/>
  <outline>
    <contour>
      <point x="467.3" y="582"/>
      <point x="467.3" y="558"/>
      <point x="467.3" y="582" type="curve"/>
      <point x="325.3" y="492"/>
      <point x="183.3" y="402"/>
      <point x="41.3" y="312" type="curve"/>
      <point x="41.3" y="288"/>
      <point x="41.3" y="312"/>
      <point x="41.3" y="288" type="curve"/>
      <point x="183.3" y="378"/>
      <point x="325.3" y="468"/>
      <point x="467.3" y="558" type="curve"/>
    </contour>
    <contour>
      <point x="474.3" y="48"/>
      <point x="474.3" y="24"/>
      <point x="474.3" y="48" type="curve"/>
      <point x="329.3" y="136"/>
      <point x="185.3" y="224"/>
      <point x="41.3" y="312" type="curve"/>
      <point x="41.3" y="288"/>
      <point x="41.3" y="312"/>
      <point x="41.3" y="288" type="curve"/>
      <point x="185.3" y="200"/>
      <point x="329.3" y="112"/>
      <point x="474.3" y="24" type="curve"/>
    </contour>
  </outline>
</glyph>
<glyph name="equal" format="1">
  <advance width="548.85"/>
  <unicode hex="003D"/>
  <outline>
    <contour>
      <point x="67.3" y="206"/>
      <point x="67.3" y="229"/>
      <point x="67.3" y="206" type="curve"/>
      <point x="213.3" y="206"/>
      <point x="360.3" y="206"/>
      <point x="507.3" y="206" type="curve"/>
      <point x="507.3" y="229"/>
      <point x="507.3" y="206"/>
      <point x="507.3" y="229" type="curve"/>
      <point x="360.3" y="229"/>
      <point x="213.3" y="229"/>
      <point x="67.3" y="229" type="curve"/>
    </contour>
    <contour>
      <point x="67.3" y="428"/>
      <point x="67.3" y="451"/>
      <point x="67.3" y="428" type="curve"/>
      <point x="213.3" y="428"/>
      <point x="360.3" y="428"/>
      <point x="507.3" y="428" type="curve"/>
      <point x="507.3" y="451"/>
      <point x="507.3" y="428"/>
      <point x="507.3" y="451" type="curve"/>
      <point x="360.3" y="451"/>
      <point x="213.3" y="451"/>
      <point x="67.3" y="451" type="curve"/>
    </contour>
  </outline>
</glyph>
<glyph name="greater" format="1">
  <advance width="531.35"/>
  <unicode hex="003E"/>
  <outline>
    <contour>
      <point x="63.95" y="24"/>
      <point x="63.95" y="48"/>
      <point x="63.95" y="24" type="curve"/>
      <point x="205.95" y="114"/>
      <point x="347.95" y="204"/>
      <point x="489.95" y="294" type="curve"/>
      <point x="489.95" y="318"/>
      <point x="489.95" y="294"/>
      <point x="489.95" y="318" type="curve"/>
      <point x="347.95" y="228"/>
      <point x="205.95" y="138"/>
      <point x="63.95" y="48" type="curve"/>
    </contour>
    <contour>
      <point x="56.95" y="558"/>
      <point x="56.95" y="582"/>
      <point x="56.95" y="558" type="curve"/>
      <point x="200.95" y="470"/>
      <point x="345.95" y="382"/>
      <point x="489.95" y="294" type="curve"/>
      <point x="489.95" y="318"/>
      <point x="489.95" y="294"/>
      <point x="489.95" y="318" type="curve"/>
      <point x="345.95" y="406"/>
      <point x="200.95" y="494"/>
      <point x="56.95" y="582" type="curve"/>
    </contour>
  </outline>
</glyph>
<glyph name="question" format="1">
  <advance width="392.0"/>
  <unicode hex="003F"/>
  <outline>
    <contour>
      <point x="166.0" y="334"/>
      <point x="190.0" y="334"/>
      <point x="166.0" y="334" type="curve"/>
      <point x="166.0" y="297"/>
      <point x="166.0" y="258"/>
      <point x="166.0" y="221" type="curve"/>
      <point x="190.0" y="221"/>
      <point x="166.0" y="221"/>
      <point x="190.0" y="221" type="curve"/>
      <point x="190.0" y="258"/>
      <point x="190.0" y="297"/>
      <point x="190.0" y="334" type="curve"/>
    </contour>
    <contour>
      <point x="77.0" y="621" type="line"/>
      <point x="96.0" y="657"/>
      <point x="128.0" y="687"/>
      <point x="179.0" y="687" type="curve"/>
      <point x="266.0" y="687"/>
      <point x="302.0" y="612"/>
      <point x="302.0" y="519" type="curve"/>
      <point x="302.0" y="418"/>
      <point x="263.0" y="334"/>
      <point x="171.0" y="334" type="curve"/>
      <point x="171.0" y="311"/>
      <point x="171.0" y="334"/>
      <point x="171.0" y="311" type="curve"/>
      <point x="277.0" y="311"/>
      <point x="327.0" y="404"/>
      <point x="327.0" y="519" type="curve"/>
      <point x="327.0" y="624"/>
      <point x="279.0" y="710"/>
      <point x="181.0" y="710" type="curve"/>
      <point x="116.0" y="710"/>
      <point x="82.0" y="675"/>
      <point x="59.0" y="633" type="curve"/>
    </contour>
    <contour>
      <point x="195.0" y="12"/>
      <point x="160.0" y="12"/>
      <point x="195.0" y="12" type="curve"/>
      <point x="195.0" y="23"/>
      <point x="188.0" y="29"/>
      <point x="177.0" y="29" type="curve"/>
      <point x="166.0" y="29"/>
      <point x="160.0" y="22"/>
      <point x="160.0" y="12" type="curve"/>
      <point x="195.0" y="12"/>
      <point x="160.0" y="12"/>
      <point x="195.0" y="12" type="curve"/>
      <point x="195.0" y="1"/>
      <point x="188.0" y="-5"/>
      <point x="177.0" y="-5" type="curve"/>
      <point x="166.0" y="-5"/>
      <point x="160.0" y="1"/>
      <point x="160.0" y="12" type="curve"/>
    </contour>
  </outline>
</glyph>
<glyph name="at" format="1">
  <advance width="628.0"/>
  <unicode hex="0040"/>
  <outline>
    <contour>
      <point x="430.0" y="-104"/>
      <point x="441.0" y="-124"/>
      <point x="430.0" y="-104" type="curve"/>
      <point x="395.0" y="-132"/>
      <point x="366.0" y="-141"/>
      <point x="321.0" y="-141" type="curve"/>
      <point x="152.0" y="-141"/>
      <point x="94.0" y="1"/>
      <point x="94.0" y="189" type="curve"/>
      <point x="94.0" y="373"/>
      <point x="154.0" y="515"/>
      <point x="319.0" y="515" type="curve"/>
      <point x="474.0" y="515"/>
      <point x="528.0" y="379"/>
      <point x="528.0" y="208" type="curve"/>
      <point x="528.0" y="122"/>
      <point x="527.0" y="43"/>
      <point x="476.0" y="43" type="curve"/>
      <point x="416.0" y="43"/>
      <point x="416.0" y="115"/>
      <point x="416.0" y="194" type="curve"/>
      <point x="416.0" y="290"/>
      <point x="394.0" y="367"/>
      <point x="310.0" y="367" type="curve"/>
      <point x="223.0" y="367"/>
      <point x="195.0" y="292"/>
      <point x="195.0" y="195" type="curve"/>
      <point x="195.0" y="92"/>
      <point x="217.0" y="11"/>
      <point x="307.0" y="11" type="curve"/>
      <point x="390.0" y="11"/>
      <point x="404.0" y="90"/>
      <point x="412.0" y="184" type="curve"/>
      <point x="398.0" y="186"/>
      <point x="412.0" y="184"/>
      <point x="398.0" y="186" type="curve"/>
      <point x="385.0" y="110"/>
      <point x="373.0" y="33"/>
      <point x="310.0" y="33" type="curve"/>
      <point x="231.0" y="33"/>
      <point x="218.0" y="106"/>
      <point x="218.0" y="196" type="curve"/>
      <point x="218.0" y="280"/>
      <point x="235.0" y="345"/>
      <point x="307.0" y="345" type="curve"/>
      <point x="380.0" y="345"/>
      <point x="394.0" y="277"/>
      <point x="394.0" y="193" type="curve"/>
      <point x="394.0" y="102"/>
      <point x="395.0" y="23"/>
      <point x="474.0" y="23" type="curve"/>
      <point x="556.0" y="23"/>
      <point x="553.0" y="109"/>
      <point x="553.0" y="209" type="curve"/>
      <point x="553.0" y="397"/>
      <point x="494.0" y="538"/>
      <point x="321.0" y="538" type="curve"/>
      <point x="138.0" y="538"/>
      <point x="69.0" y="389"/>
      <point x="69.0" y="188" type="curve"/>
      <point x="69.0" y="-13"/>
      <point x="137.0" y="-163"/>
      <point x="319.0" y="-163" type="curve"/>
      <point x="369.0" y="-163"/>
      <point x="402.0" y="-154"/>
      <point x="441.0" y="-124" type="curve"/>
    </contour>
  </outline>
</glyph>
<glyph name="B" format="1">
  <advance width="498.0"/>
  <unicode hex="0042"/>
  <outline>
    <contour>
      <point x="133.0" y="714"/>
      <point x="133.0" y="708"/>
      <point x="133.0" y="700" type="curve"/>
      <point x="177.0" y="700"/>
      <point x="206.0" y="700"/>
      <point x="250.0" y="700" type="curve"/>
      <point x="333.0" y="700"/>
      <point x="375.0" y="642"/>
      <point x="375.0" y="555" type="curve"/>
      <point x="375.0" y="474"/>
      <point x="334.0" y="421"/>
      <point x="257.0" y="421" type="curve"/>
      <point x="210.0" y="421"/>
      <point x="180.0" y="421"/>
      <point x="133.0" y="421" type="curve"/>
      <point x="133.0" y="413"/>
      <point x="133.0" y="407"/>
      <point x="133.0" y="399" type="curve"/>
      <point x="175.0" y="399"/>
      <point x="206.0" y="399"/>
      <point x="248.0" y="399" type="curve"/>
      <point x="345.0" y="399"/>
      <point x="399.0" y="458"/>
      <point x="399.0" y="555" type="curve"/>
      <point x="399.0" y="656"/>
      <point x="347.0" y="722"/>
      <point x="250.0" y="722" type="curve"/>
      <point x="206.0" y="722"/>
      <point x="177.0" y="722"/>
      <point x="133.0" y="722" type="curve"/>
    </contour>
    <contour>
      <point x="154.0" y="0"/>
      <point x="128.0" y="0"/>
      <point x="154.0" y="0" type="curve"/>
      <point x="154.0" y="241"/>
      <point x="154.0" y="481"/>
      <point x="154.0" y="722" type="curve"/>
      <point x="128.0" y="722"/>
      <point x="154.0" y="722"/>
      <point x="128.0" y="722" type="curve"/>
      <point x="128.0" y="481"/>
      <point x="129.0" y="241"/>
      <point x="128.0" y="0" type="curve"/>
    </contour>
    <contour>
      <point x="133.0" y="413"/>
      <point x="133.0" y="407"/>
      <point x="133.0" y="399" type="curve"/>
      <point x="180.0" y="399"/>
      <point x="210.0" y="399"/>
      <point x="257.0" y="399" type="curve"/>
      <point x="362.0" y="399"/>
      <point x="408.0" y="318"/>
      <point x="408.0" y="204" type="curve"/>
      <point x="408.0" y="95"/>
      <point x="355.0" y="22"/>
      <point x="251.0" y="22" type="curve"/>
      <point x="206.0" y="22"/>
      <point x="178.0" y="22"/>
      <point x="133.0" y="22" type="curve"/>
      <point x="133.0" y="14"/>
      <point x="133.0" y="8"/>
      <point x="133.0" y="0" type="curve"/>
      <point x="178.0" y="0"/>
      <point x="206.0" y="0"/>
      <point x="251.0" y="0" type="curve"/>
      <point x="369.0" y="0"/>
      <point x="432.0" y="81"/>
      <point x="432.0" y="204" type="curve"/>
      <point x="432.0" y="334"/>
      <point x="373.0" y="421"/>
      <point x="249.0" y="421" type="curve"/>
      <point x="207.0" y="421"/>
      <point x="175.0" y="421"/>
      <point x="133.0" y="421" type="curve"/>
    </contour>
  </outline>
</glyph>
<glyph name="C" format="1">
  <advance width="511.0"/>
  <unicode hex="0043"/>
  <outline>
    <contour>
      <point x="461.0" y="655"/>
      <point x="448.0" y="638"/>
      <point x="461.0" y="655" type="curve"/>
      <point x="417.0" y="694"/>
      <point x="365.0" y="727"/>
      <point x="301.0" y="727" type="curve"/>
      <point x="117.0" y="727"/>
      <point x="72.0" y="558"/>
      <point x="72.0" y="344" type="curve"/>
      <point x="72.0" y="149"/>
      <point x="116.0" y="-5"/>
      <point x="286.0" y="-5" type="curve"/>
      <point x="371.0" y="-5"/>
      <point x="421.0" y="34"/>
      <point x="475.0" y="96" type="curve"/>
      <point x="459.0" y="113"/>
      <point x="474.0" y="96"/>
      <point x="458.0" y="113" type="curve"/>
      <point x="410.0" y="57"/>
      <point x="364.0" y="21"/>
      <point x="287.0" y="21" type="curve"/>
      <point x="132.0" y="21"/>
      <point x="96.0" y="165"/>
      <point x="96.0" y="345" type="curve"/>
      <point x="96.0" y="542"/>
      <point x="135.0" y="703"/>
      <point x="300.0" y="703" type="curve"/>
      <point x="359.0" y="703"/>
      <point x="408.0" y="674"/>
      <point x="448.0" y="638" type="curve"/>
    </contour>
    <contour>
      <point x="299.0" y="825" type="move" name="top"/>
    </contour>
    <contour>
      <point x="286.0" y="-5" type="move" name="bottom"/>
    </contour>
  </outline>
</glyph>
<glyph name="D" format="1">
  <advance width="579.0"/>
  <unicode hex="0044"/>
  <outline>
    <contour>
      <point x="128.0" y="722"/>
      <point x="152.0" y="722"/>
      <point x="128.0" y="722" type="curve"/>
      <point x="128.0" y="481"/>
      <point x="128.0" y="241"/>
      <point x="128.0" y="0" type="curve"/>
      <point x="152.0" y="0"/>
      <point x="128.0" y="0"/>
      <point x="152.0" y="0" type="curve"/>
      <point x="152.0" y="241"/>
      <point x="152.0" y="481"/>
      <point x="152.0" y="722" type="curve"/>
    </contour>
    <contour>
      <point x="141.0" y="14"/>
      <point x="141.0" y="8"/>
      <point x="141.0" y="0" type="curve"/>
      <point x="186.0" y="0"/>
      <point x="214.0" y="0"/>
      <point x="259.0" y="0" type="curve"/>
      <point x="441.0" y="0"/>
      <point x="505.0" y="153"/>
      <point x="505.0" y="356" type="curve"/>
      <point x="505.0" y="565"/>
      <point x="437.0" y="722"/>
      <point x="250.0" y="722" type="curve"/>
      <point x="209.0" y="722"/>
      <point x="182.0" y="722"/>
      <point x="141.0" y="722" type="curve"/>
      <point x="141.0" y="714"/>
      <point x="141.0" y="708"/>
      <point x="141.0" y="700" type="curve"/>
      <point x="182.0" y="700"/>
      <point x="208.0" y="700"/>
      <point x="249.0" y="700" type="curve"/>
      <point x="423.0" y="700"/>
      <point x="481.0" y="551"/>
      <point x="481.0" y="355" type="curve"/>
      <point x="481.0" y="167"/>
      <point x="428.0" y="22"/>
      <point x="261.0" y="22" type="curve"/>
      <point x="216.0" y="22"/>
      <point x="186.0" y="22"/>
      <point x="141.0" y="22" type="curve"/>
    </contour>
    <contour>
      <point x="235.0" y="824" type="move" name="top"/>
    </contour>
  </outline>
</glyph>
<glyph name="F" format="1">
  <advance width="440.0"/>
  <unicode hex="0046"/>
  <outline>
    <contour>
      <point x="143.0" y="363"/>
      <point x="143.0" y="385"/>
      <point x="143.0" y="363" type="curve"/>
      <point x="218.0" y="363"/>
      <point x="293.0" y="363"/>
      <point x="368.0" y="363" type="curve"/>
      <point x="368.0" y="385"/>
      <point x="368.0" y="363"/>
      <point x="368.0" y="385" type="curve"/>
      <point x="293.0" y="385"/>
      <point x="218.0" y="385"/>
      <point x="143.0" y="385" type="curve"/>
    </contour>
    <contour>
      <point x="152.0" y="0"/>
      <point x="128.0" y="0"/>
      <point x="152.0" y="0" type="curve"/>
      <point x="152.0" y="0"/>
      <point x="152.0" y="722"/>
      <point x="152.0" y="722" type="curve"/>
      <point x="128.0" y="722"/>
      <point x="152.0" y="722"/>
      <point x="128.0" y="722" type="curve"/>
      <point x="128.0" y="481"/>
      <point x="128.0" y="241"/>
      <point x="128.0" y="0" type="curve"/>
    </contour>
    <contour>
      <point x="132.0" y="700"/>
      <point x="132.0" y="722"/>
      <point x="132.0" y="700" type="curve"/>
      <point x="228.0" y="700"/>
      <point x="323.0" y="700"/>
      <point x="419.0" y="700" type="curve"/>
      <point x="419.0" y="722"/>
      <point x="419.0" y="700"/>
      <point x="419.0" y="722" type="curve"/>
      <point x="323.0" y="722"/>
      <point x="228.0" y="722"/>
      <point x="132.0" y="722" type="curve"/>
    </contour>
  </outline>
</glyph>
<glyph name="H" format="1">
  <advance width="633.0"/>
  <unicode hex="0048"/>
  <outline>
    <contour>
      <point x="152.0" y="0"/>
      <point x="128.0" y="0"/>
      <point x="152.0" y="0" type="curve"/>
      <point x="152.0" y="0"/>
      <point x="152.0" y="722"/>
      <point x="152.0" y="722" type="curve"/>
      <point x="128.0" y="722"/>
      <point x="152.0" y="722"/>
      <point x="128.0" y="722" type="curve"/>
      <point x="128.0" y="481"/>
      <point x="128.0" y="241"/>
      <point x="128.0" y="0" type="curve"/>
    </contour>
    <contour>
      <point x="492.0" y="374"/>
      <point x="492.0" y="352"/>
      <point x="492.0" y="374" type="curve"/>
      <point x="374.0" y="374"/>
      <point x="257.0" y="374"/>
      <point x="140.0" y="374" type="curve"/>
      <point x="140.0" y="352"/>
      <point x="140.0" y="374"/>
      <point x="140.0" y="352" type="curve"/>
      <point x="257.0" y="352"/>
      <point x="374.0" y="352"/>
      <point x="492.0" y="352" type="curve"/>
    </contour>
    <contour>
      <point x="505.0" y="1"/>
      <point x="481.0" y="1"/>
      <point x="505.0" y="1" type="curve"/>
      <point x="505.0" y="241"/>
      <point x="505.0" y="481"/>
      <point x="505.0" y="721" type="curve"/>
      <point x="481.0" y="721"/>
      <point x="505.0" y="721"/>
      <point x="481.0" y="721" type="curve"/>
      <point x="481.0" y="721"/>
      <point x="481.0" y="1"/>
      <point x="481.0" y="1" type="curve"/>
    </contour>
  </outline>
</glyph>
<glyph name="J" format="1">
  <advance width="354.0"/>
  <unicode hex="004A"/>
  <outline>
    <contour>
      <point x="24.0" y="49"/>
      <point x="21.0" y="44"/>
      <point x="16.0" y="38" type="curve"/>
      <point x="41.0" y="14"/>
      <point x="68.0" y="-5"/>
      <point x="107.0" y="-5" type="curve"/>
      <point x="213.0" y="-5"/>
      <point x="235.0" y="83"/>
      <point x="235.0" y="214" type="curve"/>
      <point x="235.0" y="406"/>
      <point x="235.0" y="530"/>
      <point x="235.0" y="722" type="curve"/>
      <point x="226.0" y="722"/>
      <point x="220.0" y="722"/>
      <point x="211.0" y="722" type="curve"/>
      <point x="211.0" y="530"/>
      <point x="211.0" y="406"/>
      <point x="211.0" y="214" type="curve"/>
      <point x="211.0" y="106"/>
      <point x="200.0" y="17"/>
      <point x="107.0" y="17" type="curve"/>
      <point x="73.0" y="17"/>
      <point x="50.0" y="36"/>
      <point x="29.0" y="55" type="curve"/>
    </contour>
  </outline>
</glyph>
<glyph name="K" format="1">
  <advance width="440.0"/>
  <unicode hex="004B"/>
  <outline>
    <contour>
      <point x="384.0" y="722"/>
      <point x="427.0" y="722"/>
      <point x="389.0" y="722" type="curve"/>
      <point x="137.0" y="380" type="line"/>
      <point x="171.0" y="380"/>
      <point x="133.0" y="380"/>
      <point x="167.0" y="380" type="curve"/>
      <point x="422.0" y="722" type="line"/>
    </contour>
    <contour>
      <point x="152.0" y="0"/>
      <point x="128.0" y="0"/>
      <point x="152.0" y="0" type="curve"/>
      <point x="152.0" y="0"/>
      <point x="152.0" y="722"/>
      <point x="152.0" y="722" type="curve"/>
      <point x="128.0" y="722"/>
      <point x="152.0" y="722"/>
      <point x="128.0" y="722" type="curve"/>
      <point x="128.0" y="481"/>
      <point x="128.0" y="241"/>
      <point x="128.0" y="0" type="curve"/>
    </contour>
    <contour>
      <point x="441.0" y="0"/>
      <point x="401.0" y="0"/>
      <point x="437.0" y="0" type="curve"/>
      <point x="167.0" y="380" type="line"/>
      <point x="133.0" y="380"/>
      <point x="171.0" y="380"/>
      <point x="137.0" y="380" type="curve"/>
      <point x="405.0" y="0" type="line"/>
    </contour>
    <contour>
      <point x="294.0" y="-80" type="move" name="bottom"/>
    </contour>
  </outline>
</glyph>
<glyph name="L" format="1">
  <advance width="445.0"/>
  <unicode hex="004C"/>
  <outline>
    <contour>
      <point x="152.0" y="0"/>
      <point x="128.0" y="0"/>
      <point x="152.0" y="0" type="curve"/>
      <point x="152.0" y="241"/>
      <point x="152.0" y="481"/>
      <point x="152.0" y="722" type="curve"/>
      <point x="128.0" y="722"/>
      <point x="152.0" y="722"/>
      <point x="128.0" y="722" type="curve"/>
      <point x="128.0" y="481"/>
      <point x="128.0" y="241"/>
      <point x="128.0" y="0" type="curve"/>
    </contour>
    <contour>
      <point x="139.0" y="0"/>
      <point x="139.0" y="22"/>
      <point x="139.0" y="0" type="curve"/>
      <point x="238.0" y="0"/>
      <point x="336.0" y="0"/>
      <point x="435.0" y="0" type="curve"/>
      <point x="435.0" y="22"/>
      <point x="435.0" y="0"/>
      <point x="435.0" y="22" type="curve"/>
      <point x="336.0" y="22"/>
      <point x="238.0" y="22"/>
      <point x="139.0" y="22" type="curve"/>
    </contour>
    <contour>
      <point x="141.0" y="825" type="move" name="top"/>
    </contour>
    <contour>
      <point x="250.0" y="-80" type="move" name="bottom"/>
    </contour>
    <contour>
      <point x="427.0" y="723" type="move" name="cap"/>
    </contour>
  </outline>
</glyph>
<glyph name="M" format="1">
  <advance width="687.0"/>
  <unicode hex="004D"/>
  <outline>
    <contour>
      <point x="598.0" y="0"/>
      <point x="574.0" y="0"/>
      <point x="598.0" y="0" type="curve"/>
      <point x="583.0" y="241"/>
      <point x="569.0" y="481"/>
      <point x="554.0" y="722" type="curve"/>
      <point x="532.0" y="722"/>
      <point x="554.0" y="722"/>
      <point x="532.0" y="722" type="curve"/>
      <point x="546.0" y="481"/>
      <point x="560.0" y="241"/>
      <point x="574.0" y="0" type="curve"/>
    </contour>
    <contour>
      <point x="116.0" y="0"/>
      <point x="91.0" y="0"/>
      <point x="116.0" y="0" type="curve"/>
      <point x="129.0" y="241"/>
      <point x="142.0" y="481"/>
      <point x="155.0" y="722" type="curve"/>
      <point x="133.0" y="722"/>
      <point x="155.0" y="722"/>
      <point x="133.0" y="722" type="curve"/>
      <point x="119.0" y="481"/>
      <point x="105.0" y="241"/>
      <point x="91.0" y="0" type="curve"/>
    </contour>
    <contour>
      <point x="354.0" y="0"/>
      <point x="330.0" y="0"/>
      <point x="354.0" y="0" type="curve"/>
      <point x="288.0" y="241"/>
      <point x="222.0" y="481"/>
      <point x="157.0" y="722" type="curve"/>
      <point x="134.0" y="722"/>
      <point x="157.0" y="722"/>
      <point x="134.0" y="722" type="curve"/>
      <point x="200.0" y="481"/>
      <point x="265.0" y="241"/>
      <point x="330.0" y="0" type="curve"/>
    </contour>
    <contour>
      <point x="361.0" y="0"/>
      <point x="336.0" y="0"/>
      <point x="361.0" y="0" type="curve"/>
      <point x="425.0" y="241"/>
      <point x="489.0" y="481"/>
      <point x="553.0" y="722" type="curve"/>
      <point x="531.0" y="722"/>
      <point x="553.0" y="722"/>
      <point x="531.0" y="722" type="curve"/>
      <point x="466.0" y="481"/>
      <point x="401.0" y="241"/>
      <point x="336.0" y="0" type="curve"/>
    </contour>
  </outline>
</glyph>
<glyph name="P" format="1">
  <advance width="465.0"/>
  <unicode hex="0050"/>
  <outline>
    <contour>
      <point x="138.0" y="326"/>
      <point x="146.0" y="345"/>
      <point x="138.0" y="325" type="curve"/>
      <point x="170.0" y="300"/>
      <point x="206.0" y="280"/>
      <point x="249.0" y="280" type="curve"/>
      <point x="357.0" y="282"/>
      <point x="406.0" y="369"/>
      <point x="406.0" y="494" type="curve"/>
      <point x="406.0" y="621"/>
      <point x="350.0" y="722"/>
      <point x="233.0" y="722" type="curve"/>
      <point x="203.0" y="722"/>
      <point x="173.0" y="722"/>
      <point x="143.0" y="722" type="curve"/>
      <point x="143.0" y="700"/>
      <point x="143.0" y="722"/>
      <point x="143.0" y="700" type="curve"/>
      <point x="172.0" y="700"/>
      <point x="201.0" y="700"/>
      <point x="230.0" y="700" type="curve"/>
      <point x="335.0" y="700"/>
      <point x="382.0" y="608"/>
      <point x="382.0" y="493" type="curve"/>
      <point x="382.0" y="388"/>
      <point x="343.0" y="303"/>
      <point x="250.0" y="303" type="curve"/>
      <point x="207.0" y="303"/>
      <point x="180.0" y="320"/>
      <point x="146.0" y="346" type="curve"/>
    </contour>
    <contour>
      <point x="152.0" y="0"/>
      <point x="128.0" y="0"/>
      <point x="152.0" y="0" type="curve"/>
      <point x="152.0" y="241"/>
      <point x="152.0" y="481"/>
      <point x="152.0" y="722" type="curve"/>
      <point x="128.0" y="722"/>
      <point x="152.0" y="722"/>
      <point x="128.0" y="722" type="curve"/>
      <point x="128.0" y="481"/>
      <point x="128.0" y="241"/>
      <point x="128.0" y="0" type="curve"/>
    </contour>
  </outline>
</glyph>
<glyph name="Q" format="1">
  <advance width="642.0"/>
  <unicode hex="0051"/>
  <outline>
    <contour>
      <point x="283.0" y="4"/>
      <point x="304.0" y="15"/>
      <point x="283.0" y="4" type="curve"/>
      <point x="342.0" y="-151"/>
      <point x="418.0" y="-240"/>
      <point x="571.0" y="-240" type="curve"/>
      <point x="571.0" y="-217"/>
      <point x="571.0" y="-240"/>
      <point x="571.0" y="-217" type="curve"/>
      <point x="429.0" y="-217"/>
      <point x="360.0" y="-131"/>
      <point x="304.0" y="15" type="curve"/>
    </contour>
    <contour>
      <point x="96.0" y="360"/>
      <point x="72.0" y="360"/>
      <point x="96.0" y="360" type="curve"/>
      <point x="96.0" y="543"/>
      <point x="128.0" y="704"/>
      <point x="286.0" y="704" type="curve"/>
      <point x="443.0" y="704"/>
      <point x="478.0" y="545"/>
      <point x="478.0" y="363" type="curve"/>
      <point x="478.0" y="180"/>
      <point x="447.0" y="19"/>
      <point x="289.0" y="19" type="curve"/>
      <point x="130.0" y="19"/>
      <point x="96.0" y="177"/>
      <point x="96.0" y="360" type="curve"/>
      <point x="72.0" y="360"/>
      <point x="96.0" y="360"/>
      <point x="72.0" y="360" type="curve"/>
      <point x="72.0" y="162"/>
      <point x="116.0" y="-5"/>
      <point x="288.0" y="-5" type="curve"/>
      <point x="461.0" y="-5"/>
      <point x="502.0" y="165"/>
      <point x="502.0" y="364" type="curve"/>
      <point x="502.0" y="561"/>
      <point x="459.0" y="727"/>
      <point x="288.0" y="727" type="curve"/>
      <point x="116.0" y="727"/>
      <point x="72.0" y="558"/>
      <point x="72.0" y="360" type="curve"/>
    </contour>
  </outline>
</glyph>
<glyph name="R" format="1">
  <advance width="480.0"/>
  <unicode hex="0052"/>
  <outline>
    <contour>
      <point x="268.0" y="354"/>
      <point x="299.0" y="354"/>
      <point x="270.0" y="354" type="curve"/>
      <point x="330.0" y="236"/>
      <point x="390.0" y="118"/>
      <point x="449.0" y="0" type="curve"/>
      <point x="478.0" y="0"/>
      <point x="447.0" y="0"/>
      <point x="476.0" y="0" type="curve"/>
      <point x="417.0" y="118"/>
      <point x="357.0" y="236"/>
      <point x="297.0" y="354" type="curve"/>
    </contour>
    <contour>
      <point x="152.0" y="0"/>
      <point x="128.0" y="0"/>
      <point x="152.0" y="0" type="curve"/>
      <point x="152.0" y="241"/>
      <point x="152.0" y="481"/>
      <point x="152.0" y="722" type="curve"/>
      <point x="128.0" y="722"/>
      <point x="152.0" y="722"/>
      <point x="128.0" y="722" type="curve"/>
      <point x="128.0" y="481"/>
      <point x="128.0" y="241"/>
      <point x="128.0" y="0" type="curve"/>
    </contour>
    <contour>
      <point x="142.0" y="340"/>
      <point x="142.0" y="362"/>
      <point x="142.0" y="340" type="curve"/>
      <point x="181.0" y="340"/>
      <point x="220.0" y="340"/>
      <point x="260.0" y="340" type="curve"/>
      <point x="368.0" y="340"/>
      <point x="418.0" y="420"/>
      <point x="418.0" y="537" type="curve"/>
      <point x="418.0" y="650"/>
      <point x="365.0" y="722"/>
      <point x="257.0" y="722" type="curve"/>
      <point x="215.0" y="722"/>
      <point x="183.0" y="722"/>
      <point x="142.0" y="722" type="curve"/>
      <point x="142.0" y="700"/>
      <point x="142.0" y="722"/>
      <point x="142.0" y="700" type="curve"/>
      <point x="182.0" y="700"/>
      <point x="212.0" y="700"/>
      <point x="253.0" y="700" type="curve"/>
      <point x="348.0" y="700"/>
      <point x="393.0" y="635"/>
      <point x="393.0" y="535" type="curve"/>
      <point x="393.0" y="434"/>
      <point x="355.0" y="362"/>
      <point x="263.0" y="362" type="curve"/>
      <point x="223.0" y="362"/>
      <point x="182.0" y="362"/>
      <point x="142.0" y="362" type="curve"/>
    </contour>
    <contour>
      <point x="230.0" y="825" type="move" name="top"/>
    </contour>
    <contour>
      <point x="285.0" y="-80" type="move" name="bottom"/>
    </contour>
  </outline>
</glyph>
<glyph name="U" format="1">
  <advance width="612.0"/>
  <unicode hex="0055"/>
  <outline>
    <contour>
      <point x="119.0" y="721"/>
      <point x="140.0" y="721"/>
      <point x="118.0" y="721" type="curve"/>
      <point x="118.0" y="571"/>
      <point x="118.0" y="421"/>
      <point x="118.0" y="271" type="curve"/>
      <point x="118.0" y="106"/>
      <point x="159.0" y="-5"/>
      <point x="307.0" y="-5" type="curve"/>
      <point x="451.0" y="-5"/>
      <point x="494.0" y="103"/>
      <point x="494.0" y="263" type="curve"/>
      <point x="494.0" y="416"/>
      <point x="494.0" y="569"/>
      <point x="494.0" y="721" type="curve"/>
      <point x="472.0" y="721"/>
      <point x="493.0" y="721"/>
      <point x="471.0" y="721" type="curve"/>
      <point x="471.0" y="567"/>
      <point x="471.0" y="413"/>
      <point x="471.0" y="259" type="curve"/>
      <point x="471.0" y="117"/>
      <point x="432.0" y="19"/>
      <point x="309.0" y="19" type="curve"/>
      <point x="175.0" y="19"/>
      <point x="141.0" y="124"/>
      <point x="141.0" y="275" type="curve"/>
      <point x="141.0" y="424"/>
      <point x="141.0" y="573"/>
      <point x="141.0" y="721" type="curve"/>
    </contour>
    <contour>
      <point x="309.0" y="825" type="move" name="top"/>
    </contour>
    <contour>
      <point x="309.0" y="-80" type="move" name="bottom"/>
    </contour>
  </outline>
</glyph>
<glyph name="V" format="1">
  <advance width="456.0"/>
  <unicode hex="0056"/>
  <outline>
    <contour>
      <point x="412.0" y="722"/>
      <point x="438.0" y="722"/>
      <point x="412.0" y="722" type="curve"/>
      <point x="347.0" y="481"/>
      <point x="282.0" y="241"/>
      <point x="217.0" y="0" type="curve"/>
      <point x="244.0" y="0"/>
      <point x="217.0" y="0"/>
      <point x="244.0" y="0" type="curve"/>
      <point x="309.0" y="241"/>
      <point x="373.0" y="481"/>
      <point x="438.0" y="722" type="curve"/>
    </contour>
    <contour>
      <point x="15.0" y="722"/>
      <point x="43.0" y="722"/>
      <point x="15.0" y="722" type="curve"/>
      <point x="81.0" y="481"/>
      <point x="147.0" y="241"/>
      <point x="213.0" y="0" type="curve"/>
      <point x="240.0" y="0"/>
      <point x="213.0" y="0"/>
      <point x="240.0" y="0" type="curve"/>
      <point x="174.0" y="241"/>
      <point x="108.0" y="481"/>
      <point x="43.0" y="722" type="curve"/>
    </contour>
  </outline>
</glyph>
<glyph name="W" format="1">
  <advance width="619.0"/>
  <unicode hex="0057"/>
  <outline>
    <contour>
      <point x="183.0" y="0"/>
      <point x="166.0" y="0"/>
      <point x="184.0" y="0" type="curve"/>
      <point x="231.0" y="241"/>
      <point x="277.0" y="481"/>
      <point x="324.0" y="722" type="curve"/>
      <point x="301.0" y="722"/>
      <point x="325.0" y="722"/>
      <point x="302.0" y="722" type="curve"/>
      <point x="257.0" y="481"/>
      <point x="210.0" y="241"/>
      <point x="165.0" y="0" type="curve"/>
    </contour>
    <contour>
      <point x="307.0" y="722"/>
      <point x="331.0" y="722"/>
      <point x="308.0" y="722" type="curve"/>
      <point x="351.0" y="481"/>
      <point x="392.0" y="241"/>
      <point x="435.0" y="0" type="curve"/>
      <point x="453.0" y="0"/>
      <point x="436.0" y="0"/>
      <point x="454.0" y="0" type="curve"/>
      <point x="413.0" y="241"/>
      <point x="371.0" y="481"/>
      <point x="330.0" y="722" type="curve"/>
    </contour>
    <contour>
      <point x="33.0" y="722"/>
      <point x="58.0" y="722"/>
      <point x="33.0" y="722" type="curve"/>
      <point x="76.0" y="481"/>
      <point x="119.0" y="241"/>
      <point x="162.0" y="0" type="curve"/>
      <point x="180.0" y="0"/>
      <point x="163.0" y="0"/>
      <point x="181.0" y="0" type="curve"/>
      <point x="140.0" y="241"/>
      <point x="99.0" y="481"/>
      <point x="58.0" y="722" type="curve"/>
    </contour>
    <contour>
      <point x="566.0" y="722"/>
      <point x="591.0" y="722"/>
      <point x="566.0" y="722" type="curve"/>
      <point x="523.0" y="481"/>
      <point x="480.0" y="241"/>
      <point x="438.0" y="0" type="curve"/>
      <point x="456.0" y="0"/>
      <point x="439.0" y="0"/>
      <point x="457.0" y="0" type="curve"/>
      <point x="502.0" y="241"/>
      <point x="546.0" y="481"/>
      <point x="591.0" y="722" type="curve"/>
    </contour>
  </outline>
</glyph>
<glyph name="X" format="1">
  <advance width="413.0"/>
  <unicode hex="0058"/>
  <outline>
    <contour>
      <point x="356.0" y="722"/>
      <point x="384.0" y="722"/>
      <point x="356.0" y="722" type="curve"/>
      <point x="239.0" y="481"/>
      <point x="123.0" y="241"/>
      <point x="6.0" y="0" type="curve"/>
      <point x="37.0" y="0"/>
      <point x="6.0" y="0"/>
      <point x="37.0" y="0" type="curve"/>
      <point x="153.0" y="241"/>
      <point x="268.0" y="481"/>
      <point x="384.0" y="722" type="curve"/>
    </contour>
    <contour>
      <point x="30.0" y="722"/>
      <point x="58.0" y="722"/>
      <point x="30.0" y="722" type="curve"/>
      <point x="144.0" y="481"/>
      <point x="259.0" y="241"/>
      <point x="374.0" y="0" type="curve"/>
      <point x="404.0" y="0"/>
      <point x="374.0" y="0"/>
      <point x="404.0" y="0" type="curve"/>
      <point x="289.0" y="241"/>
      <point x="173.0" y="481"/>
      <point x="58.0" y="722" type="curve"/>
    </contour>
  </outline>
</glyph>
<glyph name="Y" format="1">
  <advance width="403.0"/>
  <unicode hex="0059"/>
  <outline>
    <contour>
      <point x="26.0" y="722"/>
      <point x="53.0" y="722"/>
      <point x="26.0" y="722" type="curve"/>
      <point x="81.0" y="594"/>
      <point x="136.0" y="465"/>
      <point x="191.0" y="337" type="curve"/>
      <point x="217.0" y="337"/>
      <point x="191.0" y="337"/>
      <point x="217.0" y="337" type="curve"/>
      <point x="162.0" y="465"/>
      <point x="107.0" y="594"/>
      <point x="53.0" y="722" type="curve"/>
    </contour>
    <contour>
      <point x="364.0" y="722"/>
      <point x="391.0" y="722"/>
      <point x="364.0" y="722" type="curve"/>
      <point x="307.0" y="594"/>
      <point x="249.0" y="465"/>
      <point x="191.0" y="337" type="curve"/>
      <point x="217.0" y="337"/>
      <point x="191.0" y="337"/>
      <point x="217.0" y="337" type="curve"/>
      <point x="275.0" y="465"/>
      <point x="333.0" y="594"/>
      <point x="391.0" y="722" type="curve"/>
    </contour>
    <contour>
      <point x="217.0" y="0"/>
      <point x="191.0" y="0"/>
      <point x="217.0" y="0" type="curve"/>
      <point x="217.0" y="115"/>
      <point x="217.0" y="231"/>
      <point x="217.0" y="346" type="curve"/>
      <point x="191.0" y="346"/>
      <point x="217.0" y="346"/>
      <point x="191.0" y="346" type="curve"/>
      <point x="191.0" y="231"/>
      <point x="191.0" y="115"/>
      <point x="191.0" y="0" type="curve"/>
    </contour>
    <contour>
      <point x="206.0" y="825" type="move" name="top"/>
    </contour>
  </outline>
</glyph>
<glyph name="bracketleft" format="1">
  <advance width="237.0"/>
  <unicode hex="005B"/>
  <outline>
    <contour>
      <point x="210.0" y="771"/>
      <point x="210.0" y="747"/>
      <point x="210.0" y="771" type="curve"/>
      <point x="175.0" y="771"/>
      <point x="139.0" y="771"/>
      <point x="103.0" y="771" type="curve"/>
      <point x="101.0" y="771"/>
      <point x="98.0" y="771"/>
      <point x="96.0" y="771" type="curve"/>
      <point x="96.0" y="769"/>
      <point x="96.0" y="767"/>
      <point x="96.0" y="765" type="curve"/>
      <point x="96.0" y="470"/>
      <point x="96.0" y="175"/>
      <point x="96.0" y="-120" type="curve"/>
      <point x="96.0" y="-121"/>
      <point x="96.0" y="-123"/>
      <point x="96.0" y="-124" type="curve"/>
      <point x="98.0" y="-124"/>
      <point x="101.0" y="-124"/>
      <point x="102.0" y="-124" type="curve"/>
      <point x="138.0" y="-124"/>
      <point x="174.0" y="-124"/>
      <point x="210.0" y="-124" type="curve"/>
      <point x="210.0" y="-100"/>
      <point x="210.0" y="-124"/>
      <point x="210.0" y="-100" type="curve"/>
      <point x="174.0" y="-100"/>
      <point x="138.0" y="-100"/>
      <point x="102.0" y="-100" type="curve"/>
      <point x="120.0" y="-100"/>
      <point x="102.0" y="-100"/>
      <point x="120.0" y="-100" type="curve"/>
      <point x="120.0" y="-120"/>
      <point x="120.0" y="-100"/>
      <point x="120.0" y="-120" type="curve"/>
      <point x="120.0" y="175"/>
      <point x="120.0" y="470"/>
      <point x="120.0" y="765" type="curve"/>
      <point x="120.0" y="747"/>
      <point x="120.0" y="765"/>
      <point x="120.0" y="747" type="curve"/>
      <point x="103.0" y="747"/>
      <point x="120.0" y="747"/>
      <point x="103.0" y="747" type="curve"/>
      <point x="139.0" y="747"/>
      <point x="175.0" y="747"/>
      <point x="210.0" y="747" type="curve"/>
    </contour>
  </outline>
</glyph>
<glyph name="backslash" format="1">
  <advance width="366.0"/>
  <unicode hex="005C"/>
  <outline>
    <contour>
      <point x="333.0" y="-68"/>
      <point x="308.0" y="-68"/>
      <point x="333.0" y="-68" type="curve"/>
      <point x="242.0" y="236"/>
      <point x="150.0" y="540"/>
      <point x="59.0" y="844" type="curve"/>
      <point x="33.0" y="844"/>
      <point x="59.0" y="844"/>
      <point x="33.0" y="844" type="curve"/>
      <point x="125.0" y="540"/>
      <point x="216.0" y="236"/>
      <point x="308.0" y="-68" type="curve"/>
    </contour>
  </outline>
</glyph>
<glyph name="bracketright" format="1">
  <advance width="238.0"/>
  <unicode hex="005D"/>
  <outline>
    <contour>
      <point x="27.0" y="747"/>
      <point x="27.0" y="771"/>
      <point x="27.0" y="747" type="curve"/>
      <point x="63.0" y="747"/>
      <point x="99.0" y="747"/>
      <point x="135.0" y="747" type="curve"/>
      <point x="132.0" y="750"/>
      <point x="128.0" y="752"/>
      <point x="126.0" y="756" type="curve"/>
      <point x="123.0" y="759"/>
      <point x="120.0" y="762"/>
      <point x="118.0" y="765" type="curve"/>
      <point x="118.0" y="470"/>
      <point x="117.0" y="175"/>
      <point x="118.0" y="-120" type="curve"/>
      <point x="120.0" y="-116"/>
      <point x="124.0" y="-113"/>
      <point x="127.0" y="-109" type="curve"/>
      <point x="129.0" y="-106"/>
      <point x="133.0" y="-104"/>
      <point x="135.0" y="-100" type="curve"/>
      <point x="99.0" y="-100"/>
      <point x="63.0" y="-100"/>
      <point x="27.0" y="-100" type="curve"/>
      <point x="27.0" y="-124"/>
      <point x="27.0" y="-100"/>
      <point x="27.0" y="-124" type="curve"/>
      <point x="63.0" y="-124"/>
      <point x="99.0" y="-124"/>
      <point x="135.0" y="-124" type="curve"/>
      <point x="142.0" y="-124"/>
      <point x="135.0" y="-124"/>
      <point x="142.0" y="-124" type="curve"/>
      <point x="142.0" y="-120"/>
      <point x="142.0" y="-124"/>
      <point x="142.0" y="-120" type="curve"/>
      <point x="142.0" y="175"/>
      <point x="142.0" y="470"/>
      <point x="142.0" y="765" type="curve"/>
      <point x="142.0" y="771"/>
      <point x="142.0" y="765"/>
      <point x="142.0" y="771" type="curve"/>
      <point x="135.0" y="771"/>
      <point x="142.0" y="771"/>
      <point x="135.0" y="771" type="curve"/>
      <point x="99.0" y="771"/>
      <point x="63.0" y="771"/>
      <point x="27.0" y="771" type="curve"/>
    </contour>
  </outline>
</glyph>
<glyph name="asciicircum" format="1">
  <advance width="394.0"/>
  <unicode hex="005E"/>
  <outline>
    <contour>
      <point x="86.0" y="466"/>
      <point x="62.0" y="466"/>
      <point x="86.0" y="466" type="curve"/>
      <point x="127.0" y="581"/>
      <point x="168.0" y="695"/>
      <point x="208.0" y="810" type="curve"/>
      <point x="184.0" y="810"/>
      <point x="208.0" y="810"/>
      <point x="184.0" y="810" type="curve"/>
      <point x="143.0" y="695"/>
      <point x="103.0" y="581"/>
      <point x="62.0" y="466" type="curve"/>
    </contour>
    <contour>
      <point x="332.0" y="466"/>
      <point x="308.0" y="466"/>
      <point x="332.0" y="466" type="curve"/>
      <point x="292.0" y="577"/>
      <point x="248.0" y="699"/>
      <point x="208.0" y="810" type="curve"/>
      <point x="184.0" y="810"/>
      <point x="208.0" y="810"/>
      <point x="184.0" y="810" type="curve"/>
      <point x="224.0" y="699"/>
      <point x="268.0" y="577"/>
      <point x="308.0" y="466" type="curve"/>
    </contour>
  </outline>
</glyph>
<glyph name="underscore" format="1">
  <advance width="477.2"/>
  <unicode hex="005F"/>
  <outline>
    <contour>
      <point x="-0.25" y="-210"/>
      <point x="-0.25" y="-188"/>
      <point x="-0.25" y="-210" type="curve"/>
      <point x="158.75" y="-210"/>
      <point x="317.75" y="-210"/>
      <point x="476.75" y="-210" type="curve"/>
      <point x="476.75" y="-188"/>
      <point x="476.75" y="-210"/>
      <point x="476.75" y="-188" type="curve"/>
      <point x="317.75" y="-188"/>
      <point x="158.75" y="-188"/>
      <point x="-0.25" y="-188" type="curve"/>
    </contour>
  </outline>
</glyph>
<glyph name="b" format="1">
  <advance width="497.0"/>
  <unicode hex="0062"/>
  <outline>
    <contour>
      <point x="128.0" y="412"/>
      <point x="116.0" y="422"/>
      <point x="128.0" y="405" type="curve"/>
      <point x="143.0" y="451"/>
      <point x="195.0" y="516"/>
      <point x="265.0" y="516" type="curve"/>
      <point x="372.0" y="516"/>
      <point x="406.0" y="399"/>
      <point x="406.0" y="269" type="curve"/>
      <point x="406.0" y="144"/>
      <point x="365.0" y="17"/>
      <point x="265.0" y="17" type="curve"/>
      <point x="205.0" y="17"/>
      <point x="155.0" y="70"/>
      <point x="129.0" y="136" type="curve"/>
      <point x="112.0" y="122"/>
      <point x="132.0" y="131"/>
      <point x="115.0" y="117" type="curve"/>
      <point x="144.0" y="49"/>
      <point x="194.0" y="-5"/>
      <point x="265.0" y="-5" type="curve"/>
      <point x="391.0" y="-5"/>
      <point x="430.0" y="122"/>
      <point x="430.0" y="270" type="curve"/>
      <point x="430.0" y="412"/>
      <point x="393.0" y="538"/>
      <point x="265.0" y="538" type="curve"/>
      <point x="186.0" y="538"/>
      <point x="132.0" y="479"/>
      <point x="116.0" y="429" type="curve"/>
    </contour>
    <contour>
      <point x="133.0" y="0"/>
      <point x="109.0" y="0"/>
      <point x="133.0" y="0" type="curve"/>
      <point x="133.0" y="267"/>
      <point x="133.0" y="533"/>
      <point x="133.0" y="800" type="curve"/>
      <point x="109.0" y="800"/>
      <point x="133.0" y="800"/>
      <point x="109.0" y="800" type="curve"/>
      <point x="109.0" y="533"/>
      <point x="109.0" y="267"/>
      <point x="109.0" y="0" type="curve"/>
    </contour>
  </outline>
</glyph>
<glyph name="c" format="1">
  <advance width="404.0"/>
  <unicode hex="0063"/>
  <outline>
    <contour>
      <point x="351.0" y="473"/>
      <point x="337.0" y="458"/>
      <point x="351.0" y="473" type="curve"/>
      <point x="322.0" y="507"/>
      <point x="282.0" y="538"/>
      <point x="236.0" y="538" type="curve"/>
      <point x="102.0" y="538"/>
      <point x="67.0" y="422"/>
      <point x="67.0" y="267" type="curve"/>
      <point x="67.0" y="112"/>
      <point x="100.0" y="-5"/>
      <point x="234.0" y="-5" type="curve"/>
      <point x="288.0" y="-5"/>
      <point x="332.0" y="35"/>
      <point x="359.0" y="88" type="curve"/>
      <point x="341.0" y="99"/>
      <point x="359.0" y="88"/>
      <point x="341.0" y="99" type="curve"/>
      <point x="321.0" y="62"/>
      <point x="282.0" y="17"/>
      <point x="235.0" y="17" type="curve"/>
      <point x="117.0" y="17"/>
      <point x="91.0" y="128"/>
      <point x="91.0" y="267" type="curve"/>
      <point x="91.0" y="406"/>
      <point x="121.0" y="516"/>
      <point x="235.0" y="516" type="curve"/>
      <point x="275.0" y="516"/>
      <point x="311.0" y="487"/>
      <point x="337.0" y="458" type="curve"/>
    </contour>
    <contour>
      <point x="233.0" y="671" type="move" name="top"/>
    </contour>
    <contour>
      <point x="234.0" y="-5" type="move" name="bottom"/>
    </contour>
  </outline>
</glyph>
<glyph name="d" format="1">
  <advance width="497.825"/>
  <unicode hex="0064"/>
  <outline>
    <contour>
      <point x="383.35" y="438"/>
      <point x="368.35" y="422"/>
      <point x="383.35" y="438" type="curve"/>
      <point x="362.35" y="495"/>
      <point x="308.35" y="538"/>
      <point x="240.35" y="538" type="curve"/>
      <point x="111.35" y="538"/>
      <point x="66.35" y="410"/>
      <point x="66.35" y="264" type="curve"/>
      <point x="66.35" y="120"/>
      <point x="114.35" y="-5"/>
      <point x="242.35" y="-5" type="curve"/>
      <point x="315.35" y="-5"/>
      <point x="359.35" y="51"/>
      <point x="383.35" y="129" type="curve"/>
      <point x="368.35" y="144"/>
      <point x="383.35" y="129"/>
      <point x="368.35" y="144" type="curve"/>
      <point x="345.35" y="71"/>
      <point x="302.35" y="17"/>
      <point x="241.35" y="17" type="curve"/>
      <point x="130.35" y="17"/>
      <point x="90.35" y="134"/>
      <point x="90.35" y="265" type="curve"/>
      <point x="90.35" y="397"/>
      <point x="129.35" y="516"/>
      <point x="241.35" y="516" type="curve"/>
      <point x="296.35" y="516"/>
      <point x="348.35" y="477"/>
      <point x="368.35" y="422" type="curve"/>
    </contour>
    <contour>
      <point x="388.35" y="0"/>
      <point x="363.35" y="0"/>
      <point x="388.35" y="0" type="curve"/>
      <point x="388.35" y="267"/>
      <point x="388.35" y="533"/>
      <point x="388.35" y="800" type="curve"/>
      <point x="363.35" y="800"/>
      <point x="388.35" y="800"/>
      <point x="363.35" y="800" type="curve"/>
      <point x="363.35" y="533"/>
      <point x="363.35" y="267"/>
      <point x="363.35" y="0" type="curve"/>
    </contour>
    <contour>
      <point x="481.35" y="671" type="move" name="top"/>
    </contour>
  </outline>
</glyph>
<glyph name="f" format="1">
  <advance width="313"/>
  <unicode hex="0066"/>
  <outline>
    <contour>
      <point x="22.0" y="511"/>
      <point x="22.0" y="533"/>
      <point x="22.0" y="511" type="curve"/>
      <point x="22.0" y="511"/>
      <point x="287.0" y="511"/>
      <point x="287.0" y="511" type="curve"/>
      <point x="287.0" y="533"/>
      <point x="287.0" y="511"/>
      <point x="287.0" y="533" type="curve"/>
      <point x="287.0" y="533"/>
      <point x="22.0" y="533"/>
      <point x="22.0" y="533" type="curve"/>
    </contour>
    <contour>
      <point x="164.0" y="0"/>
      <point x="140.0" y="0"/>
      <point x="164.0" y="0" type="curve"/>
      <point x="164.0" y="0"/>
      <point x="164.0" y="640"/>
      <point x="164.0" y="640" type="curve"/>
      <point x="164.0" y="718"/>
      <point x="184.0" y="784"/>
      <point x="248.0" y="784" type="curve"/>
      <point x="273.0" y="784"/>
      <point x="295.0" y="774"/>
      <point x="315.0" y="760" type="curve"/>
      <point x="324.0" y="777"/>
      <point x="315.0" y="760"/>
      <point x="324.0" y="777" type="curve"/>
      <point x="302.0" y="793"/>
      <point x="275.0" y="805"/>
      <point x="248.0" y="805" type="curve"/>
      <point x="169.0" y="805"/>
      <point x="139.0" y="729"/>
      <point x="140.0" y="640" type="curve"/>
      <point x="140.0" y="640"/>
      <point x="140.0" y="0"/>
      <point x="140.0" y="0" type="curve"/>
    </contour>
  </outline>
</glyph>
<glyph name="h" format="1">
  <advance width="495.0"/>
  <unicode hex="0068"/>
  <outline>
    <contour>
      <point x="130.0" y="356"/>
      <point x="112.0" y="367"/>
      <point x="127.0" y="353" type="curve"/>
      <point x="140.0" y="427"/>
      <point x="192.0" y="516"/>
      <point x="268.0" y="516" type="curve"/>
      <point x="353.0" y="516"/>
      <point x="370.0" y="438"/>
      <point x="370.0" y="341" type="curve"/>
      <point x="370.0" y="228"/>
      <point x="370.0" y="114"/>
      <point x="370.0" y="0" type="curve"/>
      <point x="394.0" y="0"/>
      <point x="370.0" y="0"/>
      <point x="394.0" y="0" type="curve"/>
      <point x="394.0" y="115"/>
      <point x="394.0" y="229"/>
      <point x="394.0" y="344" type="curve"/>
      <point x="394.0" y="454"/>
      <point x="368.0" y="538"/>
      <point x="271.0" y="538" type="curve"/>
      <point x="186.0" y="538"/>
      <point x="126.0" y="452"/>
      <point x="115.0" y="370" type="curve"/>
    </contour>
    <contour>
      <point x="133.0" y="0"/>
      <point x="109.0" y="0"/>
      <point x="133.0" y="0" type="curve"/>
      <point x="133.0" y="267"/>
      <point x="133.0" y="533"/>
      <point x="133.0" y="800" type="curve"/>
      <point x="109.0" y="800"/>
      <point x="133.0" y="800"/>
      <point x="109.0" y="800" type="curve"/>
      <point x="109.0" y="533"/>
      <point x="109.0" y="267"/>
      <point x="109.0" y="0" type="curve"/>
    </contour>
  </outline>
</glyph>
<glyph name="i" format="1">
  <advance width="253.0"/>
  <unicode hex="0069"/>
  <outline>
    <contour>
      <point x="139.0" y="0"/>
      <point x="113.0" y="0"/>
      <point x="139.0" y="0" type="curve"/>
      <point x="139.0" y="178"/>
      <point x="139.0" y="355"/>
      <point x="139.0" y="533" type="curve"/>
      <point x="113.0" y="533"/>
      <point x="139.0" y="533"/>
      <point x="113.0" y="533" type="curve"/>
      <point x="113.0" y="355"/>
      <point x="113.0" y="178"/>
      <point x="113.0" y="0" type="curve"/>
    </contour>
    <contour>
      <point x="144.0" y="687"/>
      <point x="106.0" y="687"/>
      <point x="144.0" y="687" type="curve"/>
      <point x="144.0" y="699"/>
      <point x="136.0" y="706"/>
      <point x="124.0" y="706" type="curve"/>
      <point x="112.0" y="706"/>
      <point x="106.0" y="698"/>
      <point x="106.0" y="687" type="curve"/>
      <point x="144.0" y="687"/>
      <point x="106.0" y="687"/>
      <point x="144.0" y="687" type="curve"/>
      <point x="144.0" y="675"/>
      <point x="136.0" y="669"/>
      <point x="124.0" y="669" type="curve"/>
      <point x="112.0" y="669"/>
      <point x="106.0" y="675"/>
      <point x="106.0" y="687" type="curve"/>
    </contour>
    <contour>
      <point x="125.0" y="671" type="move" name="top"/>
    </contour>
    <contour>
      <point x="139.0" y="0" type="move" name="bottom"/>
    </contour>
  </outline>
</glyph>
<glyph name="j" format="1">
  <advance width="210"/>
  <unicode hex="006A"/>
  <outline>
    <contour>
      <point x="-13" y="-297"/>
      <point x="-10" y="-280"/>
      <point x="-14" y="-301" type="curve"/>
      <point x="-8" y="-302"/>
      <point x="0" y="-304"/>
      <point x="8" y="-304" type="curve"/>
      <point x="85" y="-304"/>
      <point x="123" y="-227"/>
      <point x="123" y="-142" type="curve"/>
      <point x="123" y="83"/>
      <point x="123" y="308"/>
      <point x="123" y="533" type="curve"/>
      <point x="99" y="533"/>
      <point x="123" y="533"/>
      <point x="99" y="533" type="curve"/>
      <point x="99" y="308"/>
      <point x="99" y="83"/>
      <point x="99" y="-142" type="curve"/>
      <point x="99" y="-207"/>
      <point x="69" y="-278"/>
      <point x="9" y="-278" type="curve"/>
      <point x="3" y="-278"/>
      <point x="-5" y="-277"/>
      <point x="-9" y="-276" type="curve"/>
    </contour>
    <contour>
      <point x="132" y="688"/>
      <point x="94" y="688"/>
      <point x="132" y="688" type="curve"/>
      <point x="132" y="700"/>
      <point x="124" y="707"/>
      <point x="112" y="707" type="curve"/>
      <point x="100" y="707"/>
      <point x="94" y="699"/>
      <point x="94" y="688" type="curve"/>
      <point x="132" y="688"/>
      <point x="94" y="688"/>
      <point x="132" y="688" type="curve"/>
      <point x="132" y="676"/>
      <point x="124" y="670"/>
      <point x="112" y="670" type="curve"/>
      <point x="100" y="670"/>
      <point x="94" y="676"/>
      <point x="94" y="688" type="curve"/>
    </contour>
  </outline>
</glyph>
<glyph name="k" format="1">
  <advance width="395"/>
  <unicode hex="006B"/>
  <outline>
    <contour>
      <point x="133.0" y="0"/>
      <point x="109.0" y="0"/>
      <point x="133.0" y="0" type="curve"/>
      <point x="133.0" y="0"/>
      <point x="133.0" y="800"/>
      <point x="133.0" y="800" type="curve"/>
      <point x="109.0" y="800"/>
      <point x="133.0" y="800"/>
      <point x="109.0" y="800" type="curve"/>
      <point x="109.0" y="533"/>
      <point x="109.0" y="267"/>
      <point x="109.0" y="0" type="curve"/>
    </contour>
    <contour>
      <point x="310.0" y="533"/>
      <point x="351.0" y="533"/>
      <point x="314.0" y="533" type="curve"/>
      <point x="119.0" y="275" type="line"/>
      <point x="155.0" y="275"/>
      <point x="115.0" y="275"/>
      <point x="151.0" y="275" type="curve"/>
      <point x="347.0" y="533" type="line"/>
    </contour>
    <contour>
      <point x="369.0" y="0"/>
      <point x="328.0" y="0"/>
      <point x="365.0" y="0" type="curve"/>
      <point x="151.0" y="275" type="line"/>
      <point x="115.0" y="275"/>
      <point x="155.0" y="275"/>
      <point x="119.0" y="275" type="curve"/>
      <point x="332.0" y="0" type="line"/>
    </contour>
    <contour>
      <point x="274.0" y="-80" type="move" name="bottom"/>
    </contour>
  </outline>
</glyph>
<glyph name="l" format="1">
  <advance width="242.0"/>
  <unicode hex="006C"/>
  <outline>
    <contour>
      <point x="133.0" y="0"/>
      <point x="109.0" y="0"/>
      <point x="133.0" y="0" type="curve"/>
      <point x="133.0" y="267"/>
      <point x="133.0" y="533"/>
      <point x="133.0" y="800" type="curve"/>
      <point x="109.0" y="800"/>
      <point x="133.0" y="800"/>
      <point x="109.0" y="800" type="curve"/>
      <point x="109.0" y="533"/>
      <point x="109.0" y="267"/>
      <point x="109.0" y="0" type="curve"/>
    </contour>
    <contour>
      <point x="121.0" y="888" type="move" name="top"/>
    </contour>
    <contour>
      <point x="120.0" y="-80" type="move" name="bottom"/>
    </contour>
    <contour>
      <point x="231.0" y="670" type="move" name="commaaccent"/>
    </contour>
  </outline>
</glyph>
<glyph name="m" format="1">
  <advance width="700.0"/>
  <unicode hex="006D"/>
  <outline>
    <contour>
      <point x="360.0" y="354"/>
      <point x="348.0" y="365"/>
      <point x="360.0" y="354" type="curve"/>
      <point x="382.0" y="434"/>
      <point x="417.0" y="517"/>
      <point x="486.0" y="517" type="curve"/>
      <point x="573.0" y="517"/>
      <point x="574.0" y="443"/>
      <point x="574.0" y="341" type="curve"/>
      <point x="574.0" y="228"/>
      <point x="574.0" y="114"/>
      <point x="574.0" y="0" type="curve"/>
      <point x="598.0" y="0"/>
      <point x="574.0" y="0"/>
      <point x="598.0" y="0" type="curve"/>
      <point x="598.0" y="115"/>
      <point x="598.0" y="229"/>
      <point x="598.0" y="344" type="curve"/>
      <point x="598.0" y="458"/>
      <point x="589.0" y="538"/>
      <point x="490.0" y="538" type="curve"/>
      <point x="403.0" y="538"/>
      <point x="365.0" y="455"/>
      <point x="348.0" y="365" type="curve"/>
    </contour>
    <contour>
      <point x="128.0" y="354"/>
      <point x="116.0" y="365"/>
      <point x="128.0" y="354" type="curve"/>
      <point x="146.0" y="431"/>
      <point x="181.0" y="518"/>
      <point x="253.0" y="518" type="curve"/>
      <point x="340.0" y="518"/>
      <point x="342.0" y="443"/>
      <point x="342.0" y="341" type="curve"/>
      <point x="342.0" y="228"/>
      <point x="342.0" y="114"/>
      <point x="342.0" y="0" type="curve"/>
      <point x="366.0" y="0"/>
      <point x="342.0" y="0"/>
      <point x="366.0" y="0" type="curve"/>
      <point x="366.0" y="115"/>
      <point x="366.0" y="229"/>
      <point x="366.0" y="344" type="curve"/>
      <point x="366.0" y="458"/>
      <point x="357.0" y="539"/>
      <point x="258.0" y="539" type="curve"/>
      <point x="168.0" y="539"/>
      <point x="133.0" y="456"/>
      <point x="116.0" y="365" type="curve"/>
    </contour>
    <contour>
      <point x="133.0" y="0"/>
      <point x="109.0" y="0"/>
      <point x="133.0" y="0" type="curve"/>
      <point x="133.0" y="178"/>
      <point x="133.0" y="355"/>
      <point x="133.0" y="533" type="curve"/>
      <point x="109.0" y="533"/>
      <point x="133.0" y="533"/>
      <point x="109.0" y="533" type="curve"/>
      <point x="109.0" y="355"/>
      <point x="109.0" y="178"/>
      <point x="109.0" y="0" type="curve"/>
    </contour>
  </outline>
</glyph>
<glyph name="p" format="1">
  <advance width="502.0"/>
  <unicode hex="0070"/>
  <outline>
    <contour>
      <point x="131.0" y="408"/>
      <point x="111.0" y="425"/>
      <point x="127.0" y="405" type="curve"/>
      <point x="144.0" y="453"/>
      <point x="200.0" y="517"/>
      <point x="269.0" y="517" type="curve"/>
      <point x="381.0" y="517"/>
      <point x="412.0" y="404"/>
      <point x="412.0" y="276" type="curve"/>
      <point x="414.0" y="139"/>
      <point x="380.0" y="17"/>
      <point x="268.0" y="17" type="curve"/>
      <point x="201.0" y="17"/>
      <point x="160.0" y="64"/>
      <point x="129.0" y="122" type="curve"/>
      <point x="113.0" y="110"/>
      <point x="129.0" y="122"/>
      <point x="113.0" y="110" type="curve"/>
      <point x="146.0" y="42"/>
      <point x="193.0" y="-5"/>
      <point x="268.0" y="-5" type="curve"/>
      <point x="405.0" y="-5"/>
      <point x="436.0" y="128"/>
      <point x="436.0" y="278" type="curve"/>
      <point x="436.0" y="417"/>
      <point x="399.0" y="538"/>
      <point x="270.0" y="538" type="curve"/>
      <point x="190.0" y="538"/>
      <point x="136.0" y="479"/>
      <point x="115.0" y="428" type="curve"/>
    </contour>
    <contour>
      <point x="133.0" y="-300"/>
      <point x="109.0" y="-300"/>
      <point x="133.0" y="-300" type="curve"/>
      <point x="133.0" y="-22"/>
      <point x="133.0" y="255"/>
      <point x="133.0" y="533" type="curve"/>
      <point x="109.0" y="533"/>
      <point x="133.0" y="533"/>
      <point x="109.0" y="533" type="curve"/>
      <point x="109.0" y="255"/>
      <point x="109.0" y="-22"/>
      <point x="109.0" y="-300" type="curve"/>
    </contour>
  </outline>
</glyph>
<glyph name="q" format="1">
  <advance width="501.0"/>
  <unicode hex="0071"/>
  <outline>
    <contour>
      <point x="387.0" y="428"/>
      <point x="374.0" y="420"/>
      <point x="386.0" y="434" type="curve"/>
      <point x="357.0" y="503"/>
      <point x="294.0" y="538"/>
      <point x="232.0" y="538" type="curve"/>
      <point x="101.0" y="538"/>
      <point x="67.0" y="409"/>
      <point x="67.0" y="264" type="curve"/>
      <point x="68.0" y="120"/>
      <point x="106.0" y="-6"/>
      <point x="236.0" y="-6" type="curve"/>
      <point x="306.0" y="-6"/>
      <point x="363.0" y="54"/>
      <point x="386.0" y="121" type="curve"/>
      <point x="372.0" y="134"/>
      <point x="387.0" y="126"/>
      <point x="373.0" y="139" type="curve"/>
      <point x="351.0" y="75"/>
      <point x="298.0" y="16"/>
      <point x="236.0" y="16" type="curve"/>
      <point x="123.0" y="16"/>
      <point x="92.0" y="134"/>
      <point x="92.0" y="265" type="curve"/>
      <point x="92.0" y="396"/>
      <point x="121.0" y="516"/>
      <point x="233.0" y="516" type="curve"/>
      <point x="290.0" y="516"/>
      <point x="347.0" y="479"/>
      <point x="375.0" y="414" type="curve"/>
    </contour>
    <contour>
      <point x="392.0" y="-300"/>
      <point x="367.0" y="-300"/>
      <point x="392.0" y="-300" type="curve"/>
      <point x="392.0" y="-22"/>
      <point x="392.0" y="255"/>
      <point x="392.0" y="533" type="curve"/>
      <point x="367.0" y="533"/>
      <point x="392.0" y="533"/>
      <point x="367.0" y="533" type="curve"/>
      <point x="367.0" y="255"/>
      <point x="367.0" y="-22"/>
      <point x="367.0" y="-300" type="curve"/>
    </contour>
  </outline>
</glyph>
<glyph name="r" format="1">
  <advance width="309.0"/>
  <unicode hex="0072"/>
  <outline>
    <contour>
      <point x="133.0" y="0"/>
      <point x="109.0" y="0"/>
      <point x="133.0" y="0" type="curve"/>
      <point x="133.0" y="178"/>
      <point x="133.0" y="355"/>
      <point x="133.0" y="533" type="curve"/>
      <point x="109.0" y="533"/>
      <point x="133.0" y="533"/>
      <point x="109.0" y="533" type="curve"/>
      <point x="109.0" y="355"/>
      <point x="109.0" y="178"/>
      <point x="109.0" y="0" type="curve"/>
    </contour>
    <contour>
      <point x="128.0" y="381"/>
      <point x="119.0" y="381"/>
      <point x="127.0" y="371" type="curve"/>
      <point x="143.0" y="456"/>
      <point x="217.0" y="516"/>
      <point x="296.0" y="516" type="curve"/>
      <point x="296.0" y="543"/>
      <point x="296.0" y="511"/>
      <point x="296.0" y="538" type="curve"/>
      <point x="210.0" y="538"/>
      <point x="136.0" y="483"/>
      <point x="115.0" y="394" type="curve"/>
    </contour>
    <contour>
      <point x="123.0" y="671" type="move" name="top"/>
    </contour>
    <contour>
      <point x="121.0" y="-80" type="move" name="bottom"/>
    </contour>
  </outline>
</glyph>
<glyph name="t" format="1">
  <advance width="291.0"/>
  <unicode hex="0074"/>
  <outline>
    <contour>
      <point x="12.0" y="511"/>
      <point x="12.0" y="533"/>
      <point x="12.0" y="511" type="curve"/>
      <point x="12.0" y="511"/>
      <point x="286.0" y="511"/>
      <point x="286.0" y="511" type="curve"/>
      <point x="286.0" y="533"/>
      <point x="286.0" y="511"/>
      <point x="286.0" y="533" type="curve"/>
      <point x="286.0" y="533"/>
      <point x="12.0" y="533"/>
      <point x="12.0" y="533" type="curve"/>
    </contour>
    <contour>
      <point x="267.0" y="46"/>
      <point x="279.0" y="24"/>
      <point x="267.0" y="46" type="curve"/>
      <point x="246.0" y="30"/>
      <point x="228.0" y="19"/>
      <point x="201.0" y="19" type="curve"/>
      <point x="144.0" y="19"/>
      <point x="132.0" y="72"/>
      <point x="132.0" y="145" type="curve"/>
      <point x="132.0" y="145"/>
      <point x="132.0" y="681"/>
      <point x="132.0" y="681" type="curve"/>
      <point x="108.0" y="657" type="line"/>
      <point x="108.0" y="657"/>
      <point x="108.0" y="143"/>
      <point x="108.0" y="143" type="curve"/>
      <point x="108.0" y="56"/>
      <point x="125.0" y="-5"/>
      <point x="199.0" y="-5" type="curve"/>
      <point x="231.0" y="-5"/>
      <point x="253.0" y="5"/>
      <point x="279.0" y="24" type="curve"/>
    </contour>
    <contour>
      <point x="196.0" y="-80" type="move" name="bottom"/>
    </contour>
  </outline>
</glyph>
<glyph name="u" format="1">
  <advance width="490.0"/>
  <unicode hex="0075"/>
  <outline>
    <contour>
      <point x="381.0" y="0"/>
      <point x="357.0" y="0"/>
      <point x="381.0" y="0" type="curve"/>
      <point x="381.0" y="178"/>
      <point x="381.0" y="355"/>
      <point x="381.0" y="533" type="curve"/>
      <point x="357.0" y="533"/>
      <point x="381.0" y="533"/>
      <point x="357.0" y="533" type="curve"/>
      <point x="357.0" y="355"/>
      <point x="357.0" y="178"/>
      <point x="357.0" y="0" type="curve"/>
    </contour>
    <contour>
      <point x="360.0" y="172"/>
      <point x="376.0" y="161"/>
      <point x="360.0" y="171" type="curve"/>
      <point x="342.0" y="96"/>
      <point x="294.0" y="17"/>
      <point x="236.0" y="17" type="curve"/>
      <point x="150.0" y="17"/>
      <point x="125.0" y="91"/>
      <point x="125.0" y="187" type="curve"/>
      <point x="125.0" y="302"/>
      <point x="125.0" y="418"/>
      <point x="125.0" y="533" type="curve"/>
      <point x="101.0" y="533"/>
      <point x="125.0" y="533"/>
      <point x="101.0" y="533" type="curve"/>
      <point x="101.0" y="417"/>
      <point x="101.0" y="301"/>
      <point x="101.0" y="185" type="curve"/>
      <point x="101.0" y="76"/>
      <point x="133.0" y="-5"/>
      <point x="236.0" y="-5" type="curve"/>
      <point x="312.0" y="-5"/>
      <point x="355.0" y="76"/>
      <point x="376.0" y="161" type="curve"/>
    </contour>
    <contour>
      <point x="227.0" y="671" type="move" name="top"/>
    </contour>
    <contour>
      <point x="381.0" y="0" type="move" name="bottom"/>
    </contour>
  </outline>
</glyph>
<glyph name="v" format="1">
  <advance width="388.0"/>
  <unicode hex="0076"/>
  <outline>
    <contour>
      <point x="34.0" y="533"/>
      <point x="61.0" y="533"/>
      <point x="34.0" y="533" type="curve"/>
      <point x="83.0" y="355"/>
      <point x="132.0" y="178"/>
      <point x="180.0" y="0" type="curve"/>
      <point x="204.0" y="0"/>
      <point x="180.0" y="0"/>
      <point x="204.0" y="0" type="curve"/>
      <point x="156.0" y="178"/>
      <point x="108.0" y="355"/>
      <point x="61.0" y="533" type="curve"/>
    </contour>
    <contour>
      <point x="335.0" y="533"/>
      <point x="361.0" y="533"/>
      <point x="335.0" y="533" type="curve"/>
      <point x="335.0" y="533"/>
      <point x="183.0" y="0"/>
      <point x="183.0" y="0" type="curve"/>
      <point x="208.0" y="0"/>
      <point x="183.0" y="0"/>
      <point x="208.0" y="0" type="curve"/>
      <point x="259.0" y="178"/>
      <point x="310.0" y="355"/>
      <point x="361.0" y="533" type="curve"/>
    </contour>
  </outline>
</glyph>
<glyph name="w" format="1">
  <advance width="626.0"/>
  <unicode hex="0077"/>
  <outline>
    <contour>
      <point x="188.0" y="0"/>
      <point x="165.0" y="0"/>
      <point x="188.0" y="0" type="curve"/>
      <point x="236.0" y="178"/>
      <point x="283.0" y="355"/>
      <point x="331.0" y="533" type="curve"/>
      <point x="304.0" y="533"/>
      <point x="331.0" y="533"/>
      <point x="304.0" y="533" type="curve"/>
      <point x="258.0" y="355"/>
      <point x="211.0" y="178"/>
      <point x="165.0" y="0" type="curve"/>
    </contour>
    <contour>
      <point x="568.0" y="533"/>
      <point x="595.0" y="533"/>
      <point x="568.0" y="533" type="curve"/>
      <point x="525.0" y="355"/>
      <point x="481.0" y="178"/>
      <point x="438.0" y="0" type="curve"/>
      <point x="461.0" y="0"/>
      <point x="438.0" y="0"/>
      <point x="461.0" y="0" type="curve"/>
      <point x="506.0" y="178"/>
      <point x="550.0" y="355"/>
      <point x="595.0" y="533" type="curve"/>
    </contour>
    <contour>
      <point x="309.0" y="533"/>
      <point x="334.0" y="533"/>
      <point x="309.0" y="533" type="curve"/>
      <point x="352.0" y="355"/>
      <point x="394.0" y="178"/>
      <point x="437.0" y="0" type="curve"/>
      <point x="460.0" y="0"/>
      <point x="437.0" y="0"/>
      <point x="460.0" y="0" type="curve"/>
      <point x="418.0" y="178"/>
      <point x="376.0" y="355"/>
      <point x="334.0" y="533" type="curve"/>
    </contour>
    <contour>
      <point x="36.0" y="533"/>
      <point x="62.0" y="533"/>
      <point x="36.0" y="533" type="curve"/>
      <point x="79.0" y="355"/>
      <point x="122.0" y="178"/>
      <point x="164.0" y="0" type="curve"/>
      <point x="187.0" y="0"/>
      <point x="164.0" y="0"/>
      <point x="187.0" y="0" type="curve"/>
      <point x="145.0" y="178"/>
      <point x="104.0" y="355"/>
      <point x="62.0" y="533" type="curve"/>
    </contour>
  </outline>
</glyph>
<glyph name="x" format="1">
  <advance width="372.0"/>
  <unicode hex="0078"/>
  <outline>
    <contour>
      <point x="353.0" y="0"/>
      <point x="323.0" y="0"/>
      <point x="353.0" y="0" type="curve"/>
      <point x="255.0" y="178"/>
      <point x="158.0" y="355"/>
      <point x="60.0" y="533" type="curve"/>
      <point x="33.0" y="533"/>
      <point x="60.0" y="533"/>
      <point x="33.0" y="533" type="curve"/>
      <point x="130.0" y="355"/>
      <point x="227.0" y="178"/>
      <point x="323.0" y="0" type="curve"/>
    </contour>
    <contour>
      <point x="313.0" y="533"/>
      <point x="340.0" y="533"/>
      <point x="313.0" y="533" type="curve"/>
      <point x="214.0" y="355"/>
      <point x="115.0" y="178"/>
      <point x="17.0" y="0" type="curve"/>
      <point x="47.0" y="0"/>
      <point x="17.0" y="0"/>
      <point x="47.0" y="0" type="curve"/>
      <point x="145.0" y="178"/>
      <point x="242.0" y="355"/>
      <point x="340.0" y="533" type="curve"/>
    </contour>
  </outline>
</glyph>
<glyph name="y" format="1">
  <advance width="403.0"/>
  <unicode hex="0079"/>
  <outline>
    <contour>
      <point x="218.0" y="-1"/>
      <point x="195.0" y="7"/>
      <point x="218.0" y="7" type="curve"/>
      <point x="56.0" y="533" type="line"/>
      <point x="28.0" y="533"/>
      <point x="56.0" y="533"/>
      <point x="28.0" y="533" type="curve"/>
      <point x="195.0" y="-1" type="line"/>
    </contour>
    <contour>
      <point x="122.0" y="-300"/>
      <point x="94.0" y="-300"/>
      <point x="122.0" y="-300" type="curve"/>
      <point x="386.0" y="533" type="line"/>
      <point x="359.0" y="533"/>
      <point x="386.0" y="533"/>
      <point x="359.0" y="533" type="curve"/>
      <point x="94.0" y="-300" type="line"/>
    </contour>
    <contour>
      <point x="227.0" y="672" type="move" name="top"/>
    </contour>
  </outline>
</glyph>
<glyph name="braceleft" format="1">
  <advance width="199.15"/>
  <unicode hex="007B"/>
  <outline>
    <contour>
      <point x="173.7" y="-102"/>
      <point x="173.7" y="-124"/>
      <point x="173.7" y="-102" type="curve"/>
      <point x="113.7" y="-102"/>
      <point x="103.7" y="-43"/>
      <point x="103.7" y="26" type="curve"/>
      <point x="103.7" y="85"/>
      <point x="103.7" y="144"/>
      <point x="103.7" y="203" type="curve"/>
      <point x="103.7" y="283"/>
      <point x="82.7" y="350"/>
      <point x="11.7" y="350" type="curve"/>
      <point x="11.7" y="327"/>
      <point x="11.7" y="350"/>
      <point x="11.7" y="327" type="curve"/>
      <point x="68.7" y="327"/>
      <point x="81.7" y="271"/>
      <point x="81.7" y="205" type="curve"/>
      <point x="81.7" y="146"/>
      <point x="81.7" y="86"/>
      <point x="81.7" y="27" type="curve"/>
      <point x="81.7" y="-56"/>
      <point x="101.7" y="-124"/>
      <point x="173.7" y="-124" type="curve"/>
    </contour>
    <contour>
      <point x="173.7" y="800"/>
      <point x="173.7" y="778"/>
      <point x="173.7" y="800" type="curve"/>
      <point x="101.7" y="800"/>
      <point x="81.7" y="733"/>
      <point x="81.7" y="650" type="curve"/>
      <point x="81.7" y="590"/>
      <point x="81.7" y="530"/>
      <point x="81.7" y="470" type="curve"/>
      <point x="81.7" y="404"/>
      <point x="68.7" y="350"/>
      <point x="11.7" y="350" type="curve"/>
      <point x="11.7" y="327"/>
      <point x="11.7" y="350"/>
      <point x="11.7" y="327" type="curve"/>
      <point x="82.7" y="327"/>
      <point x="103.7" y="392"/>
      <point x="103.7" y="473" type="curve"/>
      <point x="103.7" y="532"/>
      <point x="103.7" y="591"/>
      <point x="103.7" y="650" type="curve"/>
      <point x="103.7" y="719"/>
      <point x="113.7" y="778"/>
      <point x="173.7" y="778" type="curve"/>
    </contour>
  </outline>
</glyph>
<glyph name="braceright" format="1">
  <advance width="200.15"/>
  <unicode hex="007D"/>
  <outline>
    <contour>
      <point x="25.7" y="-124"/>
      <point x="25.7" y="-102"/>
      <point x="25.7" y="-124" type="curve"/>
      <point x="98.7" y="-124"/>
      <point x="118.7" y="-56"/>
      <point x="118.7" y="27" type="curve"/>
      <point x="118.7" y="86"/>
      <point x="118.7" y="146"/>
      <point x="118.7" y="205" type="curve"/>
      <point x="118.7" y="271"/>
      <point x="130.7" y="327"/>
      <point x="187.7" y="327" type="curve"/>
      <point x="187.7" y="350"/>
      <point x="187.7" y="327"/>
      <point x="187.7" y="350" type="curve"/>
      <point x="117.7" y="350"/>
      <point x="96.7" y="283"/>
      <point x="96.7" y="203" type="curve"/>
      <point x="96.7" y="144"/>
      <point x="96.7" y="85"/>
      <point x="96.7" y="26" type="curve"/>
      <point x="96.7" y="-43"/>
      <point x="86.7" y="-102"/>
      <point x="25.7" y="-102" type="curve"/>
    </contour>
    <contour>
      <point x="25.7" y="778"/>
      <point x="25.7" y="800"/>
      <point x="25.7" y="778" type="curve"/>
      <point x="86.7" y="778"/>
      <point x="96.7" y="719"/>
      <point x="96.7" y="650" type="curve"/>
      <point x="96.7" y="591"/>
      <point x="96.7" y="532"/>
      <point x="96.7" y="473" type="curve"/>
      <point x="96.7" y="392"/>
      <point x="117.7" y="327"/>
      <point x="187.7" y="327" type="curve"/>
      <point x="187.7" y="350"/>
      <point x="187.7" y="327"/>
      <point x="187.7" y="350" type="curve"/>
      <point x="131.7" y="350"/>
      <point x="118.7" y="404"/>
      <point x="118.7" y="470" type="curve"/>
      <point x="118.7" y="530"/>
      <point x="118.7" y="590"/>
      <point x="118.7" y="650" type="curve"/>
      <point x="118.7" y="733"/>
      <point x="98.7" y="800"/>
      <point x="25.7" y="800" type="curve"/>
    </contour>
  </outline>
</glyph>
<glyph name="asciitilde" format="1">
  <advance width="545.975"/>
  <unicode hex="007E"/>
  <outline>
    <contour>
      <point x="429.7" y="344"/>
      <point x="450.7" y="340"/>
      <point x="429.7" y="344" type="curve"/>
      <point x="418.7" y="299"/>
      <point x="411.7" y="241"/>
      <point x="360.7" y="241" type="curve"/>
      <point x="324.7" y="241"/>
      <point x="304.7" y="261"/>
      <point x="281.7" y="290" type="curve"/>
      <point x="255.7" y="322"/>
      <point x="232.7" y="345"/>
      <point x="192.7" y="345" type="curve"/>
      <point x="124.7" y="345"/>
      <point x="107.7" y="292"/>
      <point x="95.7" y="224" type="curve"/>
      <point x="115.7" y="219"/>
      <point x="95.7" y="224"/>
      <point x="115.7" y="219" type="curve"/>
      <point x="125.7" y="271"/>
      <point x="135.7" y="323"/>
      <point x="190.7" y="323" type="curve"/>
      <point x="222.7" y="323"/>
      <point x="239.7" y="304"/>
      <point x="259.7" y="279" type="curve"/>
      <point x="288.7" y="244"/>
      <point x="313.7" y="220"/>
      <point x="358.7" y="220" type="curve"/>
      <point x="424.7" y="220"/>
      <point x="436.7" y="277"/>
      <point x="450.7" y="340" type="curve"/>
    </contour>
  </outline>
</glyph>
<glyph name="exclamdown" format="1">
  <advance width="238.0"/>
  <unicode hex="00A1"/>
  <outline>
    <contour>
      <point x="107.0" y="295" type="line"/>
      <point x="104.0" y="-198" type="line"/>
      <point x="135.0" y="-198" type="line"/>
      <point x="132.0" y="295" type="line"/>
    </contour>
    <contour>
      <point x="101.0" y="512"/>
      <point x="136.0" y="512"/>
      <point x="101.0" y="512" type="curve"/>
      <point x="101.0" y="501"/>
      <point x="108.0" y="495"/>
      <point x="119.0" y="495" type="curve"/>
      <point x="130.0" y="495"/>
      <point x="136.0" y="502"/>
      <point x="136.0" y="512" type="curve"/>
      <point x="101.0" y="512"/>
      <point x="136.0" y="512"/>
      <point x="101.0" y="512" type="curve"/>
      <point x="101.0" y="523"/>
      <point x="108.0" y="529"/>
      <point x="119.0" y="529" type="curve"/>
      <point x="130.0" y="529"/>
      <point x="136.0" y="523"/>
      <point x="136.0" y="512" type="curve"/>
    </contour>
  </outline>
</glyph>
<glyph name="cent" format="1">
  <advance width="480.8"/>
  <unicode hex="00A2"/>
  <outline>
    <contour>
      <point x="260.8" y="-53"/>
      <point x="235.8" y="-53"/>
      <point x="260.8" y="-53" type="curve"/>
      <point x="260.8" y="-13"/>
      <point x="260.8" y="27"/>
      <point x="260.8" y="67" type="curve"/>
      <point x="235.8" y="67"/>
      <point x="260.8" y="67"/>
      <point x="235.8" y="67" type="curve"/>
      <point x="235.8" y="27"/>
      <point x="235.8" y="-13"/>
      <point x="235.8" y="-53" type="curve"/>
    </contour>
    <contour>
      <point x="250.8" y="778"/>
      <point x="274.8" y="778"/>
      <point x="250.8" y="778" type="curve"/>
      <point x="250.8" y="742"/>
      <point x="250.8" y="706"/>
      <point x="250.8" y="670" type="curve"/>
      <point x="274.8" y="670"/>
      <point x="250.8" y="670"/>
      <point x="274.8" y="670" type="curve"/>
      <point x="274.8" y="706"/>
      <point x="274.8" y="742"/>
      <point x="274.8" y="778" type="curve"/>
    </contour>
    <contour>
      <point x="417.8" y="603"/>
      <point x="401.8" y="590"/>
      <point x="417.8" y="603" type="curve"/>
      <point x="372.8" y="655"/>
      <point x="329.8" y="679"/>
      <point x="265.8" y="679" type="curve"/>
      <point x="112.8" y="679"/>
      <point x="60.8" y="540"/>
      <point x="60.8" y="366" type="curve"/>
      <point x="60.8" y="196"/>
      <point x="97.8" y="54"/>
      <point x="246.8" y="54" type="curve"/>
      <point x="320.8" y="54"/>
      <point x="367.8" y="89"/>
      <point x="417.8" y="149" type="curve"/>
      <point x="400.8" y="164"/>
      <point x="417.8" y="149"/>
      <point x="400.8" y="164" type="curve"/>
      <point x="357.8" y="111"/>
      <point x="316.8" y="76"/>
      <point x="248.8" y="76" type="curve"/>
      <point x="116.8" y="76"/>
      <point x="84.8" y="210"/>
      <point x="84.8" y="367" type="curve"/>
      <point x="84.8" y="526"/>
      <point x="129.8" y="656"/>
      <point x="263.8" y="656" type="curve"/>
      <point x="323.8" y="656"/>
      <point x="362.8" y="633"/>
      <point x="401.8" y="590" type="curve"/>
    </contour>
  </outline>
</glyph>
<glyph name="sterling" format="1">
  <advance width="395.825"/>
  <unicode hex="00A3"/>
  <outline>
    <contour>
      <point x="323.5" y="22"/>
      <point x="323.5" y="0"/>
      <point x="323.5" y="22" type="curve"/>
      <point x="226.5" y="22"/>
      <point x="135.5" y="22"/>
      <point x="41.5" y="22" type="curve"/>
      <point x="41.5" y="0"/>
      <point x="41.5" y="22"/>
      <point x="41.5" y="0" type="curve"/>
      <point x="135.5" y="0"/>
      <point x="229.5" y="0"/>
      <point x="323.5" y="0" type="curve"/>
    </contour>
    <contour>
      <point x="290.5" y="388"/>
      <point x="290.5" y="366"/>
      <point x="290.5" y="388" type="curve"/>
      <point x="215.5" y="388"/>
      <point x="140.5" y="388"/>
      <point x="66.5" y="388" type="curve"/>
      <point x="66.5" y="366"/>
      <point x="66.5" y="388"/>
      <point x="66.5" y="366" type="curve"/>
      <point x="140.5" y="366"/>
      <point x="215.5" y="366"/>
      <point x="290.5" y="366" type="curve"/>
    </contour>
    <contour>
      <point x="333.5" y="677"/>
      <point x="318.5" y="662"/>
      <point x="333.5" y="677" type="curve"/>
      <point x="303.5" y="708"/>
      <point x="278.5" y="726"/>
      <point x="237.5" y="726" type="curve"/>
      <point x="91.5" y="726"/>
      <point x="101.5" y="561"/>
      <point x="128.5" y="375" type="curve"/>
      <point x="154.5" y="193"/>
      <point x="183.5" y="22"/>
      <point x="41.5" y="22" type="curve"/>
      <point x="41.5" y="0"/>
      <point x="41.5" y="22"/>
      <point x="41.5" y="0" type="curve"/>
      <point x="205.5" y="0"/>
      <point x="179.5" y="181"/>
      <point x="152.5" y="379" type="curve"/>
      <point x="129.5" y="547"/>
      <point x="114.5" y="703"/>
      <point x="235.5" y="703" type="curve"/>
      <point x="272.5" y="703"/>
      <point x="295.5" y="686"/>
      <point x="318.5" y="662" type="curve"/>
    </contour>
  </outline>
</glyph>
<glyph name="currency" format="1">
  <advance width="558.0"/>
  <unicode hex="00A4"/>
  <outline>
    <contour>
      <point x="188.0" y="310"/>
      <point x="164.0" y="310"/>
      <point x="188.0" y="310" type="curve"/>
      <point x="188.0" y="390"/>
      <point x="209.0" y="458"/>
      <point x="280.0" y="458" type="curve"/>
      <point x="351.0" y="458"/>
      <point x="369.0" y="391"/>
      <point x="369.0" y="310" type="curve"/>
      <point x="369.0" y="227"/>
      <point x="354.0" y="156"/>
      <point x="282.0" y="156" type="curve"/>
      <point x="208.0" y="156"/>
      <point x="188.0" y="226"/>
      <point x="188.0" y="310" type="curve"/>
      <point x="164.0" y="310"/>
      <point x="188.0" y="310"/>
      <point x="164.0" y="310" type="curve"/>
      <point x="164.0" y="212"/>
      <point x="194.0" y="135"/>
      <point x="281.0" y="135" type="curve"/>
      <point x="367.0" y="135"/>
      <point x="394.0" y="215"/>
      <point x="394.0" y="311" type="curve"/>
      <point x="394.0" y="404"/>
      <point x="364.0" y="480"/>
      <point x="282.0" y="480" type="curve"/>
      <point x="196.0" y="480"/>
      <point x="164.0" y="405"/>
      <point x="164.0" y="310" type="curve"/>
    </contour>
    <contour>
      <point x="348.0" y="431" type="line"/>
      <point x="483.0" y="562" type="line"/>
      <point x="462.0" y="583" type="line"/>
      <point x="331.0" y="448" type="line"/>
    </contour>
    <contour>
      <point x="333.0" y="172" type="line"/>
      <point x="464.0" y="37" type="line"/>
      <point x="485.0" y="58" type="line"/>
      <point x="350.0" y="189" type="line"/>
    </contour>
    <contour>
      <point x="207.0" y="190" type="line"/>
      <point x="72.0" y="59" type="line"/>
      <point x="93.0" y="38" type="line"/>
      <point x="224.0" y="173" type="line"/>
    </contour>
    <contour>
      <point x="228.0" y="449" type="line"/>
      <point x="97.0" y="584" type="line"/>
      <point x="76.0" y="563" type="line"/>
      <point x="211.0" y="432" type="line"/>
    </contour>
  </outline>
</glyph>
<glyph name="yen" format="1">
  <advance width="464.0"/>
  <unicode hex="00A5"/>
  <outline>
    <contour>
      <point x="394.0" y="371"/>
      <point x="394.0" y="347"/>
      <point x="394.0" y="371" type="curve"/>
      <point x="344.0" y="371"/>
      <point x="295.0" y="371"/>
      <point x="246.0" y="371" type="curve"/>
      <point x="246.0" y="347"/>
      <point x="246.0" y="371"/>
      <point x="246.0" y="347" type="curve"/>
      <point x="295.0" y="347"/>
      <point x="344.0" y="347"/>
      <point x="394.0" y="347" type="curve"/>
    </contour>
    <contour>
      <point x="226.0" y="371"/>
      <point x="226.0" y="347"/>
      <point x="226.0" y="371" type="curve"/>
      <point x="177.0" y="371"/>
      <point x="129.0" y="371"/>
      <point x="81.0" y="371" type="curve"/>
      <point x="81.0" y="347"/>
      <point x="81.0" y="371"/>
      <point x="81.0" y="347" type="curve"/>
      <point x="129.0" y="347"/>
      <point x="177.0" y="347"/>
      <point x="226.0" y="347" type="curve"/>
    </contour>
    <contour>
      <point x="394.0" y="252"/>
      <point x="394.0" y="228"/>
      <point x="394.0" y="252" type="curve"/>
      <point x="289.0" y="252"/>
      <point x="185.0" y="252"/>
      <point x="81.0" y="252" type="curve"/>
      <point x="81.0" y="228"/>
      <point x="81.0" y="252"/>
      <point x="81.0" y="228" type="curve"/>
      <point x="185.0" y="228"/>
      <point x="289.0" y="228"/>
      <point x="394.0" y="228" type="curve"/>
    </contour>
    <contour>
      <point x="53.0" y="722"/>
      <point x="80.0" y="722"/>
      <point x="53.0" y="722" type="curve"/>
      <point x="108.0" y="594"/>
      <point x="163.0" y="465"/>
      <point x="218.0" y="337" type="curve"/>
      <point x="244.0" y="337"/>
      <point x="218.0" y="337"/>
      <point x="244.0" y="337" type="curve"/>
      <point x="189.0" y="465"/>
      <point x="134.0" y="594"/>
      <point x="80.0" y="722" type="curve"/>
    </contour>
    <contour>
      <point x="391.0" y="722"/>
      <point x="418.0" y="722"/>
      <point x="391.0" y="722" type="curve"/>
      <point x="334.0" y="594"/>
      <point x="276.0" y="465"/>
      <point x="218.0" y="337" type="curve"/>
      <point x="244.0" y="337"/>
      <point x="218.0" y="337"/>
      <point x="244.0" y="337" type="curve"/>
      <point x="302.0" y="465"/>
      <point x="360.0" y="594"/>
      <point x="418.0" y="722" type="curve"/>
    </contour>
    <contour>
      <point x="244.0" y="0"/>
      <point x="218.0" y="0"/>
      <point x="244.0" y="0" type="curve"/>
      <point x="244.0" y="115"/>
      <point x="244.0" y="231"/>
      <point x="244.0" y="346" type="curve"/>
      <point x="218.0" y="346"/>
      <point x="244.0" y="346"/>
      <point x="218.0" y="346" type="curve"/>
      <point x="218.0" y="231"/>
      <point x="218.0" y="115"/>
      <point x="218.0" y="0" type="curve"/>
    </contour>
  </outline>
</glyph>
<glyph name="section" format="1">
  <advance width="384.0"/>
  <unicode hex="00A7"/>
  <outline>
    <contour>
      <point x="298.0" y="709"/>
      <point x="285.0" y="693"/>
      <point x="298.0" y="709" type="curve"/>
      <point x="264.0" y="736"/>
      <point x="237.0" y="752"/>
      <point x="194.0" y="752" type="curve"/>
      <point x="125.0" y="752"/>
      <point x="92.0" y="698"/>
      <point x="92.0" y="627" type="curve"/>
      <point x="92.0" y="561"/>
      <point x="121.0" y="515"/>
      <point x="180.0" y="485" type="curve"/>
      <point x="243.0" y="454"/>
      <point x="297.0" y="429"/>
      <point x="297.0" y="361" type="curve"/>
      <point x="297.0" y="295"/>
      <point x="274.0" y="246"/>
      <point x="212.0" y="228" type="curve"/>
      <point x="226.0" y="211"/>
      <point x="212.0" y="228"/>
      <point x="226.0" y="211" type="curve"/>
      <point x="295.0" y="234"/>
      <point x="321.0" y="288"/>
      <point x="321.0" y="361" type="curve"/>
      <point x="320.0" y="438"/>
      <point x="264.0" y="472"/>
      <point x="192.0" y="505" type="curve"/>
      <point x="141.0" y="530"/>
      <point x="116.0" y="570"/>
      <point x="116.0" y="627" type="curve"/>
      <point x="116.0" y="684"/>
      <point x="137.0" y="730"/>
      <point x="192.0" y="730" type="curve"/>
      <point x="231.0" y="730"/>
      <point x="256.0" y="715"/>
      <point x="285.0" y="693" type="curve"/>
    </contour>
    <contour>
      <point x="158.0" y="513"/>
      <point x="170.0" y="497"/>
      <point x="158.0" y="513" type="curve"/>
      <point x="95.0" y="485"/>
      <point x="68.0" y="436"/>
      <point x="68.0" y="367" type="curve"/>
      <point x="68.0" y="292"/>
      <point x="116.0" y="252"/>
      <point x="186.0" y="220" type="curve"/>
      <point x="240.0" y="193"/>
      <point x="277.0" y="160"/>
      <point x="277.0" y="100" type="curve"/>
      <point x="277.0" y="38"/>
      <point x="252.0" y="-8"/>
      <point x="195.0" y="-8" type="curve"/>
      <point x="149.0" y="-8"/>
      <point x="122.0" y="12"/>
      <point x="90.0" y="44" type="curve"/>
      <point x="74.0" y="28"/>
      <point x="90.0" y="44"/>
      <point x="74.0" y="28" type="curve"/>
      <point x="111.0" y="-9"/>
      <point x="144.0" y="-30"/>
      <point x="194.0" y="-30" type="curve"/>
      <point x="264.0" y="-30"/>
      <point x="301.0" y="24"/>
      <point x="301.0" y="100" type="curve"/>
      <point x="300.0" y="168"/>
      <point x="264.0" y="211"/>
      <point x="201.0" y="240" type="curve"/>
      <point x="140.0" y="270"/>
      <point x="92.0" y="301"/>
      <point x="92.0" y="367" type="curve"/>
      <point x="92.0" y="428"/>
      <point x="114.0" y="472"/>
      <point x="170.0" y="497" type="curve"/>
    </contour>
  </outline>
</glyph>
<glyph name="dieresis" format="1">
  <advance width="380.0"/>
  <unicode hex="00A8"/>
  <outline>
    <contour>
      <point x="145.0" y="669"/>
      <point x="110.0" y="669"/>
      <point x="145.0" y="669" type="curve"/>
      <point x="145.0" y="680"/>
      <point x="138.0" y="686"/>
      <point x="127.0" y="686" type="curve"/>
      <point x="116.0" y="686"/>
      <point x="110.0" y="679"/>
      <point x="110.0" y="669" type="curve"/>
      <point x="145.0" y="669"/>
      <point x="110.0" y="669"/>
      <point x="145.0" y="669" type="curve"/>
      <point x="145.0" y="658"/>
      <point x="138.0" y="652"/>
      <point x="127.0" y="652" type="curve"/>
      <point x="116.0" y="652"/>
      <point x="110.0" y="658"/>
      <point x="110.0" y="669" type="curve"/>
    </contour>
    <contour>
      <point x="229.0" y="669"/>
      <point x="194.0" y="669"/>
      <point x="229.0" y="669" type="curve"/>
      <point x="229.0" y="680"/>
      <point x="222.0" y="686"/>
      <point x="211.0" y="686" type="curve"/>
      <point x="200.0" y="686"/>
      <point x="194.0" y="679"/>
      <point x="194.0" y="669" type="curve"/>
      <point x="229.0" y="669"/>
      <point x="194.0" y="669"/>
      <point x="229.0" y="669" type="curve"/>
      <point x="229.0" y="658"/>
      <point x="222.0" y="652"/>
      <point x="211.0" y="652" type="curve"/>
      <point x="200.0" y="652"/>
      <point x="194.0" y="658"/>
      <point x="194.0" y="669" type="curve"/>
    </contour>
    <contour>
      <point x="170.0" y="655" type="move" name="_top"/>
    </contour>
  </outline>
</glyph>
<glyph name="copyright" format="1">
  <advance width="595.25"/>
  <unicode hex="00A9"/>
  <outline>
    <contour>
      <point x="98.7" y="319"/>
      <point x="73.7" y="319"/>
      <point x="98.7" y="319" type="curve"/>
      <point x="98.7" y="483"/>
      <point x="154.7" y="625"/>
      <point x="300.7" y="625" type="curve"/>
      <point x="443.7" y="625"/>
      <point x="497.7" y="482"/>
      <point x="497.7" y="318" type="curve"/>
      <point x="497.7" y="158"/>
      <point x="445.7" y="17"/>
      <point x="304.7" y="17" type="curve"/>
      <point x="160.7" y="17"/>
      <point x="98.7" y="155"/>
      <point x="98.7" y="319" type="curve"/>
      <point x="73.7" y="319"/>
      <point x="98.7" y="319"/>
      <point x="73.7" y="319" type="curve"/>
      <point x="73.7" y="144"/>
      <point x="145.7" y="-5"/>
      <point x="303.7" y="-5" type="curve"/>
      <point x="458.7" y="-5"/>
      <point x="521.7" y="145"/>
      <point x="521.7" y="319" type="curve"/>
      <point x="521.7" y="495"/>
      <point x="456.7" y="646"/>
      <point x="300.7" y="646" type="curve"/>
      <point x="142.7" y="646"/>
      <point x="73.7" y="496"/>
      <point x="73.7" y="319" type="curve"/>
    </contour>
    <contour>
      <point x="386.7" y="464"/>
      <point x="373.7" y="447"/>
      <point x="386.7" y="464" type="curve"/>
      <point x="361.7" y="486"/>
      <point x="338.7" y="496"/>
      <point x="304.7" y="496" type="curve"/>
      <point x="217.7" y="496"/>
      <point x="185.7" y="417"/>
      <point x="185.7" y="319" type="curve"/>
      <point x="185.7" y="223"/>
      <point x="211.7" y="146"/>
      <point x="295.7" y="146" type="curve"/>
      <point x="337.7" y="146"/>
      <point x="366.7" y="160"/>
      <point x="394.7" y="193" type="curve"/>
      <point x="378.7" y="207"/>
      <point x="394.7" y="193"/>
      <point x="378.7" y="207" type="curve"/>
      <point x="356.7" y="182"/>
      <point x="332.7" y="168"/>
      <point x="296.7" y="168" type="curve"/>
      <point x="225.7" y="168"/>
      <point x="210.7" y="238"/>
      <point x="210.7" y="320" type="curve"/>
      <point x="210.7" y="404"/>
      <point x="229.7" y="474"/>
      <point x="303.7" y="474" type="curve"/>
      <point x="330.7" y="474"/>
      <point x="351.7" y="466"/>
      <point x="373.7" y="447" type="curve"/>
    </contour>
  </outline>
</glyph>
<glyph name="ordfeminine" format="1">
  <advance width="345.0"/>
  <unicode hex="00AA"/>
  <outline>
    <contour>
      <point x="237.0" y="430"/>
      <point x="243.0" y="430"/>
      <point x="252.0" y="430" type="curve"/>
      <point x="252.0" y="523"/>
      <point x="252.0" y="589"/>
      <point x="252.0" y="682" type="curve"/>
      <point x="252.0" y="733"/>
      <point x="220.0" y="766"/>
      <point x="169.0" y="766" type="curve"/>
      <point x="131.0" y="766"/>
      <point x="108.0" y="747"/>
      <point x="84.0" y="718" type="curve"/>
      <point x="89.0" y="712"/>
      <point x="93.0" y="707"/>
      <point x="99.0" y="700" type="curve"/>
      <point x="115.0" y="721"/>
      <point x="133.0" y="744"/>
      <point x="166.0" y="744" type="curve"/>
      <point x="205.0" y="744"/>
      <point x="228.0" y="716"/>
      <point x="228.0" y="675" type="curve"/>
      <point x="228.0" y="584"/>
      <point x="228.0" y="521"/>
      <point x="228.0" y="430" type="curve"/>
    </contour>
    <contour>
      <point x="240.0" y="620"/>
      <point x="239.0" y="625"/>
      <point x="239.0" y="632" type="curve"/>
      <point x="208.0" y="626"/>
      <point x="187.0" y="623"/>
      <point x="156.0" y="617" type="curve"/>
      <point x="105.0" y="606"/>
      <point x="71.0" y="574"/>
      <point x="71.0" y="520" type="curve"/>
      <point x="71.0" y="467"/>
      <point x="100.0" y="429"/>
      <point x="154.0" y="429" type="curve"/>
      <point x="202.0" y="429"/>
      <point x="224.0" y="464"/>
      <point x="246.0" y="508" type="curve"/>
      <point x="242.0" y="512"/>
      <point x="238.0" y="516"/>
      <point x="234.0" y="520" type="curve"/>
      <point x="215.0" y="483"/>
      <point x="199.0" y="451"/>
      <point x="159.0" y="451" type="curve"/>
      <point x="117.0" y="451"/>
      <point x="95.0" y="481"/>
      <point x="95.0" y="522" type="curve"/>
      <point x="95.0" y="563"/>
      <point x="118.0" y="589"/>
      <point x="155.0" y="597" type="curve"/>
      <point x="186.0" y="603"/>
      <point x="209.0" y="607"/>
      <point x="240.0" y="613" type="curve"/>
    </contour>
  </outline>
</glyph>
<glyph name="guillemotleft" format="1">
  <advance width="478.05"/>
  <unicode hex="00AB"/>
  <outline>
    <contour>
      <point x="234.65" y="400"/>
      <point x="234.65" y="376"/>
      <point x="234.65" y="400" type="curve"/>
      <point x="51.65" y="288" type="line"/>
      <point x="51.65" y="264"/>
      <point x="51.65" y="288"/>
      <point x="51.65" y="264" type="curve"/>
      <point x="234.65" y="376" type="line"/>
    </contour>
    <contour>
      <point x="235.65" y="176"/>
      <point x="235.65" y="153"/>
      <point x="235.65" y="176" type="curve"/>
      <point x="51.65" y="288" type="line"/>
      <point x="51.65" y="264"/>
      <point x="51.65" y="288"/>
      <point x="51.65" y="264" type="curve"/>
      <point x="235.65" y="153" type="line"/>
    </contour>
    <contour>
      <point x="393.65" y="400"/>
      <point x="393.65" y="376"/>
      <point x="393.65" y="400" type="curve"/>
      <point x="210.65" y="288" type="line"/>
      <point x="210.65" y="264"/>
      <point x="210.65" y="288"/>
      <point x="210.65" y="264" type="curve"/>
      <point x="393.65" y="376" type="line"/>
    </contour>
    <contour>
      <point x="394.65" y="176"/>
      <point x="394.65" y="153"/>
      <point x="394.65" y="176" type="curve"/>
      <point x="210.65" y="288" type="line"/>
      <point x="210.65" y="264"/>
      <point x="210.65" y="288"/>
      <point x="210.65" y="264" type="curve"/>
      <point x="394.65" y="153" type="line"/>
    </contour>
  </outline>
</glyph>
<glyph name="logicalnot" format="1">
  <advance width="625.0"/>
  <unicode hex="00AC"/>
  <outline>
    <contour>
      <point x="95.0" y="297"/>
      <point x="95.0" y="321"/>
      <point x="95.0" y="297" type="curve"/>
      <point x="95.0" y="297"/>
      <point x="527.0" y="297"/>
      <point x="527.0" y="297" type="curve"/>
      <point x="527.0" y="321"/>
      <point x="527.0" y="297"/>
      <point x="527.0" y="321" type="curve"/>
      <point x="527.0" y="321"/>
      <point x="95.0" y="321"/>
      <point x="95.0" y="321" type="curve"/>
    </contour>
    <contour>
      <point x="527.0" y="153"/>
      <point x="503.0" y="153"/>
      <point x="527.0" y="153" type="curve"/>
      <point x="527.0" y="153"/>
      <point x="527.0" y="321"/>
      <point x="527.0" y="321" type="curve"/>
      <point x="503.0" y="321"/>
      <point x="527.0" y="321"/>
      <point x="503.0" y="321" type="curve"/>
      <point x="503.0" y="321"/>
      <point x="503.0" y="153"/>
      <point x="503.0" y="153" type="curve"/>
    </contour>
  </outline>
</glyph>
<glyph name="registered" format="1">
  <advance width="596.0"/>
  <unicode hex="00AE"/>
  <outline>
    <contour>
      <point x="99.0" y="319"/>
      <point x="74.0" y="319"/>
      <point x="99.0" y="319" type="curve"/>
      <point x="99.0" y="483"/>
      <point x="155.0" y="625"/>
      <point x="301.0" y="625" type="curve"/>
      <point x="444.0" y="625"/>
      <point x="498.0" y="482"/>
      <point x="498.0" y="318" type="curve"/>
      <point x="498.0" y="158"/>
      <point x="446.0" y="17"/>
      <point x="305.0" y="17" type="curve"/>
      <point x="161.0" y="17"/>
      <point x="99.0" y="155"/>
      <point x="99.0" y="319" type="curve"/>
      <point x="74.0" y="319"/>
      <point x="99.0" y="319"/>
      <point x="74.0" y="319" type="curve"/>
      <point x="74.0" y="144"/>
      <point x="146.0" y="-5"/>
      <point x="304.0" y="-5" type="curve"/>
      <point x="459.0" y="-5"/>
      <point x="522.0" y="145"/>
      <point x="522.0" y="319" type="curve"/>
      <point x="522.0" y="495"/>
      <point x="457.0" y="646"/>
      <point x="301.0" y="646" type="curve"/>
      <point x="143.0" y="646"/>
      <point x="74.0" y="496"/>
      <point x="74.0" y="319" type="curve"/>
    </contour>
    <contour>
      <point x="302.0" y="309"/>
      <point x="328.0" y="310"/>
      <point x="302.0" y="309" type="curve"/>
      <point x="323.0" y="255"/>
      <point x="345.0" y="202"/>
      <point x="366.0" y="149" type="curve"/>
      <point x="380.0" y="149"/>
      <point x="375.0" y="149"/>
      <point x="392.0" y="149" type="curve"/>
      <point x="371.0" y="201"/>
      <point x="350.0" y="255"/>
      <point x="328.0" y="310" type="curve"/>
    </contour>
    <contour>
      <point x="253.0" y="149"/>
      <point x="241.0" y="149"/>
      <point x="260.0" y="149" type="curve"/>
      <point x="260.0" y="263"/>
      <point x="260.0" y="377"/>
      <point x="260.0" y="491" type="curve"/>
      <point x="243.0" y="491"/>
      <point x="251.0" y="491"/>
      <point x="235.0" y="491" type="curve"/>
      <point x="235.0" y="377"/>
      <point x="235.0" y="262"/>
      <point x="235.0" y="149" type="curve"/>
    </contour>
    <contour>
      <point x="249.0" y="295"/>
      <point x="249.0" y="317"/>
      <point x="249.0" y="295" type="curve"/>
      <point x="263.0" y="295"/>
      <point x="278.0" y="295"/>
      <point x="292.0" y="295" type="curve"/>
      <point x="348.0" y="295"/>
      <point x="377.0" y="331"/>
      <point x="377.0" y="392" type="curve"/>
      <point x="377.0" y="449"/>
      <point x="351.0" y="491"/>
      <point x="299.0" y="491" type="curve"/>
      <point x="286.0" y="491"/>
      <point x="273.0" y="491"/>
      <point x="260.0" y="491" type="curve"/>
      <point x="235.0" y="469"/>
      <point x="260.0" y="491"/>
      <point x="235.0" y="469" type="curve"/>
      <point x="255.0" y="469"/>
      <point x="275.0" y="469"/>
      <point x="295.0" y="469" type="curve"/>
      <point x="335.0" y="469"/>
      <point x="353.0" y="435"/>
      <point x="353.0" y="390" type="curve"/>
      <point x="353.0" y="345"/>
      <point x="335.0" y="317"/>
      <point x="296.0" y="317" type="curve"/>
      <point x="280.0" y="317"/>
      <point x="264.0" y="317"/>
      <point x="249.0" y="317" type="curve"/>
    </contour>
  </outline>
</glyph>
<glyph name="macron" format="1">
  <advance width="258.45"/>
  <unicode hex="00AF"/>
  <outline>
    <contour>
      <point x="198.85" y="680"/>
      <point x="198.85" y="659"/>
      <point x="198.85" y="680" type="curve"/>
      <point x="146.85" y="680"/>
      <point x="93.85" y="680"/>
      <point x="41.85" y="680" type="curve"/>
      <point x="41.85" y="659"/>
      <point x="41.85" y="680"/>
      <point x="41.85" y="659" type="curve"/>
      <point x="93.85" y="659"/>
      <point x="146.85" y="659"/>
      <point x="198.85" y="659" type="curve"/>
    </contour>
    <contour>
      <point x="121.85" y="659" type="move" name="_top"/>
    </contour>
  </outline>
</glyph>
<glyph name="degree" format="1">
  <advance width="387.25"/>
  <unicode hex="00B0"/>
  <outline>
    <contour>
      <point x="312.075" y="431" type="curve"/>
      <point x="312.075" y="543"/>
      <point x="291.075" y="638"/>
      <point x="194.075" y="638" type="curve"/>
      <point x="97.075" y="638"/>
      <point x="76.075" y="544"/>
      <point x="76.075" y="433" type="curve"/>
      <point x="99.075" y="433"/>
      <point x="76.075" y="433"/>
      <point x="99.075" y="433" type="curve"/>
      <point x="99.075" y="530"/>
      <point x="107.075" y="617"/>
      <point x="191.075" y="617" type="curve"/>
      <point x="276.075" y="617"/>
      <point x="289.075" y="530"/>
      <point x="289.075" y="431" type="curve"/>
      <point x="289.075" y="328"/>
      <point x="281.075" y="238"/>
      <point x="194.075" y="238" type="curve"/>
      <point x="106.075" y="238"/>
      <point x="99.075" y="330"/>
      <point x="99.075" y="433" type="curve"/>
      <point x="76.075" y="433"/>
      <point x="99.075" y="433"/>
      <point x="76.075" y="433" type="curve"/>
      <point x="76.075" y="316"/>
      <point x="93.075" y="217"/>
      <point x="193.075" y="217" type="curve"/>
      <point x="293.075" y="217"/>
      <point x="312.075" y="315"/>
    </contour>
  </outline>
</glyph>
<glyph name="plusminus" format="1">
  <advance width="626.0"/>
  <unicode hex="00B1"/>
  <outline>
    <contour>
      <point x="72.0" y="17" type="line"/>
      <point x="554.0" y="17" type="line"/>
      <point x="554.0" y="41" type="line"/>
      <point x="72.0" y="41" type="line"/>
    </contour>
    <contour>
      <point x="72.0" y="297"/>
      <point x="72.0" y="321"/>
      <point x="72.0" y="297" type="curve"/>
      <point x="72.0" y="297"/>
      <point x="554.0" y="297"/>
      <point x="554.0" y="297" type="curve"/>
      <point x="554.0" y="321"/>
      <point x="554.0" y="297"/>
      <point x="554.0" y="321" type="curve"/>
      <point x="554.0" y="321"/>
      <point x="72.0" y="321"/>
      <point x="72.0" y="321" type="curve"/>
    </contour>
    <contour>
      <point x="325.0" y="18"/>
      <point x="301.0" y="18"/>
      <point x="325.0" y="18" type="curve"/>
      <point x="325.0" y="18"/>
      <point x="325.0" y="588"/>
      <point x="325.0" y="588" type="curve"/>
      <point x="301.0" y="588"/>
      <point x="325.0" y="588"/>
      <point x="301.0" y="588" type="curve"/>
      <point x="301.0" y="588"/>
      <point x="301.0" y="18"/>
      <point x="301.0" y="18" type="curve"/>
    </contour>
  </outline>
</glyph>
<glyph name="twosuperior" format="1">
  <advance width="372.0"/>
  <unicode hex="00B2"/>
  <outline>
    <contour>
      <point x="68.0" y="279"/>
      <point x="68.0" y="301"/>
      <point x="68.0" y="279" type="curve"/>
      <point x="144.0" y="279"/>
      <point x="219.0" y="279"/>
      <point x="294.0" y="279" type="curve"/>
      <point x="294.0" y="290"/>
      <point x="294.0" y="293"/>
      <point x="294.0" y="301" type="curve"/>
      <point x="218.0" y="301"/>
      <point x="143.0" y="301"/>
      <point x="68.0" y="301" type="curve"/>
    </contour>
    <contour>
      <point x="110.0" y="597"/>
      <point x="90.0" y="606"/>
      <point x="110.0" y="597" type="curve"/>
      <point x="126.0" y="638"/>
      <point x="143.0" y="672"/>
      <point x="187.0" y="672" type="curve"/>
      <point x="237.0" y="672"/>
      <point x="258.0" y="629"/>
      <point x="258.0" y="574" type="curve"/>
      <point x="258.0" y="524"/>
      <point x="235.0" y="493"/>
      <point x="204.0" y="454" type="curve"/>
      <point x="159.0" y="403"/>
      <point x="113.0" y="352"/>
      <point x="68.0" y="301" type="curve"/>
      <point x="79.0" y="279"/>
      <point x="68.0" y="301"/>
      <point x="79.0" y="279" type="curve"/>
      <point x="126.0" y="332"/>
      <point x="173.0" y="384"/>
      <point x="220.0" y="437" type="curve"/>
      <point x="255.0" y="482"/>
      <point x="281.0" y="517"/>
      <point x="281.0" y="575" type="curve"/>
      <point x="281.0" y="643"/>
      <point x="250.0" y="694"/>
      <point x="188.0" y="694" type="curve"/>
      <point x="136.0" y="694"/>
      <point x="108.0" y="660"/>
      <point x="90.0" y="606" type="curve"/>
    </contour>
    <contour>
      <point x="200.0" y="694" type="move" name="_top"/>
    </contour>
    <contour>
      <point x="173.0" y="278" type="move" name="_bottom"/>
    </contour>
  </outline>
</glyph>
<glyph name="threesuperior" format="1">
  <advance width="337.0"/>
  <unicode hex="00B3"/>
  <outline>
    <contour>
      <point x="94.0" y="629"/>
      <point x="77.0" y="641"/>
      <point x="94.0" y="629" type="curve"/>
      <point x="109.0" y="651"/>
      <point x="129.0" y="673"/>
      <point x="158.0" y="673" type="curve"/>
      <point x="206.0" y="673"/>
      <point x="231.0" y="638"/>
      <point x="231.0" y="587" type="curve"/>
      <point x="231.0" y="535"/>
      <point x="185.0" y="503"/>
      <point x="128.0" y="498" type="curve"/>
      <point x="128.0" y="479"/>
      <point x="128.0" y="498"/>
      <point x="128.0" y="479" type="curve"/>
      <point x="201.0" y="482"/>
      <point x="255.0" y="520"/>
      <point x="255.0" y="589" type="curve"/>
      <point x="255.0" y="652"/>
      <point x="222.0" y="694"/>
      <point x="161.0" y="694" type="curve"/>
      <point x="125.0" y="694"/>
      <point x="95.0" y="670"/>
      <point x="77.0" y="641" type="curve"/>
    </contour>
    <contour>
      <point x="73.0" y="308"/>
      <point x="85.0" y="324"/>
      <point x="73.0" y="308" type="curve"/>
      <point x="96.0" y="287"/>
      <point x="122.0" y="275"/>
      <point x="153.0" y="275" type="curve"/>
      <point x="223.0" y="271"/>
      <point x="267.0" y="316"/>
      <point x="266.0" y="387" type="curve"/>
      <point x="266.0" y="458"/>
      <point x="205.0" y="488"/>
      <point x="128.0" y="491" type="curve"/>
      <point x="128.0" y="475"/>
      <point x="128.0" y="491"/>
      <point x="128.0" y="475" type="curve"/>
      <point x="194.0" y="470"/>
      <point x="242.0" y="440"/>
      <point x="242.0" y="386" type="curve"/>
      <point x="241.0" y="331"/>
      <point x="210.0" y="294"/>
      <point x="156.0" y="296" type="curve"/>
      <point x="129.0" y="296"/>
      <point x="106.0" y="307"/>
      <point x="85.0" y="324" type="curve"/>
    </contour>
    <contour>
      <point x="184.0" y="694" type="move" name="_top"/>
    </contour>
    <contour>
      <point x="166.0" y="275" type="move" name="_bottom"/>
    </contour>
  </outline>
</glyph>
<glyph name="acute" format="1">
  <advance width="177.1"/>
  <unicode hex="00B4"/>
  <outline>
    <contour>
      <point x="46.0" y="590" type="line"/>
      <point x="119.0" y="756" type="line"/>
      <point x="88.0" y="756" type="line"/>
      <point x="22.0" y="590" type="line"/>
    </contour>
    <contour>
      <point x="35.0" y="590" type="move" name="_top"/>
    </contour>
  </outline>
</glyph>
<glyph name="paragraph" format="1">
  <advance width="553.0"/>
  <unicode hex="00B6"/>
  <outline>
    <contour>
      <point x="313.0" y="700"/>
      <point x="313.0" y="722"/>
      <point x="313.0" y="700" type="curve"/>
      <point x="445.0" y="700"/>
      <point x="313.0" y="700"/>
      <point x="445.0" y="700" type="curve"/>
      <point x="445.0" y="722"/>
      <point x="445.0" y="700"/>
      <point x="445.0" y="722" type="curve"/>
      <point x="401.0" y="722"/>
      <point x="357.0" y="722"/>
      <point x="313.0" y="722" type="curve"/>
    </contour>
    <contour>
      <point x="308.0" y="345"/>
      <point x="316.0" y="326"/>
      <point x="308.0" y="346" type="curve"/>
      <point x="274.0" y="320"/>
      <point x="247.0" y="303"/>
      <point x="204.0" y="303" type="curve"/>
      <point x="111.0" y="303"/>
      <point x="72.0" y="388"/>
      <point x="72.0" y="493" type="curve"/>
      <point x="72.0" y="608"/>
      <point x="119.0" y="700"/>
      <point x="224.0" y="700" type="curve"/>
      <point x="253.0" y="700"/>
      <point x="282.0" y="700"/>
      <point x="311.0" y="700" type="curve"/>
      <point x="311.0" y="722"/>
      <point x="311.0" y="700"/>
      <point x="311.0" y="722" type="curve"/>
      <point x="281.0" y="722"/>
      <point x="251.0" y="722"/>
      <point x="221.0" y="722" type="curve"/>
      <point x="104.0" y="722"/>
      <point x="48.0" y="621"/>
      <point x="48.0" y="494" type="curve"/>
      <point x="48.0" y="369"/>
      <point x="97.0" y="282"/>
      <point x="205.0" y="280" type="curve"/>
      <point x="248.0" y="280"/>
      <point x="284.0" y="300"/>
      <point x="316.0" y="325" type="curve"/>
    </contour>
    <contour>
      <point x="326.0" y="0"/>
      <point x="302.0" y="0"/>
      <point x="326.0" y="0" type="curve"/>
      <point x="326.0" y="241"/>
      <point x="326.0" y="481"/>
      <point x="326.0" y="722" type="curve"/>
      <point x="302.0" y="722"/>
      <point x="326.0" y="722"/>
      <point x="302.0" y="722" type="curve"/>
      <point x="302.0" y="481"/>
      <point x="302.0" y="241"/>
      <point x="302.0" y="0" type="curve"/>
    </contour>
    <contour>
      <point x="452.0" y="0"/>
      <point x="428.0" y="0"/>
      <point x="452.0" y="0" type="curve"/>
      <point x="452.0" y="241"/>
      <point x="452.0" y="481"/>
      <point x="452.0" y="722" type="curve"/>
      <point x="428.0" y="722"/>
      <point x="452.0" y="722"/>
      <point x="428.0" y="722" type="curve"/>
      <point x="428.0" y="481"/>
      <point x="428.0" y="241"/>
      <point x="428.0" y="0" type="curve"/>
    </contour>
  </outline>
</glyph>
<glyph name="cedilla" format="1">
  <advance width="265.0"/>
  <unicode hex="00B8"/>
  <outline>
    <contour>
      <point x="154.0" y="17"/>
      <point x="172.0" y="2"/>
      <point x="154.0" y="17" type="curve"/>
      <point x="143.0" y="-10"/>
      <point x="133.0" y="-37"/>
      <point x="123.0" y="-63" type="curve"/>
      <point x="140.0" y="-81"/>
      <point x="123.0" y="-63"/>
      <point x="140.0" y="-81" type="curve"/>
      <point x="150.0" y="-53"/>
      <point x="162.0" y="-25"/>
      <point x="172.0" y="2" type="curve"/>
    </contour>
    <contour>
      <point x="140.0" y="-81"/>
      <point x="123.0" y="-63"/>
      <point x="140.0" y="-81" type="curve"/>
      <point x="149.0" y="-72"/>
      <point x="156.0" y="-68"/>
      <point x="169.0" y="-68" type="curve"/>
      <point x="196.0" y="-68"/>
      <point x="202.0" y="-94"/>
      <point x="202.0" y="-125" type="curve"/>
      <point x="202.0" y="-157"/>
      <point x="189.0" y="-180"/>
      <point x="160.0" y="-180" type="curve"/>
      <point x="141.0" y="-180"/>
      <point x="127.0" y="-176"/>
      <point x="113.0" y="-163" type="curve"/>
      <point x="103.0" y="-180"/>
      <point x="113.0" y="-163"/>
      <point x="103.0" y="-180" type="curve"/>
      <point x="120.0" y="-195"/>
      <point x="136.0" y="-202"/>
      <point x="159.0" y="-202" type="curve"/>
      <point x="203.0" y="-202"/>
      <point x="227.0" y="-170"/>
      <point x="227.0" y="-125" type="curve"/>
      <point x="227.0" y="-81"/>
      <point x="210.0" y="-46"/>
      <point x="171.0" y="-46" type="curve"/>
      <point x="152.0" y="-46"/>
      <point x="139.0" y="-52"/>
      <point x="123.0" y="-63" type="curve"/>
    </contour>
    <contour>
      <point x="172.0" y="2" type="move" name="_bottom"/>
    </contour>
  </outline>
</glyph>
<glyph name="onesuperior" format="1">
  <advance width="251.0"/>
  <unicode hex="00B9"/>
  <outline>
    <contour>
      <point x="52.0" y="557" type="line"/>
      <point x="151.0" y="676" type="line"/>
      <point x="129.0" y="685" type="line"/>
      <point x="34.0" y="572" type="line"/>
    </contour>
    <contour>
      <point x="145.0" y="279"/>
      <point x="143.0" y="279"/>
      <point x="153.0" y="279" type="curve"/>
      <point x="153.0" y="685" type="line"/>
      <point x="129.0" y="685" type="line"/>
      <point x="129.0" y="279" type="line"/>
    </contour>
    <contour>
      <point x="142.0" y="682" type="move" name="_top"/>
    </contour>
    <contour>
      <point x="143.0" y="284" type="move" name="_bottom"/>
    </contour>
  </outline>
</glyph>
<glyph name="ordmasculine" format="1">
  <advance width="329.0"/>
  <unicode hex="00BA"/>
  <outline>
    <contour>
      <point x="88.0" y="606" type="curve"/>
      <point x="88.0" y="683"/>
      <point x="103.0" y="744"/>
      <point x="167.0" y="744" type="curve"/>
      <point x="228.0" y="744"/>
      <point x="241.0" y="681"/>
      <point x="241.0" y="604" type="curve"/>
      <point x="241.0" y="518"/>
      <point x="228.0" y="447"/>
      <point x="170.0" y="447" type="curve"/>
      <point x="100.0" y="447"/>
      <point x="88.0" y="520"/>
      <point x="88.0" y="606" type="curve"/>
      <point x="64.0" y="606"/>
      <point x="88.0" y="606"/>
      <point x="64.0" y="606" type="curve"/>
      <point x="64.0" y="506"/>
      <point x="84.0" y="425"/>
      <point x="169.0" y="425" type="curve"/>
      <point x="246.0" y="425"/>
      <point x="265.0" y="505"/>
      <point x="265.0" y="604" type="curve"/>
      <point x="265.0" y="694"/>
      <point x="246.0" y="765"/>
      <point x="168.0" y="765" type="curve"/>
      <point x="85.0" y="765"/>
      <point x="64.0" y="694"/>
      <point x="64.0" y="606" type="curve"/>
      <point x="88.0" y="606"/>
      <point x="64.0" y="606"/>
    </contour>
  </outline>
</glyph>
<glyph name="guillemotright" format="1">
  <advance width="496.05"/>
  <unicode hex="00BB"/>
  <outline>
    <contour>
      <point x="255.3" y="400"/>
      <point x="255.3" y="376"/>
      <point x="255.3" y="400" type="curve"/>
      <point x="438.3" y="288" type="line"/>
      <point x="438.3" y="264"/>
      <point x="438.3" y="288"/>
      <point x="438.3" y="264" type="curve"/>
      <point x="255.3" y="376" type="line"/>
    </contour>
    <contour>
      <point x="254.3" y="176"/>
      <point x="254.3" y="153"/>
      <point x="254.3" y="176" type="curve"/>
      <point x="438.3" y="288" type="line"/>
      <point x="438.3" y="264"/>
      <point x="438.3" y="288"/>
      <point x="438.3" y="264" type="curve"/>
      <point x="254.3" y="153" type="line"/>
    </contour>
    <contour>
      <point x="96.3" y="400"/>
      <point x="96.3" y="376"/>
      <point x="96.3" y="400" type="curve"/>
      <point x="279.3" y="288" type="line"/>
      <point x="279.3" y="264"/>
      <point x="279.3" y="288"/>
      <point x="279.3" y="264" type="curve"/>
      <point x="96.3" y="376" type="line"/>
    </contour>
    <contour>
      <point x="95.3" y="176"/>
      <point x="95.3" y="153"/>
      <point x="95.3" y="176" type="curve"/>
      <point x="279.3" y="288" type="line"/>
      <point x="279.3" y="264"/>
      <point x="279.3" y="288"/>
      <point x="279.3" y="264" type="curve"/>
      <point x="95.3" y="153" type="line"/>
    </contour>
  </outline>
</glyph>
<glyph name="onequarter" format="1">
  <advance width="669.0"/>
  <unicode hex="00BC"/>
  <outline>
    <contour>
      <point x="188.0" y="-93" type="line"/>
      <point x="487.0" y="757" type="line"/>
      <point x="459.0" y="757" type="line"/>
      <point x="161.0" y="-93" type="line"/>
    </contour>
    <contour>
      <point x="53.0" y="635" type="line"/>
      <point x="152.0" y="754" type="line"/>
      <point x="130.0" y="763" type="line"/>
      <point x="35.0" y="650" type="line"/>
    </contour>
    <contour>
      <point x="146.0" y="357"/>
      <point x="144.0" y="357"/>
      <point x="154.0" y="357" type="curve"/>
      <point x="154.0" y="763" type="line"/>
      <point x="130.0" y="763" type="line"/>
      <point x="130.0" y="357" type="line"/>
    </contour>
    <contour>
      <point x="631.0" y="45" type="line"/>
      <point x="351.0" y="45" type="line"/>
      <point x="351.0" y="25" type="line"/>
      <point x="631.0" y="25" type="line"/>
    </contour>
    <contour>
      <point x="365.0" y="25" type="line"/>
      <point x="543.0" y="331" type="line"/>
      <point x="520.0" y="340" type="line"/>
      <point x="351.0" y="45" type="line"/>
    </contour>
    <contour>
      <point x="543.0" y="-92" type="line"/>
      <point x="543.0" y="340" type="line"/>
      <point x="520.0" y="340" type="line"/>
      <point x="520.0" y="-92" type="line"/>
    </contour>
  </outline>
</glyph>
<glyph name="onehalf" format="1">
  <advance width="689.0"/>
  <unicode hex="00BD"/>
  <outline>
    <contour>
      <point x="200.0" y="-93" type="line"/>
      <point x="499.0" y="757" type="line"/>
      <point x="471.0" y="757" type="line"/>
      <point x="173.0" y="-93" type="line"/>
    </contour>
    <contour>
      <point x="53.0" y="635" type="line"/>
      <point x="152.0" y="754" type="line"/>
      <point x="130.0" y="763" type="line"/>
      <point x="35.0" y="650" type="line"/>
    </contour>
    <contour>
      <point x="146.0" y="357"/>
      <point x="144.0" y="357"/>
      <point x="154.0" y="357" type="curve"/>
      <point x="154.0" y="763" type="line"/>
      <point x="130.0" y="763" type="line"/>
      <point x="130.0" y="357" type="line"/>
    </contour>
    <contour>
      <point x="417.0" y="-92"/>
      <point x="417.0" y="-70"/>
      <point x="417.0" y="-92" type="curve"/>
      <point x="493.0" y="-92"/>
      <point x="568.0" y="-92"/>
      <point x="643.0" y="-92" type="curve"/>
      <point x="643.0" y="-81"/>
      <point x="643.0" y="-78"/>
      <point x="643.0" y="-70" type="curve"/>
      <point x="567.0" y="-70"/>
      <point x="492.0" y="-70"/>
      <point x="417.0" y="-70" type="curve"/>
    </contour>
    <contour>
      <point x="459.0" y="226"/>
      <point x="439.0" y="235"/>
      <point x="459.0" y="226" type="curve"/>
      <point x="475.0" y="267"/>
      <point x="492.0" y="301"/>
      <point x="536.0" y="301" type="curve"/>
      <point x="586.0" y="301"/>
      <point x="607.0" y="258"/>
      <point x="607.0" y="203" type="curve"/>
      <point x="607.0" y="153"/>
      <point x="584.0" y="122"/>
      <point x="553.0" y="83" type="curve"/>
      <point x="508.0" y="32"/>
      <point x="462.0" y="-19"/>
      <point x="417.0" y="-70" type="curve"/>
      <point x="428.0" y="-92"/>
      <point x="417.0" y="-70"/>
      <point x="428.0" y="-92" type="curve"/>
      <point x="475.0" y="-39"/>
      <point x="522.0" y="13"/>
      <point x="569.0" y="66" type="curve"/>
      <point x="604.0" y="111"/>
      <point x="630.0" y="146"/>
      <point x="630.0" y="204" type="curve"/>
      <point x="630.0" y="272"/>
      <point x="599.0" y="323"/>
      <point x="537.0" y="323" type="curve"/>
      <point x="485.0" y="323"/>
      <point x="457.0" y="289"/>
      <point x="439.0" y="235" type="curve"/>
    </contour>
  </outline>
</glyph>
<glyph name="threequarters" format="1">
  <advance width="702.0"/>
  <unicode hex="00BE"/>
  <outline>
    <contour>
      <point x="222.0" y="-93" type="line"/>
      <point x="521.0" y="757" type="line"/>
      <point x="493.0" y="757" type="line"/>
      <point x="195.0" y="-93" type="line"/>
    </contour>
    <contour>
      <point x="76.0" y="695"/>
      <point x="59.0" y="707"/>
      <point x="76.0" y="695" type="curve"/>
      <point x="91.0" y="717"/>
      <point x="111.0" y="739"/>
      <point x="140.0" y="739" type="curve"/>
      <point x="188.0" y="739"/>
      <point x="213.0" y="704"/>
      <point x="213.0" y="653" type="curve"/>
      <point x="213.0" y="601"/>
      <point x="167.0" y="569"/>
      <point x="110.0" y="564" type="curve"/>
      <point x="110.0" y="545"/>
      <point x="110.0" y="564"/>
      <point x="110.0" y="545" type="curve"/>
      <point x="183.0" y="548"/>
      <point x="237.0" y="586"/>
      <point x="237.0" y="655" type="curve"/>
      <point x="237.0" y="718"/>
      <point x="204.0" y="760"/>
      <point x="143.0" y="760" type="curve"/>
      <point x="107.0" y="760"/>
      <point x="77.0" y="736"/>
      <point x="59.0" y="707" type="curve"/>
    </contour>
    <contour>
      <point x="55.0" y="374"/>
      <point x="67.0" y="390"/>
      <point x="55.0" y="374" type="curve"/>
      <point x="78.0" y="353"/>
      <point x="104.0" y="341"/>
      <point x="135.0" y="341" type="curve"/>
      <point x="205.0" y="337"/>
      <point x="249.0" y="382"/>
      <point x="248.0" y="453" type="curve"/>
      <point x="248.0" y="524"/>
      <point x="187.0" y="554"/>
      <point x="110.0" y="557" type="curve"/>
      <point x="110.0" y="541"/>
      <point x="110.0" y="557"/>
      <point x="110.0" y="541" type="curve"/>
      <point x="176.0" y="536"/>
      <point x="224.0" y="506"/>
      <point x="224.0" y="452" type="curve"/>
      <point x="223.0" y="397"/>
      <point x="192.0" y="360"/>
      <point x="138.0" y="362" type="curve"/>
      <point x="111.0" y="362"/>
      <point x="88.0" y="373"/>
      <point x="67.0" y="390" type="curve"/>
    </contour>
    <contour>
      <point x="665.0" y="45" type="line"/>
      <point x="385.0" y="45" type="line"/>
      <point x="385.0" y="25" type="line"/>
      <point x="665.0" y="25" type="line"/>
    </contour>
    <contour>
      <point x="399.0" y="25" type="line"/>
      <point x="577.0" y="331" type="line"/>
      <point x="554.0" y="340" type="line"/>
      <point x="385.0" y="45" type="line"/>
    </contour>
    <contour>
      <point x="577.0" y="-92" type="line"/>
      <point x="577.0" y="340" type="line"/>
      <point x="554.0" y="340" type="line"/>
      <point x="554.0" y="-92" type="line"/>
    </contour>
  </outline>
</glyph>
<glyph name="questiondown" format="1">
  <advance width="391.0"/>
  <unicode hex="00BF"/>
  <outline>
    <contour>
      <point x="226.0" y="374"/>
      <point x="202.0" y="374"/>
      <point x="226.0" y="374" type="curve"/>
      <point x="226.0" y="411"/>
      <point x="226.0" y="450"/>
      <point x="226.0" y="487" type="curve"/>
      <point x="202.0" y="487"/>
      <point x="226.0" y="487"/>
      <point x="202.0" y="487" type="curve"/>
      <point x="202.0" y="450"/>
      <point x="202.0" y="411"/>
      <point x="202.0" y="374" type="curve"/>
    </contour>
    <contour>
      <point x="315.0" y="87" type="line"/>
      <point x="296.0" y="51"/>
      <point x="264.0" y="21"/>
      <point x="213.0" y="21" type="curve"/>
      <point x="126.0" y="21"/>
      <point x="90.0" y="96"/>
      <point x="90.0" y="189" type="curve"/>
      <point x="90.0" y="290"/>
      <point x="129.0" y="374"/>
      <point x="221.0" y="374" type="curve"/>
      <point x="221.0" y="397"/>
      <point x="221.0" y="374"/>
      <point x="221.0" y="397" type="curve"/>
      <point x="115.0" y="397"/>
      <point x="65.0" y="304"/>
      <point x="65.0" y="189" type="curve"/>
      <point x="65.0" y="84"/>
      <point x="113.0" y="-2"/>
      <point x="211.0" y="-2" type="curve"/>
      <point x="276.0" y="-2"/>
      <point x="310.0" y="33"/>
      <point x="333.0" y="75" type="curve"/>
    </contour>
    <contour>
      <point x="197.0" y="696"/>
      <point x="232.0" y="696"/>
      <point x="197.0" y="696" type="curve"/>
      <point x="197.0" y="685"/>
      <point x="204.0" y="679"/>
      <point x="215.0" y="679" type="curve"/>
      <point x="226.0" y="679"/>
      <point x="232.0" y="686"/>
      <point x="232.0" y="696" type="curve"/>
      <point x="197.0" y="696"/>
      <point x="232.0" y="696"/>
      <point x="197.0" y="696" type="curve"/>
      <point x="197.0" y="707"/>
      <point x="204.0" y="713"/>
      <point x="215.0" y="713" type="curve"/>
      <point x="226.0" y="713"/>
      <point x="232.0" y="707"/>
      <point x="232.0" y="696" type="curve"/>
    </contour>
  </outline>
</glyph>
<glyph name="Aacute" format="1">
  <advance width="457.0"/>
  <unicode hex="00C1"/>
  <outline>
    <contour>
      <point x="346.0" y="277"/>
      <point x="354.0" y="254"/>
      <point x="346.0" y="277" type="curve"/>
      <point x="265.0" y="277"/>
      <point x="185.0" y="277"/>
      <point x="104.0" y="277" type="curve"/>
      <point x="94.0" y="254"/>
      <point x="104.0" y="277"/>
      <point x="94.0" y="254" type="curve"/>
      <point x="181.0" y="254"/>
      <point x="267.0" y="254"/>
      <point x="354.0" y="254" type="curve"/>
    </contour>
    <contour>
      <point x="431.0" y="0"/>
      <point x="406.0" y="0"/>
      <point x="431.0" y="0" type="curve"/>
      <point x="368.0" y="241"/>
      <point x="305.0" y="481"/>
      <point x="242.0" y="722" type="curve"/>
      <point x="220.0" y="722"/>
      <point x="242.0" y="722"/>
      <point x="220.0" y="722" type="curve"/>
      <point x="282.0" y="481"/>
      <point x="344.0" y="241"/>
      <point x="406.0" y="0" type="curve"/>
    </contour>
    <contour>
      <point x="33.0" y="0"/>
      <point x="6.0" y="0"/>
      <point x="33.0" y="0" type="curve"/>
      <point x="102.0" y="241"/>
      <point x="171.0" y="481"/>
      <point x="240.0" y="722" type="curve"/>
      <point x="218.0" y="722"/>
      <point x="240.0" y="722"/>
      <point x="218.0" y="722" type="curve"/>
      <point x="148.0" y="481"/>
      <point x="77.0" y="241"/>
      <point x="6.0" y="0" type="curve"/>
    </contour>
    <contour>
      <point x="241.0" y="825" type="line"/>
      <point x="314.0" y="991" type="line"/>
      <point x="283.0" y="991" type="line"/>
      <point x="217.0" y="825" type="line"/>
    </contour>
  </outline>
</glyph>
<glyph name="Atilde" format="1">
  <advance width="457.0"/>
  <unicode hex="00C3"/>
  <outline>
    <contour>
      <point x="346.0" y="277"/>
      <point x="354.0" y="254"/>
      <point x="346.0" y="277" type="curve"/>
      <point x="265.0" y="277"/>
      <point x="185.0" y="277"/>
      <point x="104.0" y="277" type="curve"/>
      <point x="94.0" y="254"/>
      <point x="104.0" y="277"/>
      <point x="94.0" y="254" type="curve"/>
      <point x="181.0" y="254"/>
      <point x="267.0" y="254"/>
      <point x="354.0" y="254" type="curve"/>
    </contour>
    <contour>
      <point x="431.0" y="0"/>
      <point x="406.0" y="0"/>
      <point x="431.0" y="0" type="curve"/>
      <point x="368.0" y="241"/>
      <point x="305.0" y="481"/>
      <point x="242.0" y="722" type="curve"/>
      <point x="220.0" y="722"/>
      <point x="242.0" y="722"/>
      <point x="220.0" y="722" type="curve"/>
      <point x="282.0" y="481"/>
      <point x="344.0" y="241"/>
      <point x="406.0" y="0" type="curve"/>
    </contour>
    <contour>
      <point x="33.0" y="0"/>
      <point x="6.0" y="0"/>
      <point x="33.0" y="0" type="curve"/>
      <point x="102.0" y="241"/>
      <point x="171.0" y="481"/>
      <point x="240.0" y="722" type="curve"/>
      <point x="218.0" y="722"/>
      <point x="240.0" y="722"/>
      <point x="218.0" y="722" type="curve"/>
      <point x="148.0" y="481"/>
      <point x="77.0" y="241"/>
      <point x="6.0" y="0" type="curve"/>
    </contour>
    <contour>
      <point x="346.0" y="949"/>
      <point x="367.0" y="945"/>
      <point x="346.0" y="949" type="curve"/>
      <point x="337.0" y="899"/>
      <point x="332.0" y="846"/>
      <point x="298.0" y="846" type="curve"/>
      <point x="268.0" y="846"/>
      <point x="255.0" y="868"/>
      <point x="239.0" y="895" type="curve"/>
      <point x="220.0" y="925"/>
      <point x="205.0" y="950"/>
      <point x="170.0" y="950" type="curve"/>
      <point x="113.0" y="950"/>
      <point x="105.0" y="894"/>
      <point x="96.0" y="831" type="curve"/>
      <point x="116.0" y="825"/>
      <point x="96.0" y="831"/>
      <point x="116.0" y="825" type="curve"/>
      <point x="124.0" y="878"/>
      <point x="128.0" y="928"/>
      <point x="170.0" y="928" type="curve"/>
      <point x="198.0" y="928"/>
      <point x="207.0" y="905"/>
      <point x="221.0" y="881" type="curve"/>
      <point x="241.0" y="849"/>
      <point x="259.0" y="825"/>
      <point x="296.0" y="825" type="curve"/>
      <point x="353.0" y="825"/>
      <point x="356.0" y="884"/>
      <point x="367.0" y="945" type="curve"/>
    </contour>
  </outline>
</glyph>
<glyph name="Adieresis" format="1">
  <advance width="457.0"/>
  <unicode hex="00C4"/>
  <outline>
    <contour>
      <point x="346.0" y="277"/>
      <point x="354.0" y="254"/>
      <point x="346.0" y="277" type="curve"/>
      <point x="265.0" y="277"/>
      <point x="185.0" y="277"/>
      <point x="104.0" y="277" type="curve"/>
      <point x="94.0" y="254"/>
      <point x="104.0" y="277"/>
      <point x="94.0" y="254" type="curve"/>
      <point x="181.0" y="254"/>
      <point x="267.0" y="254"/>
      <point x="354.0" y="254" type="curve"/>
    </contour>
    <contour>
      <point x="431.0" y="0"/>
      <point x="406.0" y="0"/>
      <point x="431.0" y="0" type="curve"/>
      <point x="368.0" y="241"/>
      <point x="305.0" y="481"/>
      <point x="242.0" y="722" type="curve"/>
      <point x="220.0" y="722"/>
      <point x="242.0" y="722"/>
      <point x="220.0" y="722" type="curve"/>
      <point x="282.0" y="481"/>
      <point x="344.0" y="241"/>
      <point x="406.0" y="0" type="curve"/>
    </contour>
    <contour>
      <point x="33.0" y="0"/>
      <point x="6.0" y="0"/>
      <point x="33.0" y="0" type="curve"/>
      <point x="102.0" y="241"/>
      <point x="171.0" y="481"/>
      <point x="240.0" y="722" type="curve"/>
      <point x="218.0" y="722"/>
      <point x="240.0" y="722"/>
      <point x="218.0" y="722" type="curve"/>
      <point x="148.0" y="481"/>
      <point x="77.0" y="241"/>
      <point x="6.0" y="0" type="curve"/>
    </contour>
    <contour>
      <point x="205.0" y="839"/>
      <point x="170.0" y="839"/>
      <point x="205.0" y="839" type="curve"/>
      <point x="205.0" y="850"/>
      <point x="198.0" y="856"/>
      <point x="187.0" y="856" type="curve"/>
      <point x="176.0" y="856"/>
      <point x="170.0" y="849"/>
      <point x="170.0" y="839" type="curve"/>
      <point x="205.0" y="839"/>
      <point x="170.0" y="839"/>
      <point x="205.0" y="839" type="curve"/>
      <point x="205.0" y="828"/>
      <point x="198.0" y="822"/>
      <point x="187.0" y="822" type="curve"/>
      <point x="176.0" y="822"/>
      <point x="170.0" y="828"/>
      <point x="170.0" y="839" type="curve"/>
    </contour>
    <contour>
      <point x="289.0" y="839"/>
      <point x="254.0" y="839"/>
      <point x="289.0" y="839" type="curve"/>
      <point x="289.0" y="850"/>
      <point x="282.0" y="856"/>
      <point x="271.0" y="856" type="curve"/>
      <point x="260.0" y="856"/>
      <point x="254.0" y="849"/>
      <point x="254.0" y="839" type="curve"/>
      <point x="289.0" y="839"/>
      <point x="254.0" y="839"/>
      <point x="289.0" y="839" type="curve"/>
      <point x="289.0" y="828"/>
      <point x="282.0" y="822"/>
      <point x="271.0" y="822" type="curve"/>
      <point x="260.0" y="822"/>
      <point x="254.0" y="828"/>
      <point x="254.0" y="839" type="curve"/>
    </contour>
  </outline>
</glyph>
<glyph name="Aring" format="1">
  <advance width="457.0"/>
  <unicode hex="00C5"/>
  <outline>
    <contour>
      <point x="346.0" y="277"/>
      <point x="354.0" y="254"/>
      <point x="346.0" y="277" type="curve"/>
      <point x="265.0" y="277"/>
      <point x="185.0" y="277"/>
      <point x="104.0" y="277" type="curve"/>
      <point x="94.0" y="254"/>
      <point x="104.0" y="277"/>
      <point x="94.0" y="254" type="curve"/>
      <point x="181.0" y="254"/>
      <point x="267.0" y="254"/>
      <point x="354.0" y="254" type="curve"/>
    </contour>
    <contour>
      <point x="431.0" y="0"/>
      <point x="406.0" y="0"/>
      <point x="431.0" y="0" type="curve"/>
      <point x="368.0" y="241"/>
      <point x="305.0" y="481"/>
      <point x="242.0" y="722" type="curve"/>
      <point x="220.0" y="722"/>
      <point x="242.0" y="722"/>
      <point x="220.0" y="722" type="curve"/>
      <point x="282.0" y="481"/>
      <point x="344.0" y="241"/>
      <point x="406.0" y="0" type="curve"/>
    </contour>
    <contour>
      <point x="33.0" y="0"/>
      <point x="6.0" y="0"/>
      <point x="33.0" y="0" type="curve"/>
      <point x="102.0" y="241"/>
      <point x="171.0" y="481"/>
      <point x="240.0" y="722" type="curve"/>
      <point x="218.0" y="722"/>
      <point x="240.0" y="722"/>
      <point x="218.0" y="722" type="curve"/>
      <point x="148.0" y="481"/>
      <point x="77.0" y="241"/>
      <point x="6.0" y="0" type="curve"/>
    </contour>
    <contour>
      <point x="147.0" y="940"/>
      <point x="170.0" y="940"/>
      <point x="147.0" y="940" type="curve"/>
      <point x="147.0" y="875"/>
      <point x="171.0" y="824"/>
      <point x="230.0" y="824" type="curve"/>
      <point x="290.0" y="824"/>
      <point x="315.0" y="874"/>
      <point x="315.0" y="940" type="curve"/>
      <point x="315.0" y="1006"/>
      <point x="289.0" y="1057"/>
      <point x="228.0" y="1057" type="curve"/>
      <point x="170.0" y="1057"/>
      <point x="147.0" y="1006"/>
      <point x="147.0" y="940" type="curve"/>
      <point x="170.0" y="940"/>
      <point x="147.0" y="940"/>
      <point x="170.0" y="940" type="curve"/>
      <point x="170.0" y="992"/>
      <point x="183.0" y="1035"/>
      <point x="228.0" y="1035" type="curve"/>
      <point x="275.0" y="1035"/>
      <point x="291.0" y="993"/>
      <point x="291.0" y="940" type="curve"/>
      <point x="291.0" y="888"/>
      <point x="276.0" y="845"/>
      <point x="230.0" y="845" type="curve"/>
      <point x="184.0" y="845"/>
      <point x="170.0" y="888"/>
      <point x="170.0" y="940" type="curve"/>
    </contour>
  </outline>
</glyph>
<glyph name="AE" format="1">
  <advance width="649.0"/>
  <unicode hex="00C6"/>
  <outline>
    <contour>
      <point x="321.0" y="277"/>
      <point x="329.0" y="254"/>
      <point x="321.0" y="277" type="curve"/>
      <point x="240.0" y="277"/>
      <point x="211.0" y="277"/>
      <point x="130.0" y="277" type="curve"/>
      <point x="120.0" y="254"/>
      <point x="130.0" y="277"/>
      <point x="120.0" y="254" type="curve"/>
      <point x="207.0" y="254"/>
      <point x="242.0" y="254"/>
      <point x="329.0" y="254" type="curve"/>
    </contour>
    <contour>
      <point x="25.0" y="0"/>
      <point x="-2.0" y="0"/>
      <point x="25.0" y="0" type="curve"/>
      <point x="332.0" y="722" type="line"/>
      <point x="310.0" y="722"/>
      <point x="332.0" y="722"/>
      <point x="310.0" y="722" type="curve"/>
      <point x="-2.0" y="0" type="line"/>
    </contour>
    <contour>
      <point x="326.0" y="363"/>
      <point x="326.0" y="385"/>
      <point x="326.0" y="363" type="curve"/>
      <point x="403.0" y="363"/>
      <point x="479.0" y="363"/>
      <point x="556.0" y="363" type="curve"/>
      <point x="556.0" y="385"/>
      <point x="556.0" y="363"/>
      <point x="556.0" y="385" type="curve"/>
      <point x="479.0" y="385"/>
      <point x="403.0" y="385"/>
      <point x="326.0" y="385" type="curve"/>
    </contour>
    <contour>
      <point x="316.0" y="700"/>
      <point x="316.0" y="722"/>
      <point x="316.0" y="700" type="curve"/>
      <point x="411.0" y="700"/>
      <point x="505.0" y="700"/>
      <point x="600.0" y="700" type="curve"/>
      <point x="600.0" y="722"/>
      <point x="600.0" y="700"/>
      <point x="600.0" y="722" type="curve"/>
      <point x="505.0" y="722"/>
      <point x="411.0" y="722"/>
      <point x="316.0" y="722" type="curve"/>
    </contour>
    <contour>
      <point x="335.0" y="0"/>
      <point x="311.0" y="0"/>
      <point x="335.0" y="0" type="curve"/>
      <point x="335.0" y="0"/>
      <point x="335.0" y="722"/>
      <point x="335.0" y="722" type="curve"/>
      <point x="311.0" y="722"/>
      <point x="335.0" y="722"/>
      <point x="311.0" y="722" type="curve"/>
      <point x="311.0" y="481"/>
      <point x="311.0" y="241"/>
      <point x="311.0" y="0" type="curve"/>
    </contour>
    <contour>
      <point x="316.0" y="0"/>
      <point x="316.0" y="22"/>
      <point x="316.0" y="0" type="curve"/>
      <point x="419.0" y="0"/>
      <point x="521.0" y="0"/>
      <point x="624.0" y="0" type="curve"/>
      <point x="624.0" y="22"/>
      <point x="624.0" y="0"/>
      <point x="624.0" y="22" type="curve"/>
      <point x="521.0" y="22"/>
      <point x="419.0" y="22"/>
      <point x="316.0" y="22" type="curve"/>
    </contour>
  </outline>
</glyph>
<glyph name="Ccedilla" format="1">
  <advance width="511.0"/>
  <unicode hex="00C7"/>
  <outline>
    <contour>
      <point x="461.0" y="655"/>
      <point x="448.0" y="638"/>
      <point x="461.0" y="655" type="curve"/>
      <point x="417.0" y="694"/>
      <point x="365.0" y="727"/>
      <point x="301.0" y="727" type="curve"/>
      <point x="117.0" y="727"/>
      <point x="72.0" y="558"/>
      <point x="72.0" y="344" type="curve"/>
      <point x="72.0" y="149"/>
      <point x="116.0" y="-5"/>
      <point x="286.0" y="-5" type="curve"/>
      <point x="371.0" y="-5"/>
      <point x="421.0" y="34"/>
      <point x="475.0" y="96" type="curve"/>
      <point x="459.0" y="113"/>
      <point x="474.0" y="96"/>
      <point x="458.0" y="113" type="curve"/>
      <point x="410.0" y="57"/>
      <point x="364.0" y="21"/>
      <point x="287.0" y="21" type="curve"/>
      <point x="132.0" y="21"/>
      <point x="96.0" y="165"/>
      <point x="96.0" y="345" type="curve"/>
      <point x="96.0" y="542"/>
      <point x="135.0" y="703"/>
      <point x="300.0" y="703" type="curve"/>
      <point x="359.0" y="703"/>
      <point x="408.0" y="674"/>
      <point x="448.0" y="638" type="curve"/>
    </contour>
    <contour>
      <point x="268.0" y="10"/>
      <point x="286.0" y="-5"/>
      <point x="268.0" y="10" type="curve"/>
      <point x="257.0" y="-17"/>
      <point x="247.0" y="-44"/>
      <point x="237.0" y="-70" type="curve"/>
      <point x="254.0" y="-88"/>
      <point x="237.0" y="-70"/>
      <point x="254.0" y="-88" type="curve"/>
      <point x="264.0" y="-60"/>
      <point x="276.0" y="-32"/>
      <point x="286.0" y="-5" type="curve"/>
    </contour>
    <contour>
      <point x="254.0" y="-88"/>
      <point x="237.0" y="-70"/>
      <point x="254.0" y="-88" type="curve"/>
      <point x="263.0" y="-79"/>
      <point x="270.0" y="-75"/>
      <point x="283.0" y="-75" type="curve"/>
      <point x="310.0" y="-75"/>
      <point x="316.0" y="-101"/>
      <point x="316.0" y="-132" type="curve"/>
      <point x="316.0" y="-164"/>
      <point x="303.0" y="-187"/>
      <point x="274.0" y="-187" type="curve"/>
      <point x="255.0" y="-187"/>
      <point x="241.0" y="-183"/>
      <point x="227.0" y="-170" type="curve"/>
      <point x="217.0" y="-187"/>
      <point x="227.0" y="-170"/>
      <point x="217.0" y="-187" type="curve"/>
      <point x="234.0" y="-202"/>
      <point x="250.0" y="-209"/>
      <point x="273.0" y="-209" type="curve"/>
      <point x="317.0" y="-209"/>
      <point x="341.0" y="-177"/>
      <point x="341.0" y="-132" type="curve"/>
      <point x="341.0" y="-88"/>
      <point x="324.0" y="-53"/>
      <point x="285.0" y="-53" type="curve"/>
      <point x="266.0" y="-53"/>
      <point x="253.0" y="-59"/>
      <point x="237.0" y="-70" type="curve"/>
    </contour>
  </outline>
</glyph>
<glyph name="Edieresis" format="1">
  <advance width="466.0"/>
  <unicode hex="00CB"/>
  <outline>
    <contour>
      <point x="143.0" y="363"/>
      <point x="143.0" y="385"/>
      <point x="143.0" y="363" type="curve"/>
      <point x="220.0" y="363"/>
      <point x="296.0" y="363"/>
      <point x="373.0" y="363" type="curve"/>
      <point x="373.0" y="385"/>
      <point x="373.0" y="363"/>
      <point x="373.0" y="385" type="curve"/>
      <point x="296.0" y="385"/>
      <point x="220.0" y="385"/>
      <point x="143.0" y="385" type="curve"/>
    </contour>
    <contour>
      <point x="133.0" y="700"/>
      <point x="133.0" y="722"/>
      <point x="133.0" y="700" type="curve"/>
      <point x="228.0" y="700"/>
      <point x="322.0" y="700"/>
      <point x="417.0" y="700" type="curve"/>
      <point x="417.0" y="722"/>
      <point x="417.0" y="700"/>
      <point x="417.0" y="722" type="curve"/>
      <point x="322.0" y="722"/>
      <point x="228.0" y="722"/>
      <point x="133.0" y="722" type="curve"/>
    </contour>
    <contour>
      <point x="152.0" y="0"/>
      <point x="128.0" y="0"/>
      <point x="152.0" y="0" type="curve"/>
      <point x="152.0" y="0"/>
      <point x="152.0" y="722"/>
      <point x="152.0" y="722" type="curve"/>
      <point x="128.0" y="722"/>
      <point x="152.0" y="722"/>
      <point x="128.0" y="722" type="curve"/>
      <point x="128.0" y="481"/>
      <point x="128.0" y="241"/>
      <point x="128.0" y="0" type="curve"/>
    </contour>
    <contour>
      <point x="133.0" y="0"/>
      <point x="133.0" y="22"/>
      <point x="133.0" y="0" type="curve"/>
      <point x="236.0" y="0"/>
      <point x="338.0" y="0"/>
      <point x="441.0" y="0" type="curve"/>
      <point x="441.0" y="22"/>
      <point x="441.0" y="0"/>
      <point x="441.0" y="22" type="curve"/>
      <point x="338.0" y="22"/>
      <point x="236.0" y="22"/>
      <point x="133.0" y="22" type="curve"/>
    </contour>
    <contour>
      <point x="216.0" y="839"/>
      <point x="181.0" y="839"/>
      <point x="216.0" y="839" type="curve"/>
      <point x="216.0" y="850"/>
      <point x="209.0" y="856"/>
      <point x="198.0" y="856" type="curve"/>
      <point x="187.0" y="856"/>
      <point x="181.0" y="849"/>
      <point x="181.0" y="839" type="curve"/>
      <point x="216.0" y="839"/>
      <point x="181.0" y="839"/>
      <point x="216.0" y="839" type="curve"/>
      <point x="216.0" y="828"/>
      <point x="209.0" y="822"/>
      <point x="198.0" y="822" type="curve"/>
      <point x="187.0" y="822"/>
      <point x="181.0" y="828"/>
      <point x="181.0" y="839" type="curve"/>
    </contour>
    <contour>
      <point x="300.0" y="839"/>
      <point x="265.0" y="839"/>
      <point x="300.0" y="839" type="curve"/>
      <point x="300.0" y="850"/>
      <point x="293.0" y="856"/>
      <point x="282.0" y="856" type="curve"/>
      <point x="271.0" y="856"/>
      <point x="265.0" y="849"/>
      <point x="265.0" y="839" type="curve"/>
      <point x="300.0" y="839"/>
      <point x="265.0" y="839"/>
      <point x="300.0" y="839" type="curve"/>
      <point x="300.0" y="828"/>
      <point x="293.0" y="822"/>
      <point x="282.0" y="822" type="curve"/>
      <point x="271.0" y="822"/>
      <point x="265.0" y="828"/>
      <point x="265.0" y="839" type="curve"/>
    </contour>
  </outline>
</glyph>
<glyph name="Igrave" format="1">
  <advance width="283.0"/>
  <unicode hex="00CC"/>
  <outline>
    <contour>
      <point x="155" y="0"/>
      <point x="131" y="0"/>
      <point x="155" y="0" type="curve"/>
      <point x="155" y="241"/>
      <point x="155" y="481"/>
      <point x="155" y="722" type="curve"/>
      <point x="131" y="722"/>
      <point x="155" y="722"/>
      <point x="131" y="722" type="curve"/>
      <point x="131" y="481"/>
      <point x="131" y="241"/>
      <point x="131" y="0" type="curve"/>
    </contour>
    <contour>
      <point x="158" y="825" type="line"/>
      <point x="92" y="991" type="line"/>
      <point x="61" y="991" type="line"/>
      <point x="134" y="825" type="line"/>
    </contour>
  </outline>
</glyph>
<glyph name="Icircumflex" format="1">
  <advance width="262"/>
  <unicode hex="00CE"/>
  <outline>
    <contour>
      <point x="146" y="0"/>
      <point x="122" y="0"/>
      <point x="146" y="0" type="curve"/>
      <point x="146" y="241"/>
      <point x="146" y="481"/>
      <point x="146" y="722" type="curve"/>
      <point x="122" y="722"/>
      <point x="146" y="722"/>
      <point x="122" y="722" type="curve"/>
      <point x="122" y="481"/>
      <point x="122" y="241"/>
      <point x="122" y="0" type="curve"/>
    </contour>
    <contour>
      <point x="72" y="825" type="line"/>
      <point x="145" y="991" type="line"/>
      <point x="114" y="991" type="line"/>
      <point x="48" y="825" type="line"/>
    </contour>
    <contour>
      <point x="221" y="825" type="line"/>
      <point x="155" y="991" type="line"/>
      <point x="124" y="991" type="line"/>
      <point x="197" y="825" type="line"/>
    </contour>
  </outline>
</glyph>
<glyph name="Idieresis" format="1">
  <advance width="199.0"/>
  <unicode hex="00CF"/>
  <outline>
    <contour>
      <point x="113.0" y="0"/>
      <point x="89.0" y="0"/>
      <point x="113.0" y="0" type="curve"/>
      <point x="113.0" y="241"/>
      <point x="113.0" y="481"/>
      <point x="113.0" y="722" type="curve"/>
      <point x="89.0" y="722"/>
      <point x="113.0" y="722"/>
      <point x="89.0" y="722" type="curve"/>
      <point x="89.0" y="481"/>
      <point x="89.0" y="241"/>
      <point x="89.0" y="0" type="curve"/>
    </contour>
    <contour>
      <point x="77.0" y="839"/>
      <point x="42.0" y="839"/>
      <point x="77.0" y="839" type="curve"/>
      <point x="77.0" y="850"/>
      <point x="70.0" y="856"/>
      <point x="59.0" y="856" type="curve"/>
      <point x="48.0" y="856"/>
      <point x="42.0" y="849"/>
      <point x="42.0" y="839" type="curve"/>
      <point x="77.0" y="839"/>
      <point x="42.0" y="839"/>
      <point x="77.0" y="839" type="curve"/>
      <point x="77.0" y="828"/>
      <point x="70.0" y="822"/>
      <point x="59.0" y="822" type="curve"/>
      <point x="48.0" y="822"/>
      <point x="42.0" y="828"/>
      <point x="42.0" y="839" type="curve"/>
    </contour>
    <contour>
      <point x="161.0" y="839"/>
      <point x="126.0" y="839"/>
      <point x="161.0" y="839" type="curve"/>
      <point x="161.0" y="850"/>
      <point x="154.0" y="856"/>
      <point x="143.0" y="856" type="curve"/>
      <point x="132.0" y="856"/>
      <point x="126.0" y="849"/>
      <point x="126.0" y="839" type="curve"/>
      <point x="161.0" y="839"/>
      <point x="126.0" y="839"/>
      <point x="161.0" y="839" type="curve"/>
      <point x="161.0" y="828"/>
      <point x="154.0" y="822"/>
      <point x="143.0" y="822" type="curve"/>
      <point x="132.0" y="822"/>
      <point x="126.0" y="828"/>
      <point x="126.0" y="839" type="curve"/>
    </contour>
  </outline>
</glyph>
<glyph name="Eth" format="1">
  <advance width="571.85"/>
  <unicode hex="00D0"/>
  <outline>
    <contour>
      <point x="120.85" y="722"/>
      <point x="144.85" y="722"/>
      <point x="120.85" y="722" type="curve"/>
      <point x="120.85" y="481"/>
      <point x="120.85" y="241"/>
      <point x="120.85" y="0" type="curve"/>
      <point x="144.85" y="0"/>
      <point x="120.85" y="0"/>
      <point x="144.85" y="0" type="curve"/>
      <point x="144.85" y="241"/>
      <point x="144.85" y="481"/>
      <point x="144.85" y="722" type="curve"/>
    </contour>
    <contour>
      <point x="133.85" y="14"/>
      <point x="133.85" y="8"/>
      <point x="133.85" y="0" type="curve"/>
      <point x="178.85" y="0"/>
      <point x="206.85" y="0"/>
      <point x="251.85" y="0" type="curve"/>
      <point x="433.85" y="0"/>
      <point x="497.85" y="153"/>
      <point x="497.85" y="356" type="curve"/>
      <point x="497.85" y="565"/>
      <point x="429.85" y="722"/>
      <point x="242.85" y="722" type="curve"/>
      <point x="201.85" y="722"/>
      <point x="174.85" y="722"/>
      <point x="133.85" y="722" type="curve"/>
      <point x="133.85" y="714"/>
      <point x="133.85" y="708"/>
      <point x="133.85" y="700" type="curve"/>
      <point x="174.85" y="700"/>
      <point x="200.85" y="700"/>
      <point x="241.85" y="700" type="curve"/>
      <point x="415.85" y="700"/>
      <point x="473.85" y="551"/>
      <point x="473.85" y="355" type="curve"/>
      <point x="473.85" y="167"/>
      <point x="420.85" y="22"/>
      <point x="253.85" y="22" type="curve"/>
      <point x="208.85" y="22"/>
      <point x="178.85" y="22"/>
      <point x="133.85" y="22" type="curve"/>
    </contour>
    <contour>
      <point x="44.85" y="404"/>
      <point x="44.85" y="428"/>
      <point x="44.85" y="404" type="curve"/>
      <point x="113.85" y="404"/>
      <point x="182.85" y="404"/>
      <point x="250.85" y="404" type="curve"/>
      <point x="250.85" y="428"/>
      <point x="250.85" y="404"/>
      <point x="250.85" y="428" type="curve"/>
      <point x="182.85" y="428"/>
      <point x="113.85" y="428"/>
      <point x="44.85" y="428" type="curve"/>
    </contour>
  </outline>
</glyph>
<glyph name="Ntilde" format="1">
  <advance width="659.0"/>
  <unicode hex="00D1"/>
  <outline>
    <contour>
      <point x="532.0" y="0"/>
      <point x="502.0" y="0"/>
      <point x="531.0" y="0" type="curve"/>
      <point x="406.0" y="241"/>
      <point x="281.0" y="481"/>
      <point x="156.0" y="722" type="curve"/>
      <point x="127.0" y="722"/>
      <point x="157.0" y="722"/>
      <point x="128.0" y="722" type="curve"/>
      <point x="253.0" y="481"/>
      <point x="378.0" y="241"/>
      <point x="503.0" y="0" type="curve"/>
    </contour>
    <contour>
      <point x="507.0" y="722"/>
      <point x="531.0" y="722"/>
      <point x="507.0" y="722" type="curve"/>
      <point x="507.0" y="481"/>
      <point x="507.0" y="241"/>
      <point x="507.0" y="0" type="curve"/>
      <point x="531.0" y="0"/>
      <point x="507.0" y="0"/>
      <point x="531.0" y="0" type="curve"/>
      <point x="531.0" y="241"/>
      <point x="531.0" y="481"/>
      <point x="531.0" y="722" type="curve"/>
    </contour>
    <contour>
      <point x="153.0" y="0"/>
      <point x="129.0" y="0"/>
      <point x="153.0" y="0" type="curve"/>
      <point x="153.0" y="241"/>
      <point x="153.0" y="481"/>
      <point x="153.0" y="722" type="curve"/>
      <point x="129.0" y="722"/>
      <point x="153.0" y="722"/>
      <point x="129.0" y="722" type="curve"/>
      <point x="129.0" y="481"/>
      <point x="129.0" y="241"/>
      <point x="129.0" y="0" type="curve"/>
    </contour>
    <contour>
      <point x="454.0" y="949"/>
      <point x="475.0" y="945"/>
      <point x="454.0" y="949" type="curve"/>
      <point x="445.0" y="899"/>
      <point x="440.0" y="846"/>
      <point x="406.0" y="846" type="curve"/>
      <point x="376.0" y="846"/>
      <point x="363.0" y="868"/>
      <point x="347.0" y="895" type="curve"/>
      <point x="328.0" y="925"/>
      <point x="313.0" y="950"/>
      <point x="278.0" y="950" type="curve"/>
      <point x="221.0" y="950"/>
      <point x="213.0" y="894"/>
      <point x="204.0" y="831" type="curve"/>
      <point x="224.0" y="825"/>
      <point x="204.0" y="831"/>
      <point x="224.0" y="825" type="curve"/>
      <point x="232.0" y="878"/>
      <point x="236.0" y="928"/>
      <point x="278.0" y="928" type="curve"/>
      <point x="306.0" y="928"/>
      <point x="315.0" y="905"/>
      <point x="329.0" y="881" type="curve"/>
      <point x="349.0" y="849"/>
      <point x="367.0" y="825"/>
      <point x="404.0" y="825" type="curve"/>
      <point x="461.0" y="825"/>
      <point x="464.0" y="884"/>
      <point x="475.0" y="945" type="curve"/>
    </contour>
  </outline>
</glyph>
<glyph name="Oacute" format="1">
  <advance width="573.5"/>
  <unicode hex="00D3"/>
  <outline>
    <contour>
      <point x="97.15" y="360"/>
      <point x="72.15" y="360"/>
      <point x="97.15" y="360" type="curve" name="FullCurve"/>
      <point x="97.15" y="543"/>
      <point x="127.15" y="704"/>
      <point x="285.15" y="704" type="curve" name="FullCurve"/>
      <point x="443.15" y="704"/>
      <point x="477.15" y="545"/>
      <point x="477.15" y="363" type="curve" name="FullCurve"/>
      <point x="477.15" y="183"/>
      <point x="446.15" y="18"/>
      <point x="288.15" y="18" type="curve" name="FullCurve"/>
      <point x="129.15" y="18"/>
      <point x="97.15" y="177"/>
      <point x="97.15" y="360" type="curve" name="FullCurve"/>
      <point x="72.15" y="360"/>
      <point x="97.15" y="360"/>
      <point x="72.15" y="360" type="curve" name="FullCurve"/>
      <point x="72.15" y="162"/>
      <point x="115.15" y="-5"/>
      <point x="287.15" y="-5" type="curve" name="FullCurve"/>
      <point x="459.15" y="-5"/>
      <point x="501.15" y="164"/>
      <point x="501.15" y="363" type="curve" name="FullCurve"/>
      <point x="501.15" y="560"/>
      <point x="459.15" y="727"/>
      <point x="287.15" y="727" type="curve" name="FullCurve"/>
      <point x="114.15" y="727"/>
      <point x="72.15" y="558"/>
      <point x="72.15" y="360" type="curve" name="FullCurve"/>
    </contour>
    <contour>
      <point x="297.15" y="825" type="line"/>
      <point x="370.15" y="991" type="line"/>
      <point x="339.15" y="991" type="line"/>
      <point x="273.15" y="825" type="line"/>
    </contour>
  </outline>
</glyph>
<glyph name="Otilde" format="1">
  <advance width="573.5"/>
  <unicode hex="00D5"/>
  <outline>
    <contour>
      <point x="97.15" y="360"/>
      <point x="72.15" y="360"/>
      <point x="97.15" y="360" type="curve" name="FullCurve"/>
      <point x="97.15" y="543"/>
      <point x="127.15" y="704"/>
      <point x="285.15" y="704" type="curve" name="FullCurve"/>
      <point x="443.15" y="704"/>
      <point x="477.15" y="545"/>
      <point x="477.15" y="363" type="curve" name="FullCurve"/>
      <point x="477.15" y="183"/>
      <point x="446.15" y="18"/>
      <point x="288.15" y="18" type="curve" name="FullCurve"/>
      <point x="129.15" y="18"/>
      <point x="97.15" y="177"/>
      <point x="97.15" y="360" type="curve" name="FullCurve"/>
      <point x="72.15" y="360"/>
      <point x="97.15" y="360"/>
      <point x="72.15" y="360" type="curve" name="FullCurve"/>
      <point x="72.15" y="162"/>
      <point x="115.15" y="-5"/>
      <point x="287.15" y="-5" type="curve" name="FullCurve"/>
      <point x="459.15" y="-5"/>
      <point x="501.15" y="164"/>
      <point x="501.15" y="363" type="curve" name="FullCurve"/>
      <point x="501.15" y="560"/>
      <point x="459.15" y="727"/>
      <point x="287.15" y="727" type="curve" name="FullCurve"/>
      <point x="114.15" y="727"/>
      <point x="72.15" y="558"/>
      <point x="72.15" y="360" type="curve" name="FullCurve"/>
    </contour>
    <contour>
      <point x="402.15" y="949"/>
      <point x="423.15" y="945"/>
      <point x="402.15" y="949" type="curve"/>
      <point x="393.15" y="899"/>
      <point x="388.15" y="846"/>
      <point x="354.15" y="846" type="curve"/>
      <point x="324.15" y="846"/>
      <point x="311.15" y="868"/>
      <point x="295.15" y="895" type="curve"/>
      <point x="276.15" y="925"/>
      <point x="261.15" y="950"/>
      <point x="226.15" y="950" type="curve"/>
      <point x="169.15" y="950"/>
      <point x="161.15" y="894"/>
      <point x="152.15" y="831" type="curve"/>
      <point x="172.15" y="825"/>
      <point x="152.15" y="831"/>
      <point x="172.15" y="825" type="curve"/>
      <point x="180.15" y="878"/>
      <point x="184.15" y="928"/>
      <point x="226.15" y="928" type="curve"/>
      <point x="254.15" y="928"/>
      <point x="263.15" y="905"/>
      <point x="277.15" y="881" type="curve"/>
      <point x="297.15" y="849"/>
      <point x="315.15" y="825"/>
      <point x="352.15" y="825" type="curve"/>
      <point x="409.15" y="825"/>
      <point x="412.15" y="884"/>
      <point x="423.15" y="945" type="curve"/>
    </contour>
  </outline>
</glyph>
<glyph name="Odieresis" format="1">
  <advance width="573.5"/>
  <unicode hex="00D6"/>
  <outline>
    <contour>
      <point x="97.15" y="360"/>
      <point x="72.15" y="360"/>
      <point x="97.15" y="360" type="curve" name="FullCurve"/>
      <point x="97.15" y="543"/>
      <point x="127.15" y="704"/>
      <point x="285.15" y="704" type="curve" name="FullCurve"/>
      <point x="443.15" y="704"/>
      <point x="477.15" y="545"/>
      <point x="477.15" y="363" type="curve" name="FullCurve"/>
      <point x="477.15" y="183"/>
      <point x="446.15" y="18"/>
      <point x="288.15" y="18" type="curve" name="FullCurve"/>
      <point x="129.15" y="18"/>
      <point x="97.15" y="177"/>
      <point x="97.15" y="360" type="curve" name="FullCurve"/>
      <point x="72.15" y="360"/>
      <point x="97.15" y="360"/>
      <point x="72.15" y="360" type="curve" name="FullCurve"/>
      <point x="72.15" y="162"/>
      <point x="115.15" y="-5"/>
      <point x="287.15" y="-5" type="curve" name="FullCurve"/>
      <point x="459.15" y="-5"/>
      <point x="501.15" y="164"/>
      <point x="501.15" y="363" type="curve" name="FullCurve"/>
      <point x="501.15" y="560"/>
      <point x="459.15" y="727"/>
      <point x="287.15" y="727" type="curve" name="FullCurve"/>
      <point x="114.15" y="727"/>
      <point x="72.15" y="558"/>
      <point x="72.15" y="360" type="curve" name="FullCurve"/>
    </contour>
    <contour>
      <point x="261.15" y="839"/>
      <point x="226.15" y="839"/>
      <point x="261.15" y="839" type="curve"/>
      <point x="261.15" y="850"/>
      <point x="254.15" y="856"/>
      <point x="243.15" y="856" type="curve"/>
      <point x="232.15" y="856"/>
      <point x="226.15" y="849"/>
      <point x="226.15" y="839" type="curve"/>
      <point x="261.15" y="839"/>
      <point x="226.15" y="839"/>
      <point x="261.15" y="839" type="curve"/>
      <point x="261.15" y="828"/>
      <point x="254.15" y="822"/>
      <point x="243.15" y="822" type="curve"/>
      <point x="232.15" y="822"/>
      <point x="226.15" y="828"/>
      <point x="226.15" y="839" type="curve"/>
    </contour>
    <contour>
      <point x="345.15" y="839"/>
      <point x="310.15" y="839"/>
      <point x="345.15" y="839" type="curve"/>
      <point x="345.15" y="850"/>
      <point x="338.15" y="856"/>
      <point x="327.15" y="856" type="curve"/>
      <point x="316.15" y="856"/>
      <point x="310.15" y="849"/>
      <point x="310.15" y="839" type="curve"/>
      <point x="345.15" y="839"/>
      <point x="310.15" y="839"/>
      <point x="345.15" y="839" type="curve"/>
      <point x="345.15" y="828"/>
      <point x="338.15" y="822"/>
      <point x="327.15" y="822" type="curve"/>
      <point x="316.15" y="822"/>
      <point x="310.15" y="828"/>
      <point x="310.15" y="839" type="curve"/>
    </contour>
  </outline>
</glyph>
<glyph name="multiply" format="1">
  <advance width="499.0"/>
  <unicode hex="00D7"/>
  <outline>
    <contour>
      <point x="88.0" y="130" type="line"/>
      <point x="429.0" y="471" type="line"/>
      <point x="412.0" y="488" type="line"/>
      <point x="71.0" y="147" type="line"/>
    </contour>
    <contour>
      <point x="429.0" y="147" type="line"/>
      <point x="88.0" y="488" type="line"/>
      <point x="71.0" y="471" type="line"/>
      <point x="412.0" y="130" type="line"/>
    </contour>
  </outline>
</glyph>
<glyph name="Oslash" format="1">
  <advance width="573.5"/>
  <unicode hex="00D8"/>
  <outline>
    <contour>
      <point x="150.15" y="-68" type="line"/>
      <point x="447.15" y="773" type="line"/>
      <point x="424.15" y="781" type="line"/>
      <point x="127.15" y="-59" type="line"/>
    </contour>
    <contour>
      <point x="97.15" y="360"/>
      <point x="72.15" y="360"/>
      <point x="97.15" y="360" type="curve" name="FullCurve"/>
      <point x="97.15" y="543"/>
      <point x="127.15" y="704"/>
      <point x="285.15" y="704" type="curve" name="FullCurve"/>
      <point x="443.15" y="704"/>
      <point x="477.15" y="545"/>
      <point x="477.15" y="363" type="curve" name="FullCurve"/>
      <point x="477.15" y="183"/>
      <point x="446.15" y="18"/>
      <point x="288.15" y="18" type="curve" name="FullCurve"/>
      <point x="129.15" y="18"/>
      <point x="97.15" y="177"/>
      <point x="97.15" y="360" type="curve" name="FullCurve"/>
      <point x="72.15" y="360"/>
      <point x="97.15" y="360"/>
      <point x="72.15" y="360" type="curve" name="FullCurve"/>
      <point x="72.15" y="162"/>
      <point x="115.15" y="-5"/>
      <point x="287.15" y="-5" type="curve" name="FullCurve"/>
      <point x="459.15" y="-5"/>
      <point x="501.15" y="164"/>
      <point x="501.15" y="363" type="curve" name="FullCurve"/>
      <point x="501.15" y="560"/>
      <point x="459.15" y="727"/>
      <point x="287.15" y="727" type="curve" name="FullCurve"/>
      <point x="114.15" y="727"/>
      <point x="72.15" y="558"/>
      <point x="72.15" y="360" type="curve" name="FullCurve"/>
    </contour>
  </outline>
</glyph>
<glyph name="Yacute" format="1">
  <advance width="403.0"/>
  <unicode hex="00DD"/>
  <outline>
    <contour>
      <point x="26.0" y="722"/>
      <point x="53.0" y="722"/>
      <point x="26.0" y="722" type="curve"/>
      <point x="81.0" y="594"/>
      <point x="136.0" y="465"/>
      <point x="191.0" y="337" type="curve"/>
      <point x="217.0" y="337"/>
      <point x="191.0" y="337"/>
      <point x="217.0" y="337" type="curve"/>
      <point x="162.0" y="465"/>
      <point x="107.0" y="594"/>
      <point x="53.0" y="722" type="curve"/>
    </contour>
    <contour>
      <point x="364.0" y="722"/>
      <point x="391.0" y="722"/>
      <point x="364.0" y="722" type="curve"/>
      <point x="307.0" y="594"/>
      <point x="249.0" y="465"/>
      <point x="191.0" y="337" type="curve"/>
      <point x="217.0" y="337"/>
      <point x="191.0" y="337"/>
      <point x="217.0" y="337" type="curve"/>
      <point x="275.0" y="465"/>
      <point x="333.0" y="594"/>
      <point x="391.0" y="722" type="curve"/>
    </contour>
    <contour>
      <point x="217.0" y="0"/>
      <point x="191.0" y="0"/>
      <point x="217.0" y="0" type="curve"/>
      <point x="217.0" y="115"/>
      <point x="217.0" y="231"/>
      <point x="217.0" y="346" type="curve"/>
      <point x="191.0" y="346"/>
      <point x="217.0" y="346"/>
      <point x="191.0" y="346" type="curve"/>
      <point x="191.0" y="231"/>
      <point x="191.0" y="115"/>
      <point x="191.0" y="0" type="curve"/>
    </contour>
    <contour>
      <point x="217.0" y="825" type="line"/>
      <point x="290.0" y="991" type="line"/>
      <point x="259.0" y="991" type="line"/>
      <point x="193.0" y="825" type="line"/>
    </contour>
  </outline>
</glyph>
<glyph name="Thorn" format="1">
  <advance width="458.0"/>
  <unicode hex="00DE"/>
  <outline>
    <contour>
      <point x="138.0" y="221"/>
      <point x="146.0" y="240"/>
      <point x="138.0" y="220" type="curve"/>
      <point x="170.0" y="195"/>
      <point x="206.0" y="175"/>
      <point x="249.0" y="175" type="curve"/>
      <point x="357.0" y="177"/>
      <point x="406.0" y="264"/>
      <point x="406.0" y="389" type="curve"/>
      <point x="406.0" y="516"/>
      <point x="350.0" y="617"/>
      <point x="233.0" y="617" type="curve"/>
      <point x="203.0" y="617"/>
      <point x="173.0" y="617"/>
      <point x="143.0" y="617" type="curve"/>
      <point x="143.0" y="595"/>
      <point x="143.0" y="617"/>
      <point x="143.0" y="595" type="curve"/>
      <point x="172.0" y="595"/>
      <point x="201.0" y="595"/>
      <point x="230.0" y="595" type="curve"/>
      <point x="335.0" y="595"/>
      <point x="382.0" y="503"/>
      <point x="382.0" y="388" type="curve"/>
      <point x="382.0" y="283"/>
      <point x="343.0" y="198"/>
      <point x="250.0" y="198" type="curve"/>
      <point x="207.0" y="198"/>
      <point x="180.0" y="215"/>
      <point x="146.0" y="241" type="curve"/>
    </contour>
    <contour>
      <point x="152.0" y="0"/>
      <point x="128.0" y="0"/>
      <point x="152.0" y="0" type="curve"/>
      <point x="152.0" y="241"/>
      <point x="152.0" y="481"/>
      <point x="152.0" y="722" type="curve"/>
      <point x="128.0" y="722"/>
      <point x="152.0" y="722"/>
      <point x="128.0" y="722" type="curve"/>
      <point x="128.0" y="481"/>
      <point x="128.0" y="241"/>
      <point x="128.0" y="0" type="curve"/>
    </contour>
  </outline>
</glyph>
<glyph name="germandbls" format="1">
  <advance width="453.0"/>
  <unicode hex="00DF"/>
  <outline>
    <contour>
      <point x="133.0" y="0"/>
      <point x="109.0" y="0"/>
      <point x="133.0" y="0" type="curve"/>
      <point x="133.0" y="207"/>
      <point x="133.0" y="412"/>
      <point x="133.0" y="619" type="curve"/>
      <point x="109.0" y="619"/>
      <point x="133.0" y="619"/>
      <point x="109.0" y="619" type="curve"/>
      <point x="109.0" y="412"/>
      <point x="109.0" y="207"/>
      <point x="109.0" y="0" type="curve"/>
    </contour>
    <contour>
      <point x="133.0" y="619"/>
      <point x="109.0" y="619"/>
      <point x="133.0" y="619" type="curve"/>
      <point x="133.0" y="709"/>
      <point x="162.0" y="783"/>
      <point x="239.0" y="783" type="curve"/>
      <point x="317.0" y="783"/>
      <point x="355.0" y="716"/>
      <point x="355.0" y="627" type="curve"/>
      <point x="355.0" y="538"/>
      <point x="309.0" y="471"/>
      <point x="230.0" y="471" type="curve"/>
      <point x="230.0" y="453"/>
      <point x="230.0" y="471"/>
      <point x="230.0" y="453" type="curve"/>
      <point x="326.0" y="453"/>
      <point x="378.0" y="526"/>
      <point x="378.0" y="628" type="curve"/>
      <point x="378.0" y="730"/>
      <point x="335.0" y="805"/>
      <point x="241.0" y="805" type="curve"/>
      <point x="147.0" y="805"/>
      <point x="109.0" y="723"/>
      <point x="109.0" y="619" type="curve"/>
    </contour>
    <contour>
      <point x="298.0" y="87"/>
      <point x="291.0" y="108"/>
      <point x="298.0" y="87" type="curve"/>
      <point x="374.0" y="113"/>
      <point x="401.0" y="179"/>
      <point x="401.0" y="273" type="curve"/>
      <point x="401.0" y="386"/>
      <point x="346.0" y="471"/>
      <point x="230.0" y="471" type="curve"/>
      <point x="230.0" y="453"/>
      <point x="230.0" y="471"/>
      <point x="230.0" y="453" type="curve"/>
      <point x="318.0" y="453"/>
      <point x="378.0" y="377"/>
      <point x="378.0" y="272" type="curve"/>
      <point x="378.0" y="192"/>
      <point x="352.0" y="133"/>
      <point x="291.0" y="108" type="curve"/>
    </contour>
  </outline>
</glyph>
